# Simple Cowboy Hat - Low-Poly Mesh (Flipped Normals)
# Features a curved brim and a dented crown.

# --- VERTICES (25 Total) ---

# Outer Brim (1-8) - Wide oval, curling up at the X-axis (sides)
v 0.0 0.0 2.5
v -1.4 0.2 1.8
v -2.0 0.6 0.0
v -1.4 0.2 -1.8
v 0.0 0.0 -2.5
v 1.4 0.2 -1.8
v 2.0 0.6 0.0
v 1.4 0.2 1.8

# Inner Brim / Base of Crown (9-16)
v 0.0 0.1 1.2
v -0.7 0.1 0.8
v -1.0 0.1 0.0
v -0.7 0.1 -0.8
v 0.0 0.1 -1.2
v 0.7 0.1 -0.8
v 1.0 0.1 0.0
v 0.7 0.1 0.8

# Top of Crown (17-24) - Tapered inward, pinched at the sides
v 0.0 1.3 1.0
v -0.6 1.1 0.7
v -0.8 1.0 0.0
v -0.6 1.1 -0.7
v 0.0 1.3 -1.0
v 0.6 1.1 -0.7
v 0.8 1.0 0.0
v 0.6 1.1 0.7

# Crown Center / Dent (25) - Pushed down to create the top crease
v 0.0 0.9 0.0


# --- FACES (Triangles) ---

# Brim (Connecting Outer to Inner)
f 10 2 1
f 9 10 1
f 11 3 2
f 10 11 2
f 12 4 3
f 11 12 3
f 13 5 4
f 12 13 4
f 14 6 5
f 13 14 5
f 15 7 6
f 14 15 6
f 16 8 7
f 15 16 7
f 9 1 8
f 16 9 8

# Crown Sides (Connecting Base to Top)
f 18 10 9
f 17 18 9
f 19 11 10
f 18 19 10
f 20 12 11
f 19 20 11
f 21 13 12
f 20 21 12
f 22 14 13
f 21 22 13
f 23 15 14
f 22 23 14
f 24 16 15
f 23 24 15
f 17 9 16
f 24 17 16

# Crown Top (Connecting Top Edge to Center Dent)
f 25 18 17
f 25 19 18
f 25 20 19
f 25 21 20
f 25 22 21
f 25 23 22
f 25 24 23
f 25 17 24
