v 0.147494 0.655121 0.121216
v -0.006139 0.559091 0.131958
v -0.004784 0.443849 0.193403
v 0.257179 0.255686 -0.126719
v 0.155872 0.122184 -0.088915
v 0.123014 0.184529 -0.157092
v -0.160026 0.216304 0.162100
v -0.029362 0.105705 0.133185
v -0.003244 0.218874 0.187990
v 0.267436 0.202936 0.062290
v 0.161012 0.092304 -0.019479
v 0.318626 0.249541 -0.015743
v -0.028479 0.016653 -0.044535
v -0.184081 0.162269 -0.114924
v -0.022053 0.038536 -0.086242
v 0.196755 0.496817 -0.188705
v -0.005621 0.455221 -0.188347
v 0.160066 0.608759 -0.156338
v 0.257804 0.547121 -0.167831
v 0.253519 0.430757 -0.180579
v 0.342404 0.533755 0.129859
v 0.353155 0.393739 0.118789
v 0.402398 0.497764 0.061943
v -0.284579 0.680346 0.020857
v -0.377881 0.587476 0.053155
v -0.251081 0.656266 0.112598
v -0.261459 0.406248 0.178769
v -0.101058 0.318691 0.201241
v -0.219360 0.536911 0.184026
v -0.071514 0.162071 -0.159436
v -0.167943 0.281665 -0.179938
v -0.059781 0.380871 -0.202391
v -0.216491 0.525628 -0.185421
v 0.151161 0.324150 -0.194278
v -0.002742 0.248010 -0.196508
v -0.131622 0.332654 -0.196844
v -0.342406 0.635306 -0.037288
v -0.409486 0.529458 -0.034002
v 0.332431 0.452828 -0.145198
v 0.384991 0.523576 -0.098791
v 0.131992 0.684564 0.071374
v 0.144539 0.699994 -0.014293
v 0.000245 0.611658 0.065659
v 0.083122 0.375340 -0.201855
v 0.062907 0.033178 -0.038967
v 0.036224 0.033795 0.074724
v 0.153589 0.111544 0.078729
v 0.276316 0.217946 -0.065395
v 0.372924 0.383406 -0.088221
v 0.410209 0.431133 -0.001829
v -0.192979 0.158924 0.098664
v -0.180153 0.103431 0.001676
v -0.046400 0.035257 0.069252
v 0.053103 0.061169 -0.093929
v 0.038161 0.127001 -0.145693
v 0.193786 0.282893 -0.171499
v 0.288942 0.362746 -0.157636
v -0.288056 0.382245 -0.168533
v -0.000029 0.613486 -0.064597
v -0.123597 0.691443 -0.032097
v -0.291695 0.222626 0.039589
v -0.287205 0.218536 -0.045285
v -0.403293 0.412565 -0.039831
v -0.376628 0.351202 0.040851
v 0.282358 0.687105 -0.021608
v 0.351950 0.610495 0.072305
v 0.392164 0.574711 -0.040928
v 0.083484 0.143860 0.146628
v 0.174445 0.268709 0.176008
v 0.113124 0.344381 0.201531
v 0.282481 0.407729 0.171814
v 0.238104 0.520690 0.181307
v -0.139629 0.609171 0.150845
v -0.126854 0.671631 0.093294
v -0.397322 0.462635 0.077085
v -0.340838 0.524831 0.135495
v -0.147921 0.646919 -0.134569
v -0.332331 0.562536 -0.128557
v 0.242165 0.685561 0.064158
v 0.141410 0.677846 -0.092481
v 0.003908 0.555055 -0.136214
v 0.260990 0.650648 -0.110426
v -0.329150 0.359369 0.128761
v -0.232145 0.690640 -0.062758
v -0.279789 0.633066 -0.114545
v -0.191551 0.701912 0.032783
v 0.249369 0.259076 0.132334
v 0.383788 0.376516 0.052076
v -0.335331 0.323264 -0.093271
v -0.367307 0.449659 -0.120817
v 0.246161 0.626550 0.131291
v 0.169847 0.572910 0.173166
f 1 2 3 
f 4 5 6 
f 7 8 9 
f 10 11 12 
f 13 14 15 
f 16 17 18 
f 19 20 16 
f 21 22 23 
f 24 25 26 
f 27 28 29 
f 30 14 31 
f 32 33 17 
f 20 34 16 
f 35 36 32 
f 32 36 33 
f 37 38 25 
f 39 19 40 
f 41 42 43 
f 16 44 32 
f 16 32 17 
f 15 45 13 
f 46 11 47 
f 11 48 12 
f 49 40 50 
f 51 52 53 
f 13 45 46 
f 54 15 55 
f 30 31 35 
f 48 49 12 
f 4 56 57 
f 55 15 30 
f 15 14 30 
f 57 56 34 
f 55 30 35 
f 11 5 48 
f 46 45 11 
f 49 4 57 
f 40 49 39 
f 6 35 34 
f 35 32 44 
f 39 49 57 
f 39 20 19 
f 48 5 4 
f 48 4 49 
f 35 6 55 
f 6 54 55 
f 11 45 5 
f 45 15 54 
f 39 57 20 
f 20 57 34 
f 36 58 33 
f 31 14 58 
f 35 31 36 
f 31 58 36 
f 5 54 6 
f 54 5 45 
f 34 44 16 
f 34 35 44 
f 4 6 56 
f 6 34 56 
f 42 59 43 
f 60 43 59 
f 61 62 52 
f 63 62 64 
f 65 66 67 
f 67 66 23 
f 68 69 9 
f 70 71 72 
f 2 73 3 
f 43 60 74 
f 63 64 75 
f 76 27 29 
f 17 33 77 
f 37 78 38 
f 72 71 21 
f 79 66 65 
f 80 18 81 
f 82 65 67 
f 52 51 61 
f 64 83 75 
f 84 77 85 
f 60 84 86 
f 68 47 87 
f 22 10 88 
f 29 26 76 
f 2 74 73 
f 89 63 90 
f 38 78 90 
f 21 91 72 
f 1 3 92 
f 28 3 29 
f 3 70 72 
f 42 79 65 
f 65 82 80 
f 81 59 80 
f 77 59 81 
f 7 28 27 
f 61 51 83 
f 12 88 10 
f 12 49 50 
f 59 77 60 
f 77 84 60 
f 52 14 13 
f 52 13 53 
f 33 58 78 
f 33 85 77 
f 76 26 25 
f 38 75 25 
f 63 75 38 
f 38 90 63 
f 86 24 26 
f 74 26 73 
f 53 8 7 
f 46 47 68 
f 52 62 14 
f 58 14 89 
f 76 75 83 
f 25 75 76 
f 29 3 73 
f 73 26 29 
f 53 7 51 
f 83 51 7 
f 92 91 1 
f 42 41 79 
f 66 21 23 
f 66 91 21 
f 37 84 85 
f 84 24 86 
f 69 71 70 
f 87 10 22 
f 83 7 27 
f 76 83 27 
f 58 89 90 
f 58 90 78 
f 18 19 16 
f 18 80 82 
f 19 18 82 
f 82 40 19 
f 53 46 8 
f 53 13 46 
f 43 2 41 
f 43 74 2 
f 71 22 21 
f 87 22 71 
f 17 77 81 
f 17 81 18 
f 9 69 70 
f 28 70 3 
f 88 23 22 
f 50 67 23 
f 40 67 50 
f 82 67 40 
f 46 68 8 
f 9 8 68 
f 74 60 86 
f 86 26 74 
f 64 61 83 
f 62 61 64 
f 42 80 59 
f 65 80 42 
f 9 70 28 
f 7 9 28 
f 91 66 79 
f 79 1 91 
f 24 84 37 
f 24 37 25 
f 89 14 62 
f 89 62 63 
f 72 92 3 
f 72 91 92 
f 88 50 23 
f 12 50 88 
f 33 78 85 
f 37 85 78 
f 68 87 69 
f 69 87 71 
f 47 10 87 
f 47 11 10 
f 41 2 1 
f 79 41 1