# Simple Horse - Low-Poly Block Mesh
# Comprised of a Torso, Neck, Head, and 4 Legs.

# --- VERTICES (56 Total) ---

# Box 1: Torso (1-8)
v -0.6 1.0 1.5
v 0.6 1.0 1.5
v 0.6 2.0 1.5
v -0.6 2.0 1.5
v -0.6 1.0 -1.5
v 0.6 1.0 -1.5
v 0.6 2.0 -1.5
v -0.6 2.0 -1.5

# Box 2: Neck (9-16)
v -0.4 2.0 2.0
v 0.4 2.0 2.0
v 0.4 3.6 2.6
v -0.4 3.6 2.6
v -0.4 1.8 1.0
v 0.4 1.8 1.0
v 0.4 3.2 1.8
v -0.4 3.2 1.8

# Box 3: Head (17-24)
v -0.2 3.0 3.2
v 0.2 3.0 3.2
v 0.2 3.4 3.2
v -0.2 3.4 3.2
v -0.3 3.2 2.2
v 0.3 3.2 2.2
v 0.3 3.8 1.8
v -0.3 3.8 1.8

# Box 4: Front Left Leg (25-32)
v -0.7 0.0 1.3
v -0.4 0.0 1.3
v -0.4 1.2 1.4
v -0.8 1.2 1.4
v -0.7 0.0 0.9
v -0.4 0.0 0.9
v -0.4 1.2 1.0
v -0.8 1.2 1.0

# Box 5: Front Right Leg (33-40)
v 0.4 0.0 1.3
v 0.7 0.0 1.3
v 0.8 1.2 1.4
v 0.4 1.2 1.4
v 0.4 0.0 0.9
v 0.7 0.0 0.9
v 0.8 1.2 1.0
v 0.4 1.2 1.0

# Box 6: Back Left Leg (41-48)
v -0.7 0.0 -1.0
v -0.4 0.0 -1.0
v -0.4 1.2 -0.8
v -0.8 1.2 -0.8
v -0.7 0.0 -1.6
v -0.4 0.0 -1.6
v -0.4 1.2 -1.4
v -0.8 1.2 -1.4

# Box 7: Back Right Leg (49-56)
v 0.4 0.0 -1.0
v 0.7 0.0 -1.0
v 0.8 1.2 -0.8
v 0.4 1.2 -0.8
v 0.4 0.0 -1.6
v 0.7 0.0 -1.6
v 0.8 1.2 -1.4
v 0.4 1.2 -1.4

# --- FACES (Triangulated) ---

# Torso Faces
f 1 2 3
f 1 3 4
f 6 5 8
f 6 8 7
f 5 1 4
f 5 4 8
f 2 6 7
f 2 7 3
f 4 3 7
f 4 7 8
f 5 6 2
f 5 2 1

# Neck Faces
f 9 10 11
f 9 11 12
f 14 13 16
f 14 16 15
f 13 9 12
f 13 12 16
f 10 14 15
f 10 15 11
f 12 11 15
f 12 15 16
f 13 14 10
f 13 10 9

# Head Faces
f 17 18 19
f 17 19 20
f 22 21 24
f 22 24 23
f 21 17 20
f 21 20 24
f 18 22 23
f 18 23 19
f 20 19 23
f 20 23 24
f 21 22 18
f 21 18 17

# Front Left Leg Faces
f 25 26 27
f 25 27 28
f 30 29 32
f 30 32 31
f 29 25 28
f 29 28 32
f 26 30 31
f 26 31 27
f 28 27 31
f 28 31 32
f 29 30 26
f 29 26 25

# Front Right Leg Faces
f 33 34 35
f 33 35 36
f 38 37 40
f 38 40 39
f 37 33 36
f 37 36 40
f 34 38 39
f 34 39 35
f 36 35 39
f 36 39 40
f 37 38 34
f 37 34 33

# Back Left Leg Faces
f 41 42 43
f 41 43 44
f 46 45 48
f 46 48 47
f 45 41 44
f 45 44 48
f 42 46 47
f 42 47 43
f 44 43 47
f 44 47 48
f 45 46 42
f 45 42 41

# Back Right Leg Faces
f 49 50 51
f 49 51 52
f 54 53 56
f 54 56 55
f 53 49 52
f 53 52 56
f 50 54 55
f 50 55 51
f 52 51 55
f 52 55 56
f 53 54 50
f 53 50 49
