v -0.262768 0.000000 0.064755
v -0.275000 0.000000 -0.012500
v -0.262768 0.000000 -0.089755
v -0.025000 0.980000 0.048475
v -0.262768 0.029850 -0.089755
v -0.275000 0.029850 -0.012500
v -0.262768 0.029850 0.064755
v -0.244513 0.029850 -0.012500
v -0.035585 0.980000 0.047550
v -0.084330 0.381850 0.046830
v -0.092720 0.375372 0.055220
v -0.014415 0.980000 0.047550
v -0.124245 0.799703 0.044792
v -0.112780 0.799703 0.061158
v -0.227255 0.000000 -0.159450
v -0.227255 0.000000 0.134450
v -0.129013 0.776120 0.005843
v 0.028720 0.645283 -0.066220
v -0.004148 0.980000 0.044792
v -0.227255 0.029850 -0.159450
v -0.095695 0.656717 -0.031440
v -0.098378 0.645283 -0.032157
v -0.233768 0.029850 -0.080330
v -0.045853 0.980000 0.044792
v -0.100975 0.645283 -0.012500
v -0.078720 0.391553 0.041220
v -0.233768 0.268658 -0.080330
v -0.130610 0.776120 -0.012500
v -0.227255 0.029850 0.134450
v -0.233768 0.029850 0.055330
v -0.129013 0.776120 -0.030843
v -0.244513 0.268658 -0.012500
v -0.233768 0.268658 0.055330
v -0.078720 0.414418 0.041220
v -0.066707 0.991000 -0.012500
v -0.084330 0.424120 0.046830
v -0.118415 0.754805 -0.012500
v -0.117000 0.754805 0.003720
v -0.061123 0.991000 -0.033353
v 0.079013 0.925373 0.005842
v -0.092720 0.430598 0.055220
v -0.202585 0.029850 -0.141525
v -0.064195 0.991000 -0.026768
v -0.202585 0.268658 -0.141525
v -0.117000 0.754805 -0.028720
v -0.066073 0.991000 -0.019745
v -0.202585 0.029850 0.116525
v -0.111440 0.746267 -0.012500
v -0.110885 0.746267 -0.006180
v -0.202585 0.268658 0.116525
v -0.110128 0.746267 0.002508
v -0.200610 0.298508 -0.012500
v -0.108485 0.746267 0.008635
v -0.066950 0.381850 0.060158
v -0.092720 0.375372 -0.080220
v -0.110128 0.746267 -0.027507
v -0.062987 0.391553 0.053293
v -0.110680 0.746267 -0.021190
v -0.096560 0.754805 0.047550
v -0.198975 0.298508 -0.069025
v -0.085050 0.754805 0.059060
v -0.099860 0.746267 0.030720
v -0.098378 0.668150 -0.032157
v -0.207927 0.298508 -0.012500
v -0.096220 0.746267 0.035918
v -0.098182 0.656717 -0.012500
v -0.198975 0.298508 0.044025
v -0.091215 0.746267 0.043065
v -0.098378 0.645283 0.007158
v -0.195733 0.313433 -0.075390
v -0.198975 0.313433 -0.069025
v -0.207927 0.313433 -0.012500
v -0.198975 0.313433 0.044025
v -0.195733 0.313433 0.050390
v -0.195733 0.313433 -0.012500
v -0.080565 0.746267 0.053715
v -0.068220 0.746267 0.062360
v -0.075368 0.746267 0.057358
v -0.061598 0.402985 0.050878
v 0.052255 0.000000 0.225268
v -0.025000 0.000000 0.237500
v -0.102255 0.000000 0.225268
v -0.102255 0.029850 0.225268
v -0.025000 0.029850 0.237500
v 0.052255 0.029850 0.225268
v -0.025000 0.029850 0.207013
v -0.124245 0.776120 0.023622
v 0.121950 0.000000 0.189755
v -0.116463 0.776120 0.040305
v -0.171950 0.000000 0.189755
v 0.121950 0.029850 0.189755
v 0.042830 0.029850 0.196268
v -0.062987 0.414418 0.053293
v -0.105903 0.776120 0.055390
v -0.092830 0.029850 0.196268
v -0.112780 0.754805 0.019450
v -0.105903 0.754805 0.034208
v 0.042830 0.268658 0.196268
v -0.025000 0.268658 0.207013
v -0.092830 0.268658 0.196268
v -0.066950 0.424120 0.060158
v -0.100975 0.668150 -0.012500
v -0.171950 0.029850 0.189755
v -0.106225 0.746267 0.017063
v -0.095695 0.656717 0.006440
v -0.103545 0.746267 0.022815
v -0.097658 0.381850 0.029450
v -0.085975 0.850748 0.093110
v -0.066707 0.850748 0.102098
v -0.090792 0.391553 0.025488
v -0.098378 0.668150 0.007158
v -0.085050 0.824835 0.091513
v -0.066073 0.824835 0.100353
v -0.025000 0.298508 0.163110
v 0.080610 0.925373 -0.012500
v -0.088377 0.402985 0.024098
v -0.085975 0.980000 -0.012500
v -0.028923 0.628790 0.108830
v -0.025000 0.626835 0.097280
v -0.090792 0.414418 0.025488
v -0.025000 0.628807 0.109450
v 0.104025 0.029850 0.165085
v 0.026755 0.656717 -0.064255
v 0.104025 0.268658 0.165085
v -0.076755 0.402985 0.039255
v 0.028720 0.668150 -0.066220
v 0.034330 0.677850 -0.071830
v -0.084330 0.381850 -0.071830
v -0.078720 0.391553 -0.066220
v -0.025000 0.686613 0.097280
v -0.025000 0.684627 0.109450
v -0.154025 0.029850 0.165085
v -0.021078 0.684642 0.108830
v -0.076755 0.402985 -0.064255
v -0.154025 0.268658 0.165085
v -0.051255 0.684740 0.105295
v 0.031525 0.298508 0.161475
v 0.042720 0.684328 -0.080220
v -0.081525 0.298508 0.161475
v -0.049793 0.629105 0.080013
v -0.025000 0.298508 0.170428
v -0.046720 0.635583 0.068550
v -0.078720 0.414418 -0.066220
v 0.031525 0.313433 0.161475
v 0.037890 0.313433 0.158232
v -0.025000 0.313433 0.158232
v -0.087890 0.313433 0.158232
v -0.081525 0.313433 0.161475
v -0.025000 0.313433 0.170428
v -0.049793 0.629105 -0.105012
v -0.084330 0.424120 -0.071830
v 0.212768 0.000000 -0.089755
v 0.225000 0.000000 -0.012500
v 0.212768 0.000000 0.064755
v -0.102255 0.000000 -0.250268
v -0.025000 0.000000 -0.262500
v 0.052255 0.000000 -0.250268
v -0.046720 0.635583 -0.093550
v 0.121950 0.000000 -0.214755
v 0.177255 0.000000 -0.159450
v -0.046720 0.677850 0.068550
v -0.092720 0.430598 -0.080220
v -0.049793 0.684328 0.080013
v 0.177255 0.000000 0.134450
v 0.068415 0.946688 -0.012500
v 0.079013 0.925373 -0.030843
v 0.067000 0.946688 -0.028720
v -0.066950 0.381850 -0.085158
v -0.098658 0.799703 0.075280
v -0.082292 0.799703 0.086745
v -0.062987 0.391553 -0.078293
v -0.025000 0.629105 0.083280
v -0.064195 0.799703 0.095183
v 0.055902 0.946688 0.034208
v -0.025000 0.635583 0.071403
v -0.061598 0.402985 -0.075878
v 0.062780 0.946688 0.019450
v 0.055902 0.925373 0.055390
v 0.066463 0.925373 0.040305
v -0.062987 0.414418 -0.078293
v -0.003280 0.635583 0.068550
v -0.118415 0.850748 0.065890
v 0.074245 0.925373 0.023622
v -0.103390 0.850748 0.080915
v -0.117000 0.824835 0.064695
v -0.102195 0.824835 0.079500
v -0.066950 0.424120 -0.085158
v -0.025000 0.677850 0.071403
v -0.025000 0.684328 0.083280
v -0.092890 0.776120 0.068402
v -0.003280 0.677850 0.068550
v -0.077805 0.776120 0.078962
v 0.087853 0.901790 0.007402
v -0.102623 0.373105 -0.090122
v -0.110170 0.374835 -0.097670
v -0.106400 0.374948 -0.101440
v 0.089598 0.901790 -0.012500
v -0.061123 0.776120 0.086745
v 0.087853 0.901790 -0.032403
v -0.071708 0.754805 0.068402
v -0.102623 0.432880 -0.090122
v -0.056950 0.754805 0.075280
v 0.093268 0.876657 0.008352
v 0.003415 0.626835 0.093538
v 0.006347 0.628673 0.104490
v 0.012683 0.628918 0.103488
v -0.113940 0.431025 -0.093900
v 0.095098 0.876657 -0.012500
v 0.001255 0.628695 0.105295
v -0.110170 0.431140 -0.097670
v 0.093268 0.876657 -0.033353
v -0.079890 0.373105 -0.107572
v -0.062467 0.746267 0.065040
v -0.054562 0.746267 0.068725
v 0.003415 0.686613 0.093538
v 0.090987 0.746267 -0.050182
v 0.073658 0.746267 -0.084183
v 0.012683 0.684515 0.103488
v 0.009970 0.684622 0.103918
v 0.006347 0.684762 0.104490
v 0.030378 0.628663 0.094470
v 0.035308 0.628592 0.091955
v -0.097658 0.424120 0.029450
v 0.035308 0.684845 0.091955
v 0.039478 0.684705 0.089830
v -0.171950 0.000000 -0.214755
v -0.082292 0.980000 -0.033353
v -0.000207 0.629105 0.080013
v -0.085050 0.980000 -0.023085
v 0.225000 0.029850 -0.012500
v 0.212768 0.029850 -0.089755
v 0.194513 0.029850 -0.012500
v 0.212768 0.029850 0.064755
v -0.025000 0.029850 -0.262500
v -0.102255 0.029850 -0.250268
v 0.052255 0.029850 -0.250268
v -0.025000 0.029850 -0.232013
v -0.142795 0.374965 0.013755
v 0.177255 0.029850 -0.159450
v 0.183767 0.029850 -0.080330
v 0.022890 0.629105 0.070440
v 0.121950 0.029850 -0.214755
v 0.152585 0.029850 -0.141525
v -0.066073 0.991000 -0.005255
v -0.146330 0.430912 -0.008578
v 0.104025 0.029850 -0.190085
v 0.183767 0.268658 -0.080330
v 0.152585 0.268658 -0.141525
v -0.117513 0.375372 0.012292
v -0.064195 0.991000 0.001767
v 0.104025 0.268658 -0.190085
v 0.142013 0.298508 -0.066768
v 0.117073 0.298508 -0.115720
v -0.106050 0.381850 0.009220
v -0.061123 0.991000 0.008352
v 0.078220 0.298508 -0.154573
v -0.056950 0.991000 0.014305
v -0.000207 0.684328 0.080013
v 0.042830 0.029850 -0.221268
v -0.085050 0.980000 -0.001915
v -0.092830 0.029850 -0.221268
v -0.082292 0.980000 0.008352
v 0.042830 0.268658 -0.221268
v -0.025000 0.268658 -0.232013
v -0.092830 0.268658 -0.221268
v 0.029267 0.298508 -0.179513
v -0.025000 0.298508 -0.188110
v 0.022890 0.684328 0.070440
v -0.079268 0.298508 -0.179513
v -0.106050 0.424120 0.009220
v -0.128220 0.298508 -0.154573
v 0.177255 0.029850 0.134450
v 0.152585 0.029850 0.116525
v 0.183767 0.029850 0.055330
v -0.051805 0.991000 0.019450
v -0.117513 0.430598 0.012292
v -0.077805 0.980000 0.017987
v 0.029890 0.626835 0.082573
v 0.152585 0.268658 0.116525
v -0.071708 0.980000 0.026695
v 0.046683 0.628972 0.086158
v 0.183767 0.268658 0.055330
v 0.194513 0.268658 -0.012500
v -0.064195 0.980000 0.034208
v 0.078220 0.298508 0.129572
v -0.055488 0.980000 0.040305
v 0.117073 0.298508 0.090720
v 0.056225 0.746267 -0.042063
v 0.142013 0.298508 0.041768
v 0.049860 0.746267 -0.055720
v 0.150610 0.298508 -0.012500
v 0.053545 0.746267 -0.047815
v 0.012683 0.746267 -0.128488
v 0.046683 0.746267 -0.111157
v 0.029267 0.298508 0.154513
v -0.146330 0.375060 -0.016423
v -0.134780 0.373105 -0.012500
v -0.146950 0.375078 -0.012500
v -0.128220 0.298508 0.129572
v -0.079268 0.298508 0.154513
v 0.048658 0.965075 -0.039305
v -0.171950 0.029850 -0.214755
v -0.154025 0.029850 -0.190085
v -0.154025 0.268658 -0.190085
v 0.062780 0.946688 -0.044450
v -0.167073 0.298508 -0.115720
v 0.055902 0.946688 -0.059208
v -0.192013 0.298508 -0.066768
v -0.134780 0.432880 -0.012500
v -0.192013 0.298508 0.041768
v 0.074245 0.925373 -0.048623
v -0.167073 0.298508 0.090720
v 0.018220 0.746267 -0.087360
v -0.146950 0.430895 -0.012500
v 0.004563 0.746267 -0.093725
v 0.012467 0.746267 -0.090040
v 0.148975 0.298508 -0.069025
v 0.066463 0.925373 -0.065305
v -0.001565 0.746267 -0.095365
v 0.122988 0.298508 -0.120025
v 0.082525 0.298508 -0.160488
v 0.055902 0.925373 -0.080390
v 0.031525 0.298508 -0.186475
v -0.025000 0.298508 -0.195428
v -0.106050 0.381850 -0.034220
v 0.041215 0.746267 -0.068065
v 0.046220 0.746267 -0.060918
v -0.081525 0.298508 -0.186475
v -0.120780 0.375372 -0.012500
v 0.030565 0.746267 -0.078715
v -0.132525 0.298508 -0.160488
v 0.025368 0.746267 -0.082358
v -0.025000 0.746267 -0.134450
v 0.082525 0.298508 0.135487
v 0.082683 0.901790 -0.051695
v 0.122988 0.298508 0.095025
v 0.074245 0.901790 -0.069793
v 0.148975 0.298508 0.044025
v 0.157927 0.298508 -0.012500
v 0.062780 0.901790 -0.086158
v -0.132525 0.298508 0.135487
v 0.048658 0.901790 -0.100280
v -0.009992 0.746267 -0.097628
v 0.087853 0.876657 -0.053573
v -0.025000 0.746267 -0.098940
v -0.016310 0.746267 -0.098180
v -0.108903 0.381850 -0.012500
v 0.079013 0.876657 -0.072550
v -0.172988 0.298508 -0.120025
v -0.040007 0.746267 -0.097628
v -0.031320 0.746267 -0.098385
v -0.046135 0.746267 -0.095985
v 0.067000 0.876657 -0.089695
v -0.062683 0.746267 -0.128488
v -0.096683 0.746267 -0.111157
v -0.172988 0.298508 0.095025
v 0.052195 0.876657 -0.104500
v 0.082525 0.313433 0.135487
v 0.122988 0.313433 0.095025
v 0.148975 0.313433 0.044025
v -0.106050 0.424120 -0.034220
v 0.157927 0.313433 -0.012500
v 0.148975 0.313433 -0.069025
v 0.122988 0.313433 -0.120025
v 0.082525 0.313433 -0.160488
v 0.031525 0.313433 -0.186475
v -0.025000 0.313433 -0.195428
v -0.081525 0.313433 -0.186475
v -0.132525 0.313433 -0.160488
v -0.108903 0.424120 -0.012500
v -0.132525 0.313433 0.135487
v -0.054562 0.746267 -0.093725
v 0.068415 0.850748 -0.090890
v -0.068220 0.746267 -0.087360
v -0.120780 0.430598 -0.012500
v -0.060315 0.746267 -0.091045
v -0.044657 0.645283 -0.085878
v 0.062780 0.901790 0.061157
v 0.074245 0.901790 0.044792
v 0.082683 0.901790 0.026695
v -0.044657 0.668150 -0.085878
v -0.098378 0.391553 -0.032157
v -0.095695 0.402985 -0.031440
v 0.079013 0.876657 0.047550
v 0.029890 0.686613 0.082573
v 0.087853 0.876657 0.028572
v -0.100975 0.391553 -0.012500
v -0.046720 0.677850 -0.093550
v 0.046683 0.684462 0.086158
v -0.044657 0.645283 0.060878
v -0.049793 0.684328 -0.105012
v -0.043940 0.656717 0.058195
v -0.098378 0.414418 -0.032157
v 0.048658 0.901790 0.075280
v -0.098182 0.402985 -0.012500
v -0.098378 0.391553 0.007158
v 0.052195 0.876657 0.079500
v -0.025000 0.645283 0.063475
v -0.172988 0.313433 -0.120025
v 0.067000 0.876657 0.064695
v -0.172988 0.313433 0.095025
v 0.145733 0.313433 -0.012500
v -0.003280 0.635583 -0.093550
v -0.025000 0.313433 -0.183233
v 0.137378 0.313433 -0.065255
v -0.025000 0.629105 -0.108280
v 0.113123 0.313433 -0.112853
v 0.075353 0.313433 -0.150623
v 0.095098 0.850748 0.008670
v 0.027755 0.313433 -0.174878
v -0.077755 0.313433 -0.174878
v -0.125353 0.313433 -0.150623
v 0.096950 0.850748 -0.012500
v -0.163123 0.313433 -0.112853
v -0.187377 0.313433 -0.065255
v -0.044657 0.668150 0.060878
v -0.025000 0.656717 0.060683
v 0.027755 0.313433 0.149878
v 0.095098 0.850748 -0.033670
v -0.005342 0.645283 0.060878
v 0.075353 0.313433 0.125622
v 0.113123 0.313433 0.087853
v 0.137378 0.313433 0.040255
v 0.093268 0.824835 0.008352
v -0.187377 0.313433 0.040255
v -0.163123 0.313433 0.087853
v 0.095098 0.824835 -0.012500
v -0.025000 0.635583 -0.096403
v -0.125353 0.313433 0.125622
v -0.077755 0.313433 0.149878
v 0.093268 0.824835 -0.033353
v -0.154573 0.686567 -0.047220
v -0.146950 0.686567 -0.012500
v -0.154573 0.686567 0.022220
v -0.159148 0.686567 -0.012500
v -0.154573 0.701492 -0.047220
v 0.087853 0.799703 0.007402
v -0.146950 0.701492 -0.012500
v -0.159148 0.701492 -0.012500
v -0.154573 0.701492 0.022220
v -0.080565 0.746267 -0.078715
v -0.073418 0.746267 -0.083720
v -0.005342 0.645283 -0.085878
v -0.091215 0.746267 -0.068065
v 0.089598 0.799703 -0.012500
v -0.099860 0.746267 -0.055720
v -0.094858 0.746267 -0.062867
v -0.025000 0.686567 0.121647
v -0.025000 0.686567 0.109450
v 0.009720 0.686567 0.117073
v -0.059720 0.686567 0.117073
v -0.025000 0.645283 -0.088475
v -0.025000 0.701492 0.121647
v 0.009720 0.701492 0.117073
v -0.025000 0.701492 0.109450
v -0.140988 0.746267 -0.050182
v -0.123658 0.746267 -0.084183
v 0.087853 0.799703 -0.032403
v -0.059720 0.701492 0.117073
v 0.104572 0.686567 -0.047220
v 0.096950 0.686567 -0.012500
v 0.109148 0.686567 -0.012500
v 0.104572 0.686567 0.022220
v 0.104572 0.701492 -0.047220
v 0.096950 0.701492 -0.012500
v 0.109148 0.701492 -0.012500
v 0.104572 0.701492 0.022220
v -0.005342 0.668150 -0.085878
v -0.025000 0.656717 -0.085683
v -0.025000 0.686567 -0.134450
v -0.025000 0.686567 -0.146647
v 0.009720 0.686567 -0.142072
v -0.059720 0.686567 -0.142072
v -0.025000 0.701492 -0.134450
v -0.025000 0.701492 -0.146647
v 0.009720 0.701492 -0.142072
v -0.059720 0.701492 -0.142072
v 0.080610 0.850748 0.048475
v 0.006950 0.991000 -0.039305
v 0.001805 0.991000 -0.044450
v 0.089598 0.850748 0.029207
v -0.025000 0.668150 -0.088475
v 0.027805 0.980000 -0.042987
v 0.079013 0.824835 0.047550
v 0.021708 0.980000 -0.051695
v -0.025000 0.668150 0.063475
v 0.014195 0.980000 -0.059208
v -0.006060 0.656717 0.058195
v 0.087853 0.824835 0.028572
v 0.005488 0.980000 -0.065305
v -0.003280 0.677850 -0.093550
v -0.005342 0.668150 0.060878
v -0.025000 0.677850 -0.096403
v 0.062780 0.799703 0.061158
v 0.074245 0.799703 0.044792
v -0.025000 0.684328 -0.108280
v 0.082683 0.799703 0.026695
v -0.004148 0.980000 -0.069793
v 0.016950 0.635583 0.060158
v -0.014415 0.980000 -0.072550
v 0.012988 0.645283 0.053293
v -0.025000 0.980000 -0.073475
v -0.035585 0.980000 -0.072550
v -0.051255 0.628695 -0.130295
v 0.079013 0.776120 0.005843
v -0.021078 0.628790 -0.133830
v -0.025000 0.626835 -0.122280
v -0.025000 0.628807 -0.134450
v -0.045853 0.980000 -0.069793
v 0.011598 0.656717 0.050878
v 0.080610 0.776120 -0.012500
v 0.079013 0.776120 -0.030843
v 0.012988 0.668150 0.053293
v -0.025000 0.686613 -0.122280
v 0.016950 0.677850 0.060158
v -0.025000 0.684627 -0.134450
v -0.028923 0.684642 -0.133830
v -0.004148 0.991000 -0.048623
v -0.010733 0.991000 -0.051695
v 0.022890 0.629105 -0.095440
v -0.017755 0.991000 -0.053573
v 0.042720 0.629105 0.055220
v -0.025000 0.991000 -0.054208
v 0.034330 0.635583 0.046830
v -0.000207 0.629105 -0.105012
v -0.100975 0.414418 -0.012500
v -0.095695 0.402985 0.006440
v 0.028720 0.645283 0.041220
v -0.098378 0.414418 0.007158
v -0.032245 0.991000 -0.053573
v 0.022890 0.684328 -0.095440
v -0.039268 0.991000 -0.051695
v -0.045853 0.991000 -0.048623
v 0.028720 0.668150 0.041220
v -0.028923 0.375060 0.108830
v -0.000207 0.684328 -0.105012
v -0.025000 0.373105 0.097280
v -0.025000 0.375078 0.109450
v 0.034330 0.677850 0.046830
v -0.051805 0.991000 -0.044450
v 0.029890 0.626835 -0.107572
v 0.042720 0.684328 0.055220
v -0.056950 0.991000 -0.039305
v -0.055488 0.980000 -0.065305
v -0.025000 0.432880 0.097280
v -0.064195 0.980000 -0.059208
v -0.071708 0.980000 -0.051695
v -0.025000 0.430895 0.109450
v -0.021078 0.430912 0.108830
v -0.077805 0.980000 -0.042987
v -0.051255 0.431010 0.105295
v 0.026755 0.656717 0.039255
v -0.049793 0.375372 0.080013
v 0.047658 0.635583 0.029450
v 0.029890 0.686613 -0.107572
v -0.046720 0.381850 0.068550
v 0.040793 0.645283 0.025488
v 0.016708 0.991000 -0.012500
v 0.016073 0.991000 -0.019745
v 0.003415 0.626835 -0.118538
v 0.006347 0.628673 -0.129490
v -0.046720 0.424120 0.068550
v 0.014195 0.991000 -0.026768
v 0.009970 0.628812 -0.128918
v 0.012683 0.628918 -0.128488
v 0.011123 0.991000 -0.033353
v -0.049793 0.430598 0.080013
v 0.038378 0.656717 0.024098
v 0.003415 0.686613 -0.118538
v 0.035975 0.980000 -0.012500
v 0.001255 0.684740 -0.130295
v 0.035050 0.980000 -0.023085
v 0.040793 0.668150 0.025488
v -0.025000 0.375372 0.083280
v 0.006347 0.684762 -0.129490
v 0.012683 0.684515 -0.128488
v -0.025000 0.381850 0.071403
v 0.032293 0.980000 -0.033353
v 0.039478 0.628733 -0.114830
v 0.046683 0.628972 -0.111157
v 0.035308 0.628592 -0.116955
v 0.047658 0.677850 0.029450
v 0.035308 0.684845 -0.116955
v 0.030378 0.684772 -0.119470
v 0.046683 0.684462 -0.111157
v -0.003280 0.381850 0.068550
v 0.067513 0.629105 -0.037293
v 0.053390 0.850748 -0.105915
v 0.067000 0.824835 -0.089695
v 0.006950 0.991000 0.014305
v 0.052195 0.824835 -0.104500
v 0.011123 0.991000 0.008352
v 0.062780 0.799703 -0.086158
v 0.048658 0.799703 -0.100280
v -0.106225 0.746267 -0.042063
v -0.102540 0.746267 -0.049968
v -0.107865 0.746267 -0.035935
v 0.014195 0.991000 0.001767
v 0.096950 0.746267 -0.012500
v 0.016073 0.991000 -0.005255
v 0.067513 0.684328 -0.037293
v 0.089598 0.850748 -0.054208
v 0.080610 0.850748 -0.073475
v 0.060128 0.746267 0.002508
v 0.057865 0.746267 0.010935
v 0.032293 0.980000 0.008352
v 0.061440 0.746267 -0.012500
v 0.060680 0.746267 -0.003810
v 0.035050 0.980000 -0.001915
v 0.087853 0.824835 -0.053573
v 0.079013 0.824835 -0.072550
v 0.060128 0.746267 -0.027507
v 0.060885 0.746267 -0.018820
v 0.058485 0.746267 -0.033635
v 0.073658 0.746267 0.059183
v 0.090987 0.746267 0.025183
v 0.081037 0.626835 -0.040915
v 0.091990 0.628673 -0.043848
v 0.090987 0.628918 -0.050182
v 0.082683 0.799703 -0.051695
v -0.006657 0.997733 -0.023085
v 0.092795 0.628695 -0.038755
v -0.008780 0.997733 -0.026110
v -0.011390 0.997733 -0.028720
v 0.074245 0.799703 -0.069793
v -0.014415 0.997733 -0.030843
v -0.017755 0.997733 -0.032403
v -0.021318 0.997733 -0.033353
v -0.025000 0.997733 -0.033670
v 0.081037 0.686613 -0.040915
v 0.090987 0.684515 -0.050182
v 0.091417 0.684622 -0.047470
v 0.091990 0.684762 -0.043848
v 0.070073 0.626835 -0.067390
v 0.049860 0.746267 0.030720
v 0.074245 0.776120 -0.048623
v 0.056225 0.746267 0.017063
v 0.052540 0.746267 0.024968
v 0.066463 0.776120 -0.065305
v 0.057940 0.629105 -0.060390
v 0.055902 0.776120 -0.080390
v 0.062780 0.754805 -0.044450
v -0.003830 0.997733 -0.012500
v -0.004148 0.997733 -0.016183
v -0.005098 0.997733 -0.019745
v 0.055902 0.754805 -0.059207
v 0.057940 0.684328 -0.060390
v 0.018220 0.746267 0.062360
v 0.030565 0.746267 0.053715
v 0.023418 0.746267 0.058720
v 0.070073 0.686613 -0.067390
v 0.041215 0.746267 0.043065
v 0.044857 0.746267 0.037868
v 0.012683 0.746267 0.103488
v 0.046683 0.746267 0.086158
v 0.001805 0.965075 -0.086158
v 0.021708 0.946688 -0.093403
v 0.006950 0.946688 -0.100280
v 0.073658 0.628972 -0.084183
v 0.081970 0.628663 -0.067878
v 0.079455 0.628592 -0.072808
v 0.042890 0.925373 -0.093403
v 0.004563 0.746267 0.068725
v 0.079455 0.684845 -0.072808
v 0.077330 0.684705 -0.076977
v 0.073658 0.684462 -0.084183
v 0.010315 0.746267 0.066045
v 0.027805 0.925373 -0.103963
v -0.025000 0.746267 0.109450
v 0.052622 0.626835 -0.090122
v 0.060170 0.628565 -0.097670
v 0.011123 0.925373 -0.111745
v 0.063940 0.628678 -0.093900
v 0.052622 0.686613 -0.090122
v 0.056400 0.684758 -0.101440
v 0.060170 0.684870 -0.097670
v 0.012683 0.686567 0.103488
v 0.042073 0.686567 0.103670
v 0.042073 0.701492 0.103670
v 0.012683 0.701492 0.103488
v 0.042890 0.965075 -0.051695
v -0.040007 0.746267 0.072628
v -0.048435 0.746267 0.070365
v -0.025000 0.746267 0.073940
v -0.033690 0.746267 0.073180
v 0.035050 0.965075 -0.062890
v -0.009992 0.746267 0.072628
v -0.018680 0.746267 0.073385
v 0.025390 0.965075 -0.072550
v -0.003865 0.746267 0.070985
v 0.014195 0.965075 -0.080390
v -0.079890 0.432880 -0.107572
v 0.067000 0.754805 0.003720
v -0.025000 0.489075 0.109450
v 0.069853 0.686567 0.082353
v 0.046683 0.686567 0.086158
v 0.068415 0.754805 -0.012500
v 0.069853 0.701492 0.082353
v 0.046683 0.701492 0.086158
v 0.067000 0.754805 -0.028720
v -0.072890 0.375372 -0.095440
v -0.025000 1.000000 -0.012500
v -0.025000 0.424120 0.071403
v -0.025000 0.430598 0.083280
v -0.072890 0.430598 -0.095440
v -0.146950 0.746267 -0.012500
v 0.046683 0.489075 0.086158
v 0.073658 0.686567 0.059183
v 0.091170 0.686567 0.054573
v 0.073658 0.701492 0.059183
v 0.091170 0.701492 0.054573
v 0.055902 0.776120 0.055390
v 0.066463 0.776120 0.040305
v 0.060170 0.628565 0.072670
v 0.074245 0.776120 0.023622
v 0.056400 0.628678 0.076440
v 0.063940 0.684758 0.068900
v 0.060170 0.684870 0.072670
v 0.055902 0.754805 0.034208
v 0.062780 0.754805 0.019450
v 0.073658 0.628972 0.059183
v 0.073658 0.684462 0.059183
v 0.090987 0.686567 0.025183
v 0.090987 0.701492 0.025183
v 0.053390 0.850748 0.080915
v 0.079455 0.628592 0.047807
v 0.077330 0.628733 0.051977
v 0.068415 0.850748 0.065890
v 0.079455 0.684845 0.047807
v 0.081970 0.684772 0.042878
v 0.052195 0.824835 0.079500
v 0.067000 0.824835 0.064695
v 0.090987 0.628918 0.025183
v 0.090987 0.684515 0.025183
v 0.048658 0.799703 0.075280
v 0.090987 0.489075 0.025183
v 0.091990 0.628673 0.018848
v 0.091417 0.628812 0.022470
v 0.091990 0.684762 0.018848
v 0.096330 0.628790 -0.008578
v -0.140988 0.746267 0.025183
v -0.123658 0.746267 0.059183
v 0.092795 0.684740 0.013755
v -0.096683 0.375240 -0.111157
v -0.080378 0.374932 -0.119470
v 0.096950 0.628807 -0.012500
v -0.085308 0.374860 -0.116955
v 0.096950 0.684627 -0.012500
v -0.085308 0.431112 -0.116955
v -0.089478 0.430972 -0.114830
v -0.096683 0.430730 -0.111157
v -0.053415 0.373105 -0.118538
v -0.056348 0.374943 -0.129490
v -0.062683 0.375187 -0.128488
v 0.096330 0.684642 -0.016423
v -0.096683 0.746267 0.086158
v -0.062683 0.746267 0.103488
v -0.053415 0.432880 -0.118538
v -0.146950 0.628807 -0.012500
v -0.146330 0.628790 -0.016423
v -0.146950 0.684627 -0.012500
v -0.062683 0.430785 -0.128488
v -0.059970 0.430890 -0.128918
v -0.056348 0.431030 -0.129490
v -0.140988 0.686567 0.025183
v -0.141170 0.686567 0.054573
v -0.141170 0.701492 0.054573
v -0.140988 0.701492 0.025183
v -0.006060 0.402985 -0.083195
v -0.140988 0.628918 0.025183
v -0.141990 0.628673 0.018848
v -0.028683 0.997733 -0.033353
v -0.141418 0.684622 0.022470
v -0.140988 0.684515 0.025183
v -0.032245 0.997733 -0.032403
v -0.035585 0.997733 -0.030843
v -0.141990 0.684762 0.018848
v -0.038610 0.997733 -0.028720
v -0.041220 0.997733 -0.026110
v -0.043343 0.997733 -0.023085
v -0.142795 0.628695 0.013755
v 0.090987 0.686567 -0.050182
v 0.091170 0.686567 -0.079572
v 0.091170 0.701492 -0.079572
v 0.090987 0.701492 -0.050182
v -0.146330 0.684642 -0.008578
v -0.043940 0.402985 -0.083195
v 0.090987 0.489075 -0.050182
v -0.140988 0.489075 0.025183
v 0.073658 0.686567 -0.084183
v 0.069853 0.686567 -0.107352
v 0.047658 0.381850 -0.054450
v -0.119852 0.686567 0.082353
v 0.069853 0.701492 -0.107352
v -0.123658 0.686567 0.059183
v 0.073658 0.701492 -0.084183
v -0.046170 0.997733 -0.012500
v -0.119852 0.701492 0.082353
v 0.040793 0.391553 -0.050487
v -0.123658 0.701492 0.059183
v -0.129455 0.628592 0.047807
v -0.131970 0.628663 0.042878
v -0.129455 0.684845 0.047807
v -0.127330 0.684705 0.051977
v 0.038378 0.402985 -0.049098
v -0.123658 0.628972 0.059183
v -0.044902 0.997733 -0.019745
v -0.123658 0.684462 0.059183
v 0.040793 0.414418 -0.050487
v -0.045853 0.997733 -0.016183
v 0.042073 0.686567 -0.128670
v 0.046683 0.686567 -0.111157
v 0.046560 0.946688 -0.072550
v 0.046683 0.701492 -0.111157
v 0.042073 0.701492 -0.128670
v 0.035050 0.946688 -0.084060
v 0.047658 0.424120 -0.054450
v -0.003280 0.424120 0.068550
v -0.008780 0.997733 0.001110
v -0.011390 0.965075 -0.089695
v -0.006657 0.997733 -0.001915
v -0.005098 0.997733 -0.005255
v -0.025000 0.965075 -0.090890
v -0.004148 0.997733 -0.008818
v -0.038610 0.965075 -0.089695
v 0.003415 0.373105 0.093538
v 0.006347 0.374943 0.104490
v 0.012683 0.375187 0.103488
v 0.001255 0.374965 0.105295
v 0.001805 0.965075 0.061157
v 0.014195 0.965075 0.055390
v -0.025000 0.997733 0.008670
v -0.021318 0.997733 0.008352
v -0.017755 0.997733 0.007402
v 0.003415 0.432880 0.093538
v -0.014415 0.997733 0.005842
v 0.025390 0.965075 0.047550
v -0.011390 0.997733 0.003720
v -0.008780 0.946688 -0.104500
v 0.012683 0.430785 0.103488
v 0.009970 0.430890 0.103918
v 0.035050 0.965075 0.037890
v -0.025000 0.946688 -0.105915
v 0.042890 0.965075 0.026695
v 0.006347 0.431030 0.104490
v 0.030378 0.374932 0.094470
v -0.041220 0.946688 -0.104500
v 0.035308 0.374860 0.091955
v 0.035308 0.431112 0.091955
v 0.039478 0.430972 0.089830
v -0.006657 0.925373 -0.116512
v -0.025000 0.925373 -0.118110
v -0.000207 0.375372 0.080013
v -0.045853 0.997733 -0.008818
v 0.035050 0.946688 0.059060
v -0.044902 0.997733 -0.005255
v -0.043343 0.925373 -0.116512
v -0.043343 0.997733 -0.001915
v 0.046560 0.946688 0.047550
v -0.041220 0.997733 0.001110
v -0.038610 0.997733 0.003720
v -0.035585 0.997733 0.005842
v -0.032245 0.997733 0.007402
v -0.028683 0.997733 0.008352
v 0.022890 0.375372 0.070440
v -0.000207 0.430598 0.080013
v 0.032293 0.901790 -0.111745
v 0.001805 0.991000 0.019450
v 0.014195 0.901790 -0.120183
v 0.005488 0.980000 0.040305
v 0.014195 0.980000 0.034208
v 0.021708 0.980000 0.026695
v 0.022890 0.430598 0.070440
v 0.006950 0.946688 0.075280
v 0.027805 0.980000 0.017987
v 0.035050 0.876657 -0.116512
v 0.021708 0.946688 0.068402
v 0.016073 0.876657 -0.125353
v 0.011123 0.925373 0.086745
v 0.029890 0.373105 0.082573
v 0.046683 0.375240 0.086158
v 0.027805 0.925373 0.078962
v -0.025000 0.991000 0.029207
v 0.042890 0.925373 0.068402
v -0.017755 0.991000 0.028572
v -0.005098 0.901790 -0.125353
v -0.010733 0.991000 0.026695
v -0.025000 0.901790 -0.127098
v 0.029890 0.432880 0.082573
v -0.038610 0.965075 0.064695
v -0.004148 0.991000 0.023622
v -0.044902 0.901790 -0.125353
v -0.025000 0.965075 0.065890
v -0.011390 0.965075 0.064695
v -0.004148 0.876657 -0.130768
v 0.046683 0.430730 0.086158
v -0.025000 0.876657 -0.132597
v -0.041220 0.946688 0.079500
v -0.045853 0.876657 -0.130768
v -0.044657 0.391553 0.060878
v -0.025000 0.946688 0.080915
v -0.043940 0.402985 0.058195
v -0.045853 0.991000 0.023622
v -0.008780 0.946688 0.079500
v -0.039268 0.991000 0.026695
v -0.025000 0.391553 0.063475
v -0.032245 0.991000 0.028572
v -0.051805 0.965075 -0.086158
v -0.056950 0.946688 -0.100280
v 0.016950 0.381850 -0.085158
v -0.071708 0.946688 -0.093403
v 0.012988 0.391553 -0.078293
v -0.044657 0.414418 0.060878
v -0.025000 0.402985 0.060683
v -0.061123 0.925373 -0.111745
v -0.005342 0.391553 0.060878
v 0.011598 0.402985 -0.075878
v -0.077805 0.925373 -0.103963
v -0.092890 0.925373 -0.093403
v 0.012988 0.414418 -0.078293
v 0.045695 0.656717 -0.031440
v 0.048182 0.656717 -0.012500
v -0.064195 0.965075 -0.080390
v -0.075390 0.965075 -0.072550
v -0.043343 0.925373 0.091513
v -0.025000 0.414418 0.063475
v 0.016950 0.424120 -0.085158
v -0.006060 0.402985 0.058195
v -0.085050 0.965075 -0.062890
v -0.092890 0.965075 -0.051695
v -0.098658 0.965075 -0.039305
v -0.005342 0.414418 0.060878
v 0.042720 0.375372 -0.080220
v -0.085050 0.946688 -0.084060
v -0.096560 0.946688 -0.072550
v 0.034330 0.381850 -0.071830
v 0.016950 0.381850 0.060158
v 0.012988 0.391553 0.053293
v 0.028720 0.391553 -0.066220
v 0.045695 0.656717 0.006440
v 0.026755 0.402985 -0.064255
v 0.011598 0.402985 0.050878
v -0.105903 0.946688 -0.059208
v -0.112780 0.946688 -0.044450
v 0.012988 0.414418 0.053293
v -0.105903 0.925373 -0.080390
v 0.028720 0.414418 -0.066220
v -0.116463 0.925373 -0.065305
v 0.052622 0.626835 0.065123
v -0.124245 0.925373 -0.048623
v 0.034330 0.424120 -0.071830
v 0.016950 0.424120 0.060158
v -0.025000 0.925373 0.093110
v 0.052622 0.686613 0.065123
v -0.006657 0.925373 0.091513
v 0.042720 0.375372 0.055220
v -0.064195 0.901790 -0.120183
v 0.034330 0.381850 0.046830
v -0.082292 0.901790 -0.111745
v 0.070073 0.626835 0.042390
v -0.098658 0.901790 -0.100280
v 0.014195 0.901790 0.095183
v 0.032293 0.901790 0.086745
v -0.112780 0.901790 -0.086158
v -0.066073 0.876657 -0.125353
v 0.028720 0.391553 0.041220
v -0.085050 0.876657 -0.116512
v -0.102195 0.876657 -0.104500
v 0.016073 0.876657 0.100353
v 0.035050 0.876657 0.091513
v -0.117000 0.876657 -0.089695
v 0.070073 0.686613 0.042390
v -0.123658 0.489075 0.059183
v -0.092073 0.686567 0.103670
v -0.096683 0.686567 0.086158
v -0.092073 0.701492 0.103670
v -0.096683 0.701492 0.086158
v -0.044902 0.901790 0.100353
v -0.124245 0.901790 -0.069793
v -0.110170 0.628565 0.072670
v -0.025000 0.901790 0.102098
v -0.113940 0.628678 0.068900
v -0.132683 0.901790 -0.051695
v -0.106400 0.684758 0.076440
v -0.005098 0.901790 0.100353
v -0.110170 0.684870 0.072670
v -0.096683 0.628972 0.086158
v -0.045853 0.876657 0.105768
v -0.096683 0.684462 0.086158
v 0.057940 0.629105 0.035390
v -0.025000 0.876657 0.107597
v -0.129013 0.876657 -0.072550
v -0.004148 0.876657 0.105768
v -0.137853 0.876657 -0.053573
v -0.062683 0.686567 0.103488
v -0.062683 0.701492 0.103488
v -0.085308 0.628592 0.091955
v -0.089478 0.628733 0.089830
v -0.085308 0.684845 0.091955
v -0.080378 0.684772 0.094470
v -0.062683 0.628918 0.103488
v -0.062683 0.684515 0.103488
v 0.035975 0.850748 -0.118110
v 0.016708 0.850748 -0.127098
v -0.098658 0.965075 0.014305
v 0.035050 0.824835 -0.116512
v -0.056348 0.628673 0.104490
v -0.059970 0.628812 0.103918
v 0.016073 0.824835 -0.125353
v -0.056348 0.684762 0.104490
v 0.012683 0.686567 -0.128488
v 0.032293 0.799703 -0.111745
v 0.012683 0.701492 -0.128488
v -0.103390 0.965075 -0.012500
v -0.102195 0.965075 0.001110
v 0.014195 0.799703 -0.120183
v -0.102623 0.626835 0.065123
v -0.102195 0.965075 -0.026110
v 0.012683 0.489075 -0.128488
v -0.117000 0.946688 0.003720
v -0.102623 0.686613 0.065123
v -0.118415 0.946688 -0.012500
v -0.003830 0.850748 -0.132597
v -0.025000 0.850748 -0.134450
v -0.117000 0.946688 -0.028720
v -0.046170 0.850748 -0.132597
v -0.004148 0.824835 -0.130768
v -0.053415 0.626835 0.093538
v -0.025000 0.824835 -0.132597
v -0.129013 0.925373 0.005842
v -0.092073 0.686567 -0.128670
v -0.062683 0.686567 -0.128488
v -0.130610 0.925373 -0.012500
v -0.092073 0.701492 -0.128670
v -0.062683 0.701492 -0.128488
v -0.045853 0.824835 -0.130768
v -0.062683 0.628918 -0.128488
v -0.056348 0.628673 -0.129490
v -0.129013 0.925373 -0.030843
v -0.059970 0.684622 -0.128918
v -0.062683 0.684515 -0.128488
v -0.056348 0.684762 -0.129490
v -0.005098 0.799703 -0.125353
v -0.053415 0.686613 0.093538
v -0.025000 0.799703 -0.127098
v -0.044902 0.799703 -0.125353
v -0.079890 0.626835 0.082573
v -0.092890 0.965075 0.026695
v -0.119852 0.686567 -0.107352
v -0.096683 0.686567 -0.111157
v -0.119852 0.701492 -0.107352
v -0.096683 0.701492 -0.111157
v -0.096683 0.628972 -0.111157
v -0.085050 0.965075 0.037890
v -0.072890 0.629105 0.070440
v 0.057940 0.684328 0.035390
v -0.075390 0.965075 0.047550
v -0.064195 0.965075 0.055390
v -0.051805 0.965075 0.061157
v 0.042890 0.776120 -0.093402
v -0.085308 0.628592 -0.116955
v 0.027805 0.776120 -0.103963
v -0.080378 0.628663 -0.119470
v -0.085308 0.684845 -0.116955
v -0.089478 0.684705 -0.114830
v -0.096683 0.684462 -0.111157
v 0.011123 0.776120 -0.111745
v -0.072890 0.684328 0.070440
v 0.042720 0.430598 -0.080220
v 0.021708 0.754805 -0.093402
v -0.079890 0.686613 0.082573
v 0.006950 0.754805 -0.100280
v 0.081037 0.626835 0.015915
v -0.049793 0.375372 -0.105012
v -0.046720 0.381850 -0.093550
v 0.046560 0.754805 -0.072550
v 0.035050 0.754805 -0.084060
v 0.081037 0.686613 0.015915
v -0.006657 0.776120 -0.116512
v -0.120072 0.626835 0.042390
v -0.025000 0.776120 -0.118110
v -0.044657 0.391553 -0.085878
v 0.067513 0.629105 0.012292
v -0.043343 0.776120 -0.116512
v 0.056050 0.635583 0.009220
v -0.141170 0.686567 -0.079572
v -0.044657 0.414418 -0.085878
v -0.123658 0.686567 -0.084183
v -0.141170 0.701492 -0.079572
v -0.123658 0.701492 -0.084183
v -0.120072 0.686613 0.042390
v -0.046720 0.424120 -0.093550
v -0.123658 0.628972 -0.084183
v -0.008780 0.754805 -0.104500
v -0.123658 0.684462 -0.084183
v -0.025000 0.754805 -0.105915
v -0.110170 0.628565 -0.097670
v -0.106400 0.628678 -0.101440
v -0.041220 0.754805 -0.104500
v -0.113940 0.684758 -0.093900
v -0.110170 0.684870 -0.097670
v -0.049793 0.430598 -0.105012
v 0.028720 0.414418 0.041220
v 0.034330 0.424120 0.046830
v -0.123658 0.489075 -0.084183
v -0.066707 0.850748 -0.127098
v -0.140988 0.686567 -0.050182
v -0.140988 0.701492 -0.050182
v -0.096560 0.946688 0.047550
v -0.140988 0.628918 -0.050182
v -0.085975 0.850748 -0.118110
v -0.140988 0.684515 -0.050182
v -0.085050 0.946688 0.059060
v 0.042720 0.430598 0.055220
v -0.129455 0.628592 -0.072808
v -0.127330 0.628733 -0.076977
v -0.129455 0.684845 -0.072808
v -0.131970 0.684772 -0.067878
v -0.066073 0.824835 -0.125353
v -0.085050 0.824835 -0.116512
v -0.140988 0.489075 -0.050182
v 0.026755 0.402985 0.039255
v 0.047658 0.381850 0.029450
v -0.141990 0.628673 -0.043848
v -0.064195 0.799703 -0.120183
v -0.141418 0.628812 -0.047470
v 0.040793 0.391553 0.025488
v -0.142795 0.684740 -0.038755
v -0.112780 0.946688 0.019450
v -0.082292 0.799703 -0.111745
v -0.141990 0.684762 -0.043848
v -0.105903 0.946688 0.034208
v -0.098658 0.799703 -0.100280
v -0.131038 0.626835 -0.040915
v -0.103390 0.850748 -0.105915
v -0.003280 0.381850 -0.093550
v -0.025000 0.375372 -0.108280
v -0.118415 0.850748 -0.090890
v -0.131038 0.686613 -0.040915
v -0.102195 0.824835 -0.104500
v 0.038378 0.402985 0.024098
v -0.117000 0.824835 -0.089695
v -0.112780 0.799703 -0.086158
v 0.040793 0.414418 0.025488
v -0.005342 0.391553 -0.085878
v -0.130610 0.850748 -0.073475
v 0.048377 0.645283 0.007158
v -0.139598 0.850748 -0.054208
v 0.047658 0.424120 0.029450
v -0.129013 0.824835 -0.072550
v -0.137853 0.824835 -0.053573
v -0.025000 0.381850 -0.096403
v -0.025000 0.391553 -0.088475
v 0.048377 0.668150 0.007158
v 0.056050 0.677850 0.009220
v -0.124245 0.799703 -0.069793
v 0.045695 0.402985 -0.031440
v 0.048182 0.402985 -0.012500
v -0.132683 0.799703 -0.051695
v -0.005342 0.414418 -0.085878
v 0.067513 0.684328 0.012292
v -0.025000 0.402985 -0.085683
v -0.061123 0.776120 -0.111745
v -0.003280 0.424120 -0.093550
v -0.077805 0.776120 -0.103963
v -0.025000 0.414418 -0.088475
v -0.092890 0.776120 -0.093402
v -0.056950 0.754805 -0.100280
v -0.117513 0.629105 -0.037293
v -0.071708 0.754805 -0.093402
v -0.124245 0.925373 0.023622
v -0.116463 0.925373 0.040305
v 0.045695 0.402985 0.006440
v -0.105903 0.925373 0.055390
v -0.085050 0.754805 -0.084060
v -0.096560 0.754805 -0.072550
v -0.139598 0.901790 -0.012500
v -0.137853 0.901790 0.007402
v -0.117513 0.684328 -0.037293
v 0.052622 0.373105 0.065123
v 0.060170 0.374835 0.072670
v -0.105903 0.776120 -0.080390
v -0.116463 0.776120 -0.065305
v 0.056400 0.374948 0.076440
v -0.137853 0.901790 -0.032403
v -0.124245 0.776120 -0.048623
v -0.145097 0.876657 -0.012500
v -0.143267 0.876657 0.008352
v 0.052622 0.432880 0.065123
v -0.105903 0.754805 -0.059207
v 0.063940 0.431025 0.068900
v -0.112780 0.754805 -0.044450
v -0.143267 0.876657 -0.033353
v 0.060170 0.431140 0.072670
v -0.120072 0.626835 -0.067390
v 0.070073 0.373105 0.042390
v 0.048658 0.965075 0.014305
v -0.107940 0.629105 -0.060390
v -0.132683 0.901790 0.026695
v 0.052195 0.965075 0.001110
v -0.124245 0.901790 0.044792
v 0.053390 0.965075 -0.012500
v -0.112780 0.901790 0.061157
v -0.025000 0.424120 -0.096403
v 0.052195 0.965075 -0.026110
v -0.131038 0.626835 0.015915
v 0.070780 0.629105 -0.012500
v -0.025000 0.430598 -0.108280
v -0.131038 0.686613 0.015915
v 0.058903 0.635583 -0.012500
v 0.056050 0.635583 -0.034220
v 0.067000 0.946688 0.003720
v -0.051255 0.374965 -0.130295
v -0.021078 0.375060 -0.133830
v -0.025000 0.373105 -0.122280
v 0.050975 0.645283 -0.012500
v -0.025000 0.375078 -0.134450
v -0.107940 0.629105 0.035390
v 0.048377 0.645283 -0.032157
v -0.137853 0.876657 0.028572
v -0.129013 0.876657 0.047550
v -0.071708 0.946688 0.068402
v -0.056950 0.946688 0.075280
v -0.092890 0.925373 0.068402
v -0.077805 0.925373 0.078962
v 0.050975 0.668150 -0.012500
v -0.061123 0.925373 0.086745
v 0.048377 0.668150 -0.032157
v -0.107940 0.684328 0.035390
v -0.098658 0.901790 0.075280
v -0.082292 0.901790 0.086745
v -0.064195 0.901790 0.095183
v 0.056050 0.677850 -0.034220
v 0.058903 0.677850 -0.012500
v -0.117000 0.876657 0.064695
v -0.092720 0.629105 0.055220
v -0.102195 0.876657 0.079500
v -0.085050 0.876657 0.091513
v -0.066073 0.876657 0.100353
v -0.084330 0.635583 0.046830
v 0.070780 0.684328 -0.012500
v -0.107940 0.684328 -0.060390
v -0.120072 0.686613 -0.067390
v -0.078720 0.645283 0.041220
v 0.084780 0.626835 -0.012500
v -0.025000 0.432880 -0.122280
v -0.078720 0.668150 0.041220
v -0.025000 0.430895 -0.134450
v -0.028923 0.430912 -0.133830
v -0.097658 0.635583 -0.054450
v -0.084330 0.677850 0.046830
v -0.090792 0.645283 -0.050487
v 0.084780 0.686613 -0.012500
v 0.022890 0.375372 -0.095440
v -0.088377 0.656717 -0.049098
v -0.092720 0.684328 0.055220
v -0.000207 0.375372 -0.105012
v 0.090987 0.375187 -0.050182
v 0.091990 0.374943 -0.043848
v 0.092795 0.374965 -0.038755
v 0.091417 0.430890 -0.047470
v 0.090987 0.430785 -0.050182
v -0.090792 0.668150 -0.050487
v -0.066950 0.635583 0.060158
v -0.062987 0.645283 0.053293
v -0.097658 0.677850 -0.054450
v 0.022890 0.430598 -0.095440
v 0.070073 0.432880 0.042390
v -0.061598 0.656717 0.050878
v -0.092720 0.629105 -0.080220
v -0.000207 0.430598 -0.105012
v -0.084330 0.635583 -0.071830
v -0.062987 0.668150 0.053293
v 0.077330 0.375000 0.051977
v 0.073658 0.375240 0.059183
v 0.079455 0.374860 0.047807
v 0.029890 0.373105 -0.107572
v 0.079455 0.431112 0.047807
v 0.081970 0.431042 0.042878
v 0.073658 0.430730 0.059183
v -0.078720 0.645283 -0.066220
v -0.066950 0.677850 0.060158
v 0.057940 0.375372 0.035390
v -0.076755 0.656717 -0.064255
v -0.097658 0.635583 0.029450
v 0.029890 0.432880 -0.107572
v -0.090792 0.645283 0.025488
v -0.078720 0.668150 -0.066220
v -0.084330 0.677850 -0.071830
v 0.057940 0.430598 0.035390
v -0.088377 0.656717 0.024098
v 0.003415 0.373105 -0.118538
v 0.006347 0.374943 -0.129490
v -0.092720 0.684328 -0.080220
v -0.090792 0.668150 0.025488
v 0.081037 0.373105 0.015915
v 0.091990 0.374943 0.018848
v -0.076755 0.656717 0.039255
v 0.091417 0.375082 0.022470
v -0.066950 0.635583 -0.085158
v 0.090987 0.375187 0.025183
v 0.035050 0.754805 0.059060
v -0.062987 0.645283 -0.078293
v 0.046560 0.754805 0.047550
v -0.097658 0.677850 0.029450
v 0.081037 0.432880 0.015915
v -0.061598 0.656717 -0.075878
v 0.016708 0.850748 0.102098
v 0.091990 0.431030 0.018848
v 0.090987 0.430785 0.025183
v 0.067513 0.375372 0.012292
v -0.062987 0.668150 -0.078293
v 0.035975 0.850748 0.093110
v 0.056050 0.381850 0.009220
v 0.016073 0.824835 0.100353
v 0.035050 0.824835 0.091513
v -0.066950 0.677850 -0.085158
v 0.048377 0.391553 0.007158
v -0.117513 0.629105 0.012292
v 0.014195 0.799703 0.095183
v -0.106050 0.635583 0.009220
v 0.032293 0.799703 0.086745
v -0.102623 0.626835 -0.090122
v 0.048377 0.414418 0.007158
v -0.102623 0.686613 -0.090122
v 0.056050 0.424120 0.009220
v -0.046170 0.850748 0.107597
v -0.106050 0.677850 0.009220
v -0.025000 0.850748 0.109450
v -0.079890 0.626835 -0.107572
v 0.067513 0.430598 0.012292
v -0.003830 0.850748 0.107597
v -0.117513 0.684328 0.012292
v -0.045853 0.824835 0.105768
v -0.025000 0.824835 0.107597
v 0.096330 0.375060 -0.008578
v -0.004148 0.824835 0.105768
v -0.044902 0.799703 0.100353
v -0.079890 0.686613 -0.107572
v -0.134780 0.626835 -0.012500
v -0.025000 0.799703 0.102098
v 0.092795 0.431010 0.013755
v -0.005098 0.799703 0.100353
v 0.070780 0.375372 -0.012500
v 0.058903 0.381850 -0.012500
v 0.056050 0.381850 -0.034220
v -0.072890 0.629105 -0.095440
v -0.134780 0.686613 -0.012500
v 0.050975 0.391553 -0.012500
v 0.009970 0.375082 -0.128918
v 0.012683 0.375187 -0.128488
v 0.048377 0.391553 -0.032157
v -0.106050 0.635583 -0.034220
v -0.120780 0.629105 -0.012500
v -0.072890 0.684328 -0.095440
v 0.003415 0.432880 -0.118538
v 0.001255 0.431010 -0.130295
v 0.006347 0.431030 -0.129490
v 0.012683 0.430785 -0.128488
v 0.091990 0.431030 -0.043848
v 0.039478 0.375000 -0.114830
v 0.046683 0.375240 -0.111157
v 0.035308 0.374860 -0.116955
v -0.108903 0.635583 -0.012500
v 0.090987 0.328358 -0.050182
v 0.035308 0.431112 -0.116955
v 0.030378 0.431042 -0.119470
v 0.046683 0.430730 -0.111157
v 0.067513 0.375372 -0.037293
v -0.053415 0.626835 -0.118538
v 0.073658 0.375240 -0.084183
v -0.106050 0.677850 -0.034220
v 0.079455 0.374860 -0.072808
v 0.081970 0.374932 -0.067878
v 0.079455 0.431112 -0.072808
v 0.077330 0.430972 -0.076977
v 0.073658 0.430730 -0.084183
v -0.053415 0.686613 -0.118538
v -0.108903 0.677850 -0.012500
v 0.073658 0.328358 -0.084183
v -0.120780 0.684328 -0.012500
v 0.011123 0.776120 0.086745
v -0.006060 0.656717 -0.083195
v 0.027805 0.776120 0.078962
v 0.042890 0.776120 0.068402
v 0.006950 0.754805 0.075280
v 0.021708 0.754805 0.068402
v 0.060170 0.374835 -0.097670
v 0.063940 0.374948 -0.093900
v 0.056400 0.431025 -0.101440
v 0.060170 0.431140 -0.097670
v -0.043940 0.656717 -0.083195
v 0.046683 0.328358 -0.111157
v -0.043343 0.776120 0.091513
v -0.025000 0.776120 0.093110
v -0.006657 0.776120 0.091513
v 0.047658 0.635583 -0.054450
v 0.040793 0.645283 -0.050487
v -0.041220 0.754805 0.079500
v 0.012683 0.328358 -0.128488
v -0.025000 0.754805 0.080915
v 0.067513 0.430598 -0.037293
v -0.008780 0.754805 0.079500
v 0.038378 0.656717 -0.049098
v 0.040793 0.668150 -0.050487
v -0.025000 0.328358 -0.134450
v 0.081037 0.373105 -0.040915
v 0.047658 0.677850 -0.054450
v -0.145097 0.850748 0.008670
v -0.146950 0.850748 -0.012500
v -0.145097 0.850748 -0.033670
v 0.050975 0.414418 -0.012500
v -0.062683 0.328358 -0.128488
v 0.048377 0.414418 -0.032157
v 0.016950 0.635583 -0.085158
v 0.056050 0.424120 -0.034220
v 0.058903 0.424120 -0.012500
v -0.145097 0.824835 -0.012500
v -0.143267 0.824835 0.008352
v 0.081037 0.432880 -0.040915
v 0.070073 0.373105 -0.067390
v -0.143267 0.824835 -0.033353
v -0.096683 0.328358 -0.111157
v -0.123658 0.375240 -0.084183
v 0.057940 0.375372 -0.060390
v -0.137853 0.799703 0.007402
v -0.123658 0.430730 -0.084183
v -0.139598 0.799703 -0.012500
v 0.070780 0.430598 -0.012500
v -0.137853 0.799703 -0.032403
v 0.057940 0.430598 -0.060390
v 0.070073 0.432880 -0.067390
v 0.096950 0.375078 -0.012500
v 0.084780 0.373105 -0.012500
v 0.012988 0.645283 -0.078293
v -0.123658 0.328358 -0.084183
v -0.140988 0.375187 -0.050182
v 0.011598 0.656717 -0.075878
v -0.140988 0.430785 -0.050182
v -0.129455 0.374860 -0.072808
v 0.084780 0.432880 -0.012500
v -0.127330 0.375000 -0.076977
v -0.139598 0.850748 0.029207
v -0.129455 0.431112 -0.072808
v -0.131970 0.431042 -0.067878
v 0.012988 0.668150 -0.078293
v 0.096950 0.430895 -0.012500
v -0.130610 0.850748 0.048475
v 0.096330 0.430912 -0.016423
v -0.163123 0.328358 -0.112853
v -0.187377 0.328358 -0.065255
v -0.140988 0.328358 -0.050182
v 0.137378 0.328358 -0.065255
v 0.113123 0.328358 -0.112853
v -0.141990 0.374943 -0.043848
v -0.025000 0.328358 -0.183233
v -0.077755 0.328358 -0.174878
v -0.125353 0.328358 -0.150623
v 0.075353 0.328358 -0.150623
v 0.027755 0.328358 -0.174878
v -0.137853 0.824835 0.028572
v -0.141418 0.375082 -0.047470
v 0.016950 0.677850 -0.085158
v -0.129013 0.824835 0.047550
v -0.142795 0.431010 -0.038755
v -0.141990 0.431030 -0.043848
v -0.195733 0.328358 -0.012500
v -0.187377 0.328358 0.040255
v -0.163123 0.328358 0.087853
v -0.132683 0.799703 0.026695
v -0.146950 0.328358 -0.012500
v 0.027755 0.328358 0.149878
v -0.131038 0.373105 -0.040915
v 0.075353 0.328358 0.125622
v -0.125353 0.328358 0.125622
v -0.077755 0.328358 0.149878
v -0.025000 0.328358 0.158232
v -0.025000 0.328358 0.109450
v 0.042720 0.629105 -0.080220
v 0.145733 0.328358 -0.012500
v 0.096950 0.328358 -0.012500
v 0.113123 0.328358 0.087853
v 0.137378 0.328358 0.040255
v 0.012683 0.328358 0.103488
v 0.046683 0.328358 0.086158
v 0.034330 0.635583 -0.071830
v 0.073658 0.328358 0.059183
v 0.090987 0.328358 0.025183
v -0.140988 0.328358 0.025183
v -0.123658 0.328358 0.059183
v -0.096683 0.328358 0.086158
v -0.131038 0.432880 -0.040915
v -0.062683 0.328358 0.103488
v -0.117513 0.375372 -0.037293
v 0.052622 0.373105 -0.090122
v -0.117513 0.430598 -0.037293
v 0.052622 0.432880 -0.090122
v -0.120072 0.373105 -0.067390
v -0.107940 0.375372 -0.060390
v -0.107940 0.430598 -0.060390
v -0.120072 0.432880 -0.067390
v -0.097658 0.381850 -0.054450
v -0.090792 0.391553 -0.050487
v -0.088377 0.402985 -0.049098
v -0.090792 0.414418 -0.050487
v -0.097658 0.424120 -0.054450
v -0.140988 0.375187 0.025183
v -0.141990 0.374943 0.018848
v -0.141418 0.430890 0.022470
v -0.140988 0.430785 0.025183
v -0.141990 0.431030 0.018848
v -0.129455 0.374860 0.047807
v -0.131970 0.374932 0.042878
v -0.129455 0.431112 0.047807
v -0.127330 0.430972 0.051977
v -0.123658 0.375240 0.059183
v -0.123658 0.430730 0.059183
v -0.110170 0.374835 0.072670
v -0.113940 0.374948 0.068900
v -0.106400 0.431025 0.076440
v -0.110170 0.431140 0.072670
v -0.096683 0.375240 0.086158
v -0.096683 0.430730 0.086158
v -0.085308 0.374860 0.091955
v -0.089478 0.375000 0.089830
v -0.085308 0.431112 0.091955
v -0.080378 0.431042 0.094470
v -0.062683 0.375187 0.103488
v -0.062683 0.430785 0.103488
v -0.056348 0.374943 0.104490
v -0.059970 0.375082 0.103918
v -0.056348 0.431030 0.104490
v -0.102623 0.373105 0.065123
v -0.102623 0.432880 0.065123
v -0.053415 0.373105 0.093538
v -0.053415 0.432880 0.093538
v -0.079890 0.373105 0.082573
v -0.072890 0.375372 0.070440
v -0.072890 0.430598 0.070440
v -0.079890 0.432880 0.082573
v -0.120072 0.373105 0.042390
v -0.120072 0.432880 0.042390
v -0.131038 0.373105 0.015915
v -0.131038 0.432880 0.015915
v -0.107940 0.375372 0.035390
v -0.107940 0.430598 0.035390
f 7 30 6
f 8 23 6
f 3 2 6
f 3 6 5
f 6 2 1
f 6 1 7
f 302 15 20
f 15 3 5
f 15 5 20
f 5 6 23
f 10 26 110
f 8 32 23
f 29 47 7
f 29 7 16
f 1 16 7
f 8 6 30
f 30 7 47
f 47 50 30
f 27 23 32
f 8 30 32
f 33 32 30
f 117 35 46
f 28 37 38
f 37 49 38
f 15 16 3
f 28 38 17
f 42 303 20
f 23 42 5
f 20 5 42
f 302 20 303
f 51 38 49
f 51 53 38
f 23 27 44
f 42 23 44
f 550 227 39
f 39 227 43
f 31 37 28
f 45 37 31
f 37 48 49
f 33 30 50
f 32 52 27
f 22 25 21
f 52 308 27
f 310 52 32
f 32 33 310
f 48 37 58
f 45 58 37
f 33 50 312
f 56 58 45
f 54 57 26
f 103 29 90
f 190 94 61
f 10 54 26
f 308 52 60
f 25 66 21
f 67 64 52
f 68 59 65
f 72 75 71
f 73 75 72
f 74 75 73
f 70 71 75
f 68 76 61
f 68 61 59
f 70 60 71
f 125 26 57
f 64 72 60
f 72 71 60
f 72 64 67
f 72 67 73
f 67 74 73
f 76 78 61
f 57 79 125
f 85 92 84
f 86 95 84
f 83 84 95
f 84 81 80
f 84 80 85
f 25 69 66
f 81 84 83
f 81 83 82
f 91 122 85
f 85 80 88
f 85 88 91
f 34 79 93
f 86 84 92
f 90 82 83
f 13 94 14
f 89 94 13
f 21 66 63
f 17 38 96
f 66 69 105
f 69 1285 1287
f 17 96 87
f 93 79 902
f 86 92 99
f 98 99 92
f 87 97 89
f 98 92 124
f 93 36 34
f 96 97 87
f 101 36 93
f 100 95 99
f 86 99 95
f 89 97 59
f 97 65 59
f 89 59 94
f 66 102 63
f 95 132 83
f 38 53 96
f 104 96 53
f 103 90 83
f 96 106 97
f 36 101 41
f 62 97 106
f 105 69 1287
f 104 106 96
f 62 65 97
f 105 102 66
f 90 156 82
f 91 272 273
f 105 111 102
f 108 112 113
f 112 170 173
f 110 116 527
f 107 10 110
f 35 810 46
f 110 26 116
f 29 103 47
f 121 119 118
f 122 91 273
f 92 85 122
f 272 91 88
f 122 124 92
f 116 26 125
f 124 122 273
f 95 100 135
f 95 135 132
f 295 114 99
f 55 1499 128
f 119 209 204
f 99 98 295
f 285 295 98
f 300 135 100
f 114 100 99
f 103 83 132
f 132 47 103
f 16 90 29
f 131 130 133
f 132 135 50
f 131 136 130
f 137 141 114
f 300 114 139
f 145 146 144
f 147 148 146
f 148 149 146
f 144 146 149
f 141 137 144
f 137 145 144
f 139 148 147
f 172 142 140
f 149 141 144
f 139 141 148
f 149 148 141
f 150 158 428
f 160 156 159
f 153 156 152
f 157 159 156
f 156 16 155
f 81 82 156
f 108 113 109
f 165 166 167
f 163 161 188
f 165 115 166
f 173 113 112
f 140 119 172
f 204 172 119
f 199 166 115
f 170 112 186
f 142 172 175
f 128 171 168
f 171 128 129
f 94 190 14
f 134 176 129
f 129 176 171
f 192 170 169
f 170 198 173
f 170 192 198
f 142 175 390
f 173 198 1394
f 174 183 177
f 174 179 183
f 108 1237 184
f 180 176 134
f 143 180 134
f 185 186 184
f 185 184 182
f 184 112 108
f 184 186 112
f 187 143 151
f 143 187 180
f 178 379 179
f 186 185 14
f 169 186 14
f 163 188 189
f 186 169 170
f 380 183 179
f 193 183 380
f 169 14 190
f 190 192 169
f 188 191 189
f 115 40 197
f 197 40 193
f 199 115 197
f 189 191 258
f 59 61 94
f 190 200 192
f 61 200 190
f 166 199 335
f 192 200 202
f 189 258 130
f 205 206 204
f 192 202 198
f 208 197 193
f 205 204 209
f 749 692 750
f 209 119 121
f 203 208 193
f 210 201 207
f 78 77 200
f 197 208 211
f 78 200 61
f 195 194 196
f 77 213 200
f 197 211 199
f 214 202 213
f 200 213 202
f 214 683 202
f 212 196 194
f 203 413 208
f 164 156 154
f 120 116 125
f 130 215 133
f 160 152 156
f 220 215 219
f 133 215 220
f 125 34 120
f 153 154 156
f 164 88 156
f 217 290 216
f 292 216 290
f 221 204 206
f 125 79 34
f 614 216 288
f 156 90 16
f 1 2 16
f 80 81 156
f 88 80 156
f 288 216 292
f 155 16 226
f 219 385 218
f 120 34 223
f 701 212 194
f 2 3 16
f 222 278 221
f 172 204 228
f 43 229 46
f 15 226 16
f 227 229 43
f 231 240 230
f 232 274 230
f 230 274 233
f 164 154 272
f 223 34 36
f 154 153 230
f 154 230 233
f 152 231 230
f 152 230 153
f 229 117 46
f 152 239 231
f 235 261 234
f 228 181 175
f 237 259 234
f 157 156 234
f 157 234 236
f 156 155 235
f 156 235 234
f 1508 1543 238
f 228 241 181
f 172 228 175
f 239 243 231
f 160 239 152
f 239 160 242
f 159 242 160
f 232 230 240
f 242 246 239
f 240 231 243
f 159 157 242
f 242 157 236
f 243 247 240
f 243 239 246
f 246 242 236
f 246 236 259
f 232 240 247
f 243 248 247
f 246 251 248
f 246 248 243
f 246 259 251
f 248 253 247
f 253 252 247
f 253 248 256
f 251 256 248
f 266 256 251
f 236 234 259
f 226 302 155
f 259 237 263
f 117 260 35
f 237 234 261
f 303 261 235
f 254 249 1545
f 260 244 35
f 303 265 261
f 260 262 244
f 251 259 263
f 130 258 215
f 263 237 264
f 260 1005 262
f 237 261 264
f 265 264 261
f 244 262 250
f 263 266 251
f 264 267 263
f 255 280 257
f 267 266 263
f 269 267 264
f 265 269 264
f 215 268 385
f 271 269 265
f 258 268 215
f 272 88 164
f 233 272 154
f 274 273 233
f 272 233 273
f 232 282 274
f 250 277 255
f 262 277 250
f 124 273 279
f 222 281 278
f 273 274 279
f 282 279 274
f 277 280 255
f 270 223 276
f 232 283 282
f 204 221 278
f 247 283 232
f 257 280 275
f 284 275 280
f 278 228 204
f 124 285 98
f 275 284 286
f 278 241 228
f 279 285 124
f 287 285 279
f 276 309 375
f 289 287 279
f 282 289 279
f 1546 276 223
f 283 291 282
f 291 289 282
f 252 291 283
f 247 252 283
f 280 1057 284
f 284 1058 286
f 238 297 298
f 312 135 299
f 284 1057 1058
f 135 312 50
f 286 1058 1059
f 135 300 299
f 298 297 296
f 100 114 300
f 235 302 303
f 235 155 302
f 15 302 226
f 265 303 304
f 294 293 313
f 303 42 44
f 303 44 304
f 304 271 265
f 313 332 294
f 271 44 306
f 305 307 301
f 44 271 304
f 315 316 293
f 308 306 44
f 27 308 44
f 305 311 318
f 305 318 307
f 307 681 301
f 132 50 47
f 312 310 33
f 305 167 311
f 167 166 311
f 313 293 316
f 1544 245 309
f 252 253 317
f 339 291 317
f 320 317 253
f 314 1465 309
f 217 294 326
f 320 256 321
f 253 256 320
f 307 318 322
f 321 256 323
f 266 323 256
f 311 166 335
f 328 324 267
f 266 267 323
f 324 323 267
f 327 217 326
f 217 327 290
f 267 269 328
f 326 294 330
f 269 271 328
f 331 328 271
f 330 294 332
f 340 322 318
f 349 331 271
f 334 287 336
f 285 287 334
f 337 318 311
f 289 338 287
f 336 287 338
f 289 291 338
f 339 338 291
f 311 335 337
f 329 297 1543
f 340 318 337
f 252 317 291
f 295 285 137
f 114 295 137
f 334 137 285
f 341 312 299
f 315 293 319
f 300 139 299
f 341 299 139
f 199 344 335
f 293 333 343
f 343 319 293
f 346 343 333
f 345 346 333
f 199 211 344
f 329 347 325
f 141 139 114
f 348 337 335
f 271 306 349
f 345 333 351
f 333 354 350
f 308 60 306
f 349 306 60
f 350 351 333
f 344 348 335
f 249 347 329
f 337 348 353
f 64 60 52
f 52 310 67
f 348 373 353
f 347 249 254
f 355 374 354
f 356 67 312
f 310 312 67
f 348 603 373
f 337 353 340
f 341 356 312
f 353 357 342
f 353 342 340
f 325 347 382
f 334 145 137
f 358 145 334
f 336 359 334
f 359 358 334
f 336 338 360
f 360 359 336
f 339 362 338
f 338 362 360
f 317 363 339
f 339 363 362
f 211 602 344
f 317 320 364
f 317 364 363
f 320 321 365
f 320 365 364
f 344 603 348
f 321 323 366
f 321 366 365
f 324 367 323
f 323 367 366
f 376 372 354
f 368 367 328
f 324 328 367
f 457 441 355
f 328 331 369
f 328 369 368
f 357 353 373
f 349 369 331
f 401 341 371
f 352 350 354
f 208 419 211
f 376 354 374
f 372 352 354
f 355 442 374
f 370 529 270
f 1496 361 370
f 442 355 441
f 270 375 370
f 276 375 270
f 379 178 378
f 179 379 380
f 379 378 384
f 949 241 278
f 309 1492 375
f 380 379 386
f 382 383 1504
f 379 384 386
f 347 387 382
f 224 385 225
f 382 387 383
f 380 386 203
f 225 954 389
f 224 218 385
f 387 347 254
f 215 385 219
f 380 203 193
f 384 481 386
f 387 395 383
f 390 398 392
f 254 396 387
f 178 884 378
f 398 390 175
f 371 341 147
f 139 147 341
f 349 399 369
f 378 394 400
f 397 400 394
f 399 349 70
f 60 70 349
f 384 378 400
f 401 74 356
f 67 356 74
f 356 341 401
f 363 405 362
f 364 407 363
f 402 423 362
f 400 397 728
f 404 410 367
f 368 411 367
f 369 412 368
f 366 367 410
f 402 362 405
f 398 175 181
f 365 408 364
f 405 363 407
f 366 408 365
f 407 364 408
f 386 409 203
f 366 410 408
f 404 367 411
f 417 392 398
f 386 481 409
f 411 368 412
f 412 369 399
f 403 406 428
f 413 203 409
f 414 412 399
f 399 70 414
f 415 414 70
f 415 70 75
f 146 145 418
f 358 421 145
f 359 421 358
f 418 145 421
f 398 181 420
f 421 359 422
f 419 208 413
f 360 362 423
f 359 360 422
f 422 360 423
f 401 426 74
f 75 74 425
f 426 401 371
f 398 420 417
f 481 424 409
f 425 74 426
f 409 427 413
f 429 426 371
f 147 146 430
f 371 147 429
f 430 429 147
f 417 486 416
f 409 424 427
f 413 427 431
f 406 150 428
f 488 420 501
f 434 435 433
f 433 765 434
f 413 431 419
f 1107 433 432
f 452 428 158
f 392 417 416
f 403 428 443
f 439 438 436
f 767 768 440
f 439 440 438
f 432 435 439
f 432 439 436
f 434 766 767
f 457 444 441
f 439 435 434
f 439 434 440
f 424 437 445
f 434 767 440
f 448 449 450
f 443 428 452
f 454 455 453
f 424 445 427
f 453 455 459
f 450 454 453
f 450 453 448
f 427 458 431
f 456 446 457
f 443 452 1383
f 427 445 458
f 451 448 459
f 453 459 448
f 463 461 462
f 452 158 377
f 785 465 464
f 460 783 464
f 462 460 464
f 444 457 447
f 463 462 466
f 463 466 467
f 464 466 462
f 452 469 1383
f 1011 470 472
f 447 457 446
f 469 452 377
f 445 512 458
f 471 473 475
f 417 420 488
f 472 471 475
f 472 475 476
f 473 477 475
f 400 728 478
f 384 400 478
f 481 384 478
f 469 482 468
f 480 479 487
f 485 487 479
f 478 484 489
f 487 490 480
f 417 488 486
f 482 491 468
f 478 489 481
f 481 489 424
f 486 161 416
f 381 493 482
f 188 161 486
f 488 492 486
f 491 482 493
f 381 388 493
f 686 485 483
f 485 686 487
f 490 487 691
f 188 492 191
f 495 484 732
f 492 188 486
f 484 497 489
f 484 495 497
f 191 492 513
f 489 437 424
f 388 496 493
f 241 499 181
f 391 496 388
f 489 497 437
f 499 501 420
f 495 715 497
f 420 181 499
f 514 496 391
f 1038 1370 504
f 505 437 497
f 504 507 508
f 497 715 505
f 488 501 510
f 437 505 511
f 508 507 506
f 501 499 524
f 528 501 524
f 511 445 437
f 507 1370 406
f 512 445 511
f 513 492 510
f 507 504 1370
f 406 1370 150
f 492 488 510
f 510 528 552
f 387 396 395
f 1378 514 391
f 191 513 515
f 480 624 479
f 516 514 517
f 515 268 258
f 480 490 518
f 514 1378 517
f 515 534 539
f 383 395 393
f 191 515 258
f 107 110 396
f 268 515 539
f 522 241 949
f 522 524 499
f 530 629 523
f 507 406 525
f 525 560 507
f 395 526 393
f 241 522 499
f 396 527 395
f 527 396 110
f 490 498 518
f 395 527 526
f 518 498 519
f 403 525 406
f 527 529 526
f 519 500 521
f 498 500 519
f 361 393 526
f 502 523 521
f 526 370 361
f 500 502 521
f 443 1435 403
f 502 503 523
f 120 529 116
f 116 529 527
f 1463 468 491
f 501 528 510
f 370 526 529
f 523 503 530
f 529 120 270
f 513 510 552
f 534 513 552
f 491 536 531
f 496 536 493
f 493 536 491
f 538 537 535
f 509 530 503
f 530 509 532
f 515 513 534
f 537 829 826
f 544 533 532
f 533 546 540
f 544 546 533
f 574 537 826
f 539 542 268
f 778 540 543
f 539 582 542
f 509 544 532
f 542 385 268
f 540 546 543
f 547 543 546
f 560 520 541
f 548 545 549
f 547 550 543
f 385 542 954
f 543 550 39
f 548 551 545
f 1532 1536 551
f 524 554 528
f 537 574 553
f 546 929 547
f 554 557 528
f 547 930 550
f 930 931 550
f 674 138 531
f 555 531 536
f 550 931 227
f 555 536 569
f 553 574 556
f 528 557 552
f 569 584 555
f 57 556 900
f 585 675 555
f 556 577 900
f 506 560 561
f 560 506 507
f 559 558 572
f 559 572 578
f 561 560 564
f 559 578 563
f 525 520 560
f 1539 562 567
f 557 568 552
f 567 562 703
f 496 569 536
f 570 558 600
f 569 496 514
f 571 514 516
f 1536 567 704
f 575 569 571
f 572 558 570
f 568 573 534
f 571 569 514
f 584 569 576
f 576 569 575
f 568 534 552
f 560 541 564
f 573 568 940
f 556 574 577
f 564 541 565
f 581 565 541
f 579 670 580
f 581 541 579
f 563 483 566
f 573 539 534
f 578 483 563
f 573 582 539
f 566 485 479
f 483 485 566
f 583 555 584
f 555 583 585
f 357 373 588
f 572 1205 301
f 588 373 591
f 589 591 373
f 446 456 596
f 596 456 595
f 591 589 594
f 593 594 589
f 594 1012 591
f 592 598 821
f 592 590 875
f 592 875 606
f 599 604 616
f 592 606 598
f 613 607 599
f 558 824 600
f 614 612 216
f 612 599 216
f 613 599 612
f 602 211 419
f 603 344 602
f 602 611 603
f 602 610 611
f 637 616 605
f 608 599 607
f 604 599 608
f 598 609 600
f 602 419 610
f 598 606 609
f 419 431 610
f 600 609 570
f 603 611 589
f 593 589 611
f 618 619 617
f 603 589 373
f 431 458 620
f 618 617 622
f 610 431 620
f 610 620 625
f 616 635 615
f 610 625 611
f 611 625 593
f 601 647 630
f 479 623 621
f 566 479 621
f 633 630 632
f 635 616 638
f 605 616 604
f 623 479 624
f 620 639 625
f 480 518 624
f 626 624 518
f 625 641 593
f 630 633 755
f 518 519 626
f 458 512 636
f 626 519 627
f 637 638 616
f 627 521 628
f 634 587 617
f 458 636 620
f 519 521 627
f 639 620 636
f 634 640 587
f 628 523 629
f 521 523 628
f 634 670 640
f 641 625 639
f 594 593 641
f 652 649 615
f 636 512 642
f 649 650 655
f 636 646 639
f 653 615 635
f 642 646 636
f 138 647 127
f 630 647 651
f 643 558 559
f 652 615 653
f 1076 641 639
f 643 559 644
f 644 559 563
f 614 288 642
f 644 563 645
f 647 138 651
f 290 646 292
f 292 646 642
f 621 645 566
f 642 288 292
f 645 563 566
f 138 674 651
f 327 646 290
f 664 651 665
f 615 649 655
f 648 655 650
f 664 631 651
f 630 651 632
f 673 634 659
f 660 617 619
f 659 634 661
f 663 654 667
f 667 654 648
f 690 654 663
f 661 634 660
f 660 634 617
f 665 674 666
f 632 651 631
f 671 580 670
f 670 579 541
f 657 672 658
f 671 670 673
f 634 673 670
f 668 672 657
f 655 648 654
f 340 342 322
f 674 531 555
f 685 682 669
f 867 869 668
f 555 675 674
f 676 674 675
f 688 669 687
f 687 654 690
f 685 669 684
f 683 757 682
f 688 684 669
f 651 674 665
f 668 869 672
f 654 687 669
f 676 666 674
f 449 677 450
f 698 699 679
f 699 680 679
f 455 454 680
f 678 698 679
f 681 483 578
f 678 679 454
f 678 454 450
f 206 205 694
f 681 578 301
f 681 686 483
f 677 449 220
f 133 220 449
f 686 689 487
f 131 133 449
f 209 694 205
f 121 694 209
f 689 691 487
f 490 691 656
f 218 677 219
f 512 511 700
f 220 219 677
f 512 700 642
f 669 455 680
f 669 680 654
f 692 162 201
f 162 1500 201
f 678 696 695
f 696 678 677
f 678 450 677
f 711 710 698
f 710 699 698
f 505 697 511
f 454 679 680
f 201 750 692
f 698 678 695
f 695 711 698
f 505 693 697
f 210 751 201
f 511 697 700
f 749 762 692
f 607 697 608
f 608 697 693
f 1074 212 701
f 604 693 605
f 605 693 720
f 701 194 55
f 693 604 608
f 222 221 707
f 206 707 221
f 906 577 586
f 225 696 224
f 926 703 562
f 704 567 703
f 818 704 703
f 389 696 225
f 677 224 696
f 677 218 224
f 680 699 655
f 680 655 654
f 281 222 707
f 697 607 613
f 612 700 613
f 697 613 700
f 709 695 708
f 696 708 695
f 58 56 706
f 700 614 642
f 467 724 711
f 700 612 614
f 711 695 709
f 467 711 463
f 709 463 711
f 833 834 702
f 834 836 702
f 713 494 712
f 714 716 707
f 713 495 494
f 281 707 716
f 715 495 713
f 712 1385 1304
f 48 706 49
f 712 719 713
f 708 718 717
f 702 643 644
f 708 696 718
f 712 1304 719
f 389 718 696
f 644 645 702
f 706 741 51
f 713 719 720
f 645 621 702
f 621 623 702
f 597 456 56
f 713 720 715
f 623 624 702
f 715 693 505
f 624 626 702
f 693 715 720
f 456 706 56
f 626 627 702
f 58 706 48
f 708 717 722
f 627 628 702
f 635 719 653
f 655 699 615
f 710 615 699
f 719 635 638
f 628 629 702
f 49 706 51
f 637 720 638
f 721 714 707
f 719 638 720
f 463 709 723
f 708 723 709
f 710 711 724
f 637 605 720
f 775 776 702
f 726 727 736
f 721 736 727
f 776 778 702
f 725 728 397
f 456 597 595
f 778 779 702
f 723 708 730
f 779 780 702
f 722 729 708
f 780 807 702
f 731 732 728
f 731 728 725
f 728 484 478
f 807 810 702
f 728 732 484
f 730 734 723
f 729 730 708
f 710 724 616
f 710 616 615
f 854 702 797
f 733 726 736
f 151 705 187
f 461 463 723
f 854 856 702
f 466 465 467
f 724 467 465
f 738 736 737
f 702 856 858
f 65 742 68
f 733 736 738
f 692 758 705
f 723 734 739
f 739 743 723
f 736 746 740
f 705 151 162
f 692 705 162
f 756 76 742
f 758 692 763
f 62 106 741
f 53 51 741
f 212 744 196
f 461 723 743
f 744 212 747
f 741 742 62
f 212 745 747
f 461 743 748
f 104 53 741
f 750 201 751
f 599 616 465
f 724 465 616
f 763 692 762
f 62 742 65
f 740 737 736
f 460 462 461
f 753 754 752
f 752 754 745
f 466 464 465
f 702 810 797
f 748 755 461
f 212 752 745
f 465 785 599
f 216 599 785
f 702 858 860
f 104 741 106
f 788 622 746
f 861 702 860
f 1108 436 438
f 669 682 757
f 702 861 862
f 68 742 76
f 863 702 862
f 76 756 78
f 702 863 864
f 761 433 1128
f 78 756 77
f 683 214 757
f 438 706 456
f 1246 758 1249
f 764 758 763
f 757 77 756
f 766 434 765
f 758 764 1249
f 438 440 768
f 702 838 819
f 214 213 757
f 702 819 821
f 77 757 213
f 777 773 765
f 774 765 773
f 783 460 782
f 461 782 460
f 781 789 771
f 796 785 784
f 629 530 772
f 464 783 784
f 786 777 433
f 765 433 777
f 530 532 772
f 775 772 532
f 622 788 618
f 775 533 776
f 532 533 775
f 540 778 776
f 176 787 171
f 533 540 776
f 787 1166 1162
f 779 778 543
f 461 755 633
f 631 782 632
f 543 39 779
f 633 632 782
f 461 633 782
f 761 786 433
f 780 779 39
f 180 1087 176
f 768 706 438
f 741 706 768
f 619 618 788
f 787 176 1087
f 39 43 780
f 770 771 789
f 791 783 790
f 782 790 783
f 464 784 785
f 765 795 766
f 791 794 784
f 791 784 783
f 1352 792 799
f 768 767 800
f 793 798 766
f 767 766 798
f 799 792 936
f 772 702 629
f 789 973 802
f 702 772 775
f 804 795 803
f 619 788 660
f 661 660 788
f 666 790 665
f 782 664 790
f 665 790 664
f 782 631 664
f 806 801 973
f 785 796 217
f 785 217 216
f 797 35 244
f 659 661 788
f 811 791 812
f 790 812 791
f 797 244 854
f 812 1011 811
f 681 813 686
f 780 43 807
f 815 814 794
f 796 794 814
f 784 794 796
f 809 805 941
f 681 307 813
f 807 46 810
f 476 1013 815
f 815 794 811
f 791 811 794
f 43 46 807
f 689 686 816
f 813 816 686
f 476 815 472
f 811 472 815
f 810 35 797
f 816 657 689
f 668 657 816
f 689 657 691
f 691 658 656
f 832 702 864
f 732 731 494
f 657 658 691
f 702 832 833
f 307 322 813
f 731 735 494
f 813 662 816
f 732 494 495
f 322 662 813
f 662 668 816
f 1385 494 735
f 498 656 820
f 702 821 822
f 702 822 824
f 1200 609 606
f 824 643 702
f 823 825 502
f 1205 570 1202
f 827 828 826
f 572 570 1205
f 578 572 301
f 821 598 822
f 827 826 829
f 822 600 824
f 829 537 538
f 822 598 600
f 643 824 558
f 843 823 820
f 823 847 825
f 843 847 823
f 847 909 825
f 838 702 836
f 839 820 656
f 658 839 656
f 839 843 820
f 545 835 549
f 845 835 841
f 549 835 845
f 833 887 834
f 846 826 828
f 672 851 658
f 841 889 840
f 839 658 851
f 838 590 819
f 819 590 592
f 848 880 846
f 851 852 839
f 819 592 821
f 830 877 831
f 574 826 853
f 831 855 837
f 839 852 843
f 843 857 847
f 855 859 842
f 852 857 843
f 842 837 855
f 842 859 174
f 853 586 577
f 886 851 672
f 853 865 586
f 179 174 859
f 574 853 577
f 844 842 174
f 886 888 851
f 844 174 177
f 244 250 854
f 854 250 856
f 498 490 656
f 937 586 865
f 178 859 884
f 855 884 859
f 856 255 858
f 859 178 179
f 250 255 856
f 820 500 498
f 257 860 858
f 255 257 858
f 823 502 500
f 820 823 500
f 275 861 257
f 825 503 502
f 503 908 509
f 890 9 24
f 825 908 503
f 4 9 893
f 818 866 704
f 863 907 864
f 662 322 342
f 864 883 832
f 662 867 668
f 894 12 4
f 818 952 866
f 12 830 19
f 867 662 342
f 830 12 894
f 866 835 545
f 342 876 867
f 876 878 867
f 831 19 830
f 867 878 869
f 891 871 868
f 891 870 871
f 704 866 545
f 590 868 872
f 869 886 672
f 871 872 868
f 875 590 872
f 835 873 889
f 877 830 874
f 866 873 835
f 342 357 876
f 19 831 870
f 870 831 837
f 870 837 871
f 876 1004 878
f 871 837 872
f 842 872 837
f 855 831 877
f 889 841 835
f 872 844 875
f 848 881 880
f 872 842 844
f 875 844 1197
f 826 846 880
f 874 879 882
f 880 853 826
f 875 1197 606
f 879 963 882
f 874 882 877
f 880 865 853
f 877 884 855
f 877 882 884
f 885 832 883
f 876 1003 1004
f 880 1180 865
f 883 12 885
f 833 832 885
f 887 833 885
f 851 888 852
f 394 378 884
f 24 1059 890
f 891 836 834
f 888 892 852
f 834 887 891
f 868 838 836
f 888 899 892
f 852 892 857
f 868 836 891
f 590 838 868
f 893 9 890
f 892 957 857
f 4 893 894
f 878 895 869
f 1189 850 889
f 4 12 883
f 869 895 886
f 850 1189 896
f 849 840 889
f 886 897 888
f 885 12 19
f 895 897 886
f 885 19 887
f 556 57 54
f 897 899 888
f 887 870 891
f 1059 1223 898
f 887 19 870
f 890 898 901
f 900 902 79
f 860 257 861
f 890 901 893
f 275 903 861
f 900 906 902
f 275 286 903
f 1023 1024 895
f 893 904 894
f 895 1024 897
f 861 903 862
f 900 79 57
f 893 901 904
f 903 905 862
f 900 577 906
f 862 905 863
f 905 907 863
f 906 914 902
f 883 864 907
f 825 909 908
f 909 911 908
f 915 909 847
f 9 907 905
f 908 911 923
f 907 9 4
f 902 913 93
f 903 286 24
f 586 916 906
f 903 24 905
f 937 916 586
f 24 9 905
f 857 915 847
f 907 4 883
f 915 918 909
f 906 916 914
f 909 918 911
f 918 919 911
f 857 957 915
f 902 914 913
f 914 916 928
f 918 961 919
f 920 917 769
f 961 946 919
f 1160 920 769
f 923 544 509
f 894 904 874
f 101 913 562
f 904 879 874
f 509 908 923
f 544 923 924
f 93 913 101
f 874 830 894
f 914 926 913
f 544 924 546
f 924 929 546
f 1160 927 920
f 914 928 926
f 930 547 929
f 562 913 926
f 928 932 926
f 923 934 924
f 703 932 818
f 923 911 934
f 945 818 932
f 936 792 933
f 932 703 926
f 929 924 935
f 934 935 924
f 935 943 929
f 930 929 943
f 937 938 916
f 930 944 931
f 943 944 930
f 939 799 936
f 911 919 934
f 568 1147 940
f 916 938 928
f 919 946 934
f 939 941 805
f 935 948 943
f 938 942 928
f 939 912 941
f 799 939 805
f 939 910 912
f 939 936 910
f 1154 573 940
f 942 945 932
f 912 917 941
f 1154 940 922
f 935 934 946
f 941 947 809
f 946 948 935
f 573 1154 582
f 920 947 917
f 932 928 942
f 941 917 947
f 945 942 1122
f 943 950 944
f 278 716 949
f 714 949 716
f 947 951 817
f 948 950 943
f 920 951 947
f 716 278 281
f 818 945 952
f 866 952 873
f 898 925 953
f 898 953 901
f 955 904 901
f 948 983 950
f 901 953 955
f 385 954 225
f 956 865 1180
f 983 1185 950
f 879 904 955
f 718 954 717
f 718 389 954
f 714 721 949
f 727 949 721
f 956 958 937
f 915 959 918
f 957 959 915
f 865 956 937
f 959 961 918
f 727 960 949
f 955 962 879
f 960 522 949
f 964 946 961
f 937 958 938
f 892 965 957
f 960 738 1073
f 963 879 962
f 958 966 938
f 899 965 892
f 882 963 394
f 970 963 962
f 959 957 967
f 965 967 957
f 882 394 884
f 967 968 959
f 795 804 808
f 770 789 802
f 959 968 961
f 968 971 964
f 968 964 961
f 795 765 803
f 972 954 1056
f 970 962 969
f 803 765 774
f 963 970 397
f 397 970 725
f 1056 954 542
f 963 397 394
f 742 741 800
f 768 800 741
f 965 1111 967
f 801 802 973
f 793 975 974
f 766 795 793
f 975 793 795
f 969 1313 970
f 459 996 976
f 800 798 977
f 976 977 798
f 722 717 972
f 767 798 800
f 1313 725 970
f 974 976 798
f 974 798 793
f 459 976 974
f 451 459 974
f 972 717 954
f 946 979 948
f 726 733 960
f 982 973 980
f 925 981 953
f 946 964 979
f 979 983 948
f 925 978 981
f 726 960 727
f 953 981 985
f 992 979 964
f 729 972 730
f 981 993 985
f 722 972 729
f 953 985 955
f 986 984 975
f 795 808 986
f 962 955 985
f 983 979 994
f 960 990 522
f 984 989 975
f 1232 988 978
f 978 991 981
f 990 960 1073
f 982 806 973
f 978 988 991
f 524 522 990
f 975 795 986
f 971 992 964
f 993 981 991
f 992 994 979
f 524 990 554
f 977 756 800
f 756 742 800
f 987 980 973
f 985 969 962
f 975 995 974
f 451 974 995
f 448 451 449
f 995 449 451
f 554 1083 1085
f 969 985 993
f 977 976 996
f 455 996 459
f 554 990 1083
f 994 992 1148
f 988 1327 1329
f 1329 991 988
f 1085 557 554
f 993 991 1332
f 975 989 999
f 995 975 1000
f 999 1000 975
f 992 1146 1148
f 1000 1002 995
f 117 1014 1015
f 588 1003 357
f 357 1003 876
f 260 117 1015
f 977 996 757
f 977 757 756
f 1015 1005 260
f 998 1526 997
f 997 1527 1001
f 666 676 790
f 1006 1003 588
f 1008 1001 694
f 588 591 1006
f 1529 694 1001
f 673 659 1377
f 1006 1009 1003
f 931 1018 227
f 1006 1016 1009
f 227 1018 229
f 1003 1009 1004
f 1014 117 229
f 676 675 812
f 585 812 675
f 1002 1010 995
f 1009 1027 1004
f 812 790 676
f 694 118 1007
f 121 118 694
f 796 814 294
f 796 294 217
f 1005 1129 1132
f 449 136 131
f 472 811 1011
f 449 995 136
f 1010 136 995
f 814 815 1013
f 475 474 476
f 996 455 669
f 996 669 757
f 1012 1006 591
f 1007 1008 694
f 1012 1016 1006
f 1018 1022 1014
f 1019 565 581
f 980 1017 982
f 581 579 1019
f 580 1019 579
f 583 584 812
f 576 1011 584
f 812 585 583
f 1011 812 584
f 594 1062 1012
f 814 1013 293
f 814 293 294
f 1018 1014 229
f 1012 1067 1016
f 1062 1067 1012
f 471 472 470
f 1014 1020 1015
f 1013 476 474
f 1020 1014 1022
f 1023 895 878
f 984 986 1021
f 1004 1023 878
f 561 1019 506
f 564 1019 561
f 1018 931 1025
f 1011 571 470
f 516 470 571
f 897 1026 899
f 931 944 1025
f 1025 1022 1018
f 576 575 1011
f 897 1024 1026
f 575 571 1011
f 1039 1033 1025
f 333 293 474
f 1013 474 293
f 1025 1033 1022
f 118 1028 1007
f 565 1019 564
f 508 506 1019
f 119 1028 118
f 1032 473 470
f 471 470 473
f 1027 1023 1004
f 1029 1024 1023
f 1030 1020 1022
f 473 1032 1031
f 475 477 474
f 1007 1028 1008
f 1022 1033 1030
f 1052 1035 1034
f 1035 474 477
f 1008 1047 1001
f 477 473 1031
f 477 1031 1034
f 1027 1029 1023
f 1029 1036 1024
f 944 950 1039
f 1024 1036 1026
f 944 1039 1025
f 1042 1040 1032
f 1041 1032 1040
f 1009 1043 1027
f 1044 189 130
f 1016 1043 1009
f 1043 1045 1027
f 130 136 1044
f 1033 1178 1030
f 1044 136 1010
f 1027 1045 1029
f 1010 1002 1044
f 1044 1002 1000
f 516 517 470
f 1029 1046 1036
f 1032 470 1042
f 517 1042 470
f 1045 1046 1029
f 980 987 1017
f 998 1017 987
f 333 474 1035
f 354 333 1035
f 997 1001 1047
f 1032 1050 1031
f 1049 1031 1050
f 277 262 1048
f 477 1034 1035
f 1051 1052 1034
f 1049 1051 1031
f 1034 1031 1051
f 997 1047 998
f 1017 998 1047
f 262 1005 1048
f 1048 1054 277
f 1016 1079 1043
f 277 1054 280
f 582 1056 542
f 1054 1057 280
f 1047 1008 1028
f 582 1155 1056
f 1047 1028 1055
f 1045 1084 1046
f 641 1060 594
f 1055 1028 140
f 1060 1062 594
f 140 1028 119
f 1060 1070 1062
f 947 817 809
f 1066 1050 1065
f 1064 1065 1050
f 140 1264 1055
f 920 927 951
f 1076 1077 1060
f 641 1076 1060
f 951 1069 1431
f 161 1068 1282
f 1068 161 163
f 1071 1021 1068
f 1069 951 927
f 1070 1072 1062
f 972 1056 1161
f 1070 316 1072
f 1062 1072 1067
f 1068 163 1071
f 1072 1094 1067
f 1078 730 972
f 1071 163 1044
f 1044 163 189
f 313 1070 332
f 332 1070 1077
f 316 1070 313
f 737 1073 738
f 315 1072 316
f 738 960 733
f 1072 315 319
f 1071 1044 1000
f 1071 1000 999
f 1083 990 1073
f 639 646 1076
f 646 327 1076
f 999 989 1071
f 984 1071 989
f 984 1021 1071
f 1070 1060 1077
f 326 1076 327
f 326 330 1077
f 326 1077 1076
f 801 1080 802
f 1077 330 332
f 1075 1074 701
f 803 1091 804
f 701 168 1075
f 774 1091 803
f 1079 1016 1067
f 1079 1081 1043
f 1153 1075 1082
f 1253 743 1078
f 801 806 1080
f 982 1080 806
f 1078 734 730
f 734 1078 739
f 1082 1075 168
f 1043 1081 1045
f 1082 787 1162
f 1080 982 1017
f 1081 1084 1045
f 1082 171 787
f 1084 1081 1099
f 1218 1017 1236
f 1099 1168 1084
f 1084 1168 1163
f 1050 1032 1064
f 1041 1064 1032
f 168 171 1082
f 1017 1218 1080
f 1035 1052 355
f 1035 355 354
f 1079 1067 1094
f 787 1087 1166
f 1050 1088 1049
f 1086 1049 1088
f 1051 1089 1090
f 1052 1051 1090
f 1089 1086 436
f 432 436 1086
f 1051 1049 1086
f 1051 1086 1089
f 1050 1101 1088
f 1081 1079 1096
f 1095 1088 1100
f 966 1122 942
f 1098 1105 1097
f 1087 180 1092
f 1094 1096 1079
f 187 1092 180
f 1096 1099 1081
f 942 938 966
f 1096 351 1099
f 966 1127 1122
f 1100 1088 1101
f 945 1122 1103
f 705 1102 187
f 1092 187 1102
f 343 1094 319
f 1072 319 1094
f 345 1096 346
f 1094 346 1096
f 1104 952 1103
f 1105 1098 1053
f 343 346 1094
f 24 286 1059
f 351 1096 345
f 1099 351 350
f 1066 1101 1050
f 945 1103 952
f 1052 1090 457
f 1052 457 355
f 350 352 1099
f 1093 1097 1105
f 1106 899 1026
f 1088 1107 1086
f 432 1086 1107
f 1005 1132 1048
f 1090 1089 1108
f 1089 436 1108
f 1048 1109 1054
f 899 1106 965
f 952 1104 873
f 1048 1132 1109
f 1112 1107 1118
f 1106 1111 965
f 1104 1114 873
f 1088 1118 1107
f 1057 1054 1113
f 1109 1113 1054
f 1057 1113 1222
f 1105 1121 1115
f 1110 1115 1121
f 1114 889 873
f 1118 1088 1117
f 1222 1058 1057
f 1026 1119 1106
f 1114 1189 889
f 1059 1058 1223
f 1026 1036 1119
f 1093 1105 1116
f 1106 1120 1111
f 1117 1088 1095
f 898 890 1059
f 1119 1120 1106
f 1090 1108 456
f 1090 456 457
f 1120 1140 1111
f 958 1123 966
f 1115 1116 1105
f 435 432 433
f 1174 1113 1109
f 1036 1046 1125
f 1126 1121 1124
f 1123 1127 966
f 1110 1121 1126
f 1125 1119 1036
f 1107 1128 433
f 1125 1130 1119
f 1020 1129 1015
f 1129 1005 1015
f 1119 1130 1120
f 1131 1128 1107
f 1112 1131 1107
f 1108 438 456
f 1130 1133 1120
f 760 1124 1121
f 1124 1134 1126
f 1125 1165 1130
f 1130 1167 1133
f 967 1135 968
f 1111 1135 967
f 971 968 1138
f 1135 1138 968
f 1127 1141 1122
f 1140 1135 1111
f 1140 1142 1138
f 1140 1138 1135
f 1133 1140 1120
f 1142 1140 1143
f 1133 1143 1140
f 1131 1139 1128
f 1141 1144 1103
f 1122 1141 1103
f 1085 1083 1207
f 1138 1146 971
f 557 1085 1147
f 971 1146 992
f 1144 1104 1103
f 917 1145 769
f 1144 1149 1104
f 557 1147 568
f 1138 1150 1146
f 917 912 1145
f 1142 1150 1138
f 1150 1151 1146
f 1137 1152 1136
f 1149 1290 1114
f 1152 1074 1075
f 1150 1159 1151
f 1216 940 1147
f 1137 1074 1152
f 940 1216 922
f 1152 1153 1145
f 1146 1151 1148
f 1151 1422 1148
f 1136 1152 1145
f 1153 1152 1075
f 1114 1104 1149
f 582 1154 1155
f 769 1145 1153
f 1143 1156 1142
f 1142 1156 1150
f 1154 922 1226
f 1156 1159 1150
f 1155 1154 1226
f 1155 1161 1056
f 1153 1162 769
f 1143 1182 1183
f 1143 1183 1156
f 1161 1155 1234
f 1082 1162 1153
f 769 1162 1160
f 1046 1084 1163
f 1157 1412 1158
f 1163 1125 1046
f 740 1073 737
f 1157 799 805
f 1163 1165 1125
f 1157 1414 1412
f 1131 1112 1139
f 1162 1166 1160
f 1134 1195 1126
f 1165 1167 1130
f 1134 1169 1198
f 805 1414 1157
f 1166 1164 1160
f 1198 1195 1134
f 1099 352 1168
f 1163 1170 1165
f 1168 1170 1163
f 1020 1171 1129
f 1170 1175 1165
f 1030 1171 1020
f 1198 1169 1250
f 1165 1175 1167
f 1171 1172 1129
f 372 1168 352
f 1129 1172 1132
f 1132 1174 1109
f 376 374 1170
f 1168 376 1170
f 1172 1174 1132
f 372 376 1168
f 1318 1141 1127
f 1141 1173 1144
f 1173 1324 1144
f 1176 1182 1175
f 374 442 1170
f 1033 1177 1178
f 441 1175 442
f 1170 442 1175
f 1158 1324 1173
f 441 444 1176
f 441 1176 1175
f 1144 1324 1149
f 444 447 1176
f 1182 1143 1133
f 1167 1182 1133
f 1184 1180 880
f 1181 1180 1184
f 1184 880 881
f 1182 1190 1183
f 1039 950 1185
f 1039 1177 1033
f 1156 1186 1159
f 1183 1186 1156
f 1185 1177 1039
f 1188 1177 1187
f 1186 31 1159
f 1126 1195 1110
f 1167 1175 1182
f 1114 1290 1189
f 1110 1195 1115
f 1177 1188 1178
f 1115 1195 1116
f 1176 1190 1182
f 1194 1189 1191
f 1190 1192 1183
f 1117 1243 1118
f 1268 1191 1189
f 1118 1139 1112
f 983 994 1193
f 849 889 850
f 1190 596 1192
f 1193 1185 983
f 1183 1192 1186
f 1194 896 1189
f 1185 1187 1177
f 1186 45 31
f 1193 1187 1185
f 1181 1275 1180
f 1274 1180 1275
f 1192 45 1186
f 1116 1323 1093
f 1276 1196 1274
f 447 446 1190
f 1176 447 1190
f 446 596 1190
f 595 1192 596
f 595 597 1192
f 1180 1274 1196
f 56 45 597
f 1192 597 45
f 1411 1193 994
f 1196 956 1180
f 1411 1410 1193
f 177 1197 844
f 1410 1187 1193
f 1030 1199 1171
f 1178 1199 1030
f 606 1197 1200
f 1073 740 1245
f 1197 1212 1200
f 804 1091 1021
f 1171 1201 1172
f 1197 177 1212
f 1199 1201 1171
f 1202 570 609
f 986 808 1021
f 804 1021 808
f 1201 1203 1172
f 1161 1078 972
f 1166 1204 1164
f 1241 1078 1161
f 1092 1204 1087
f 1202 609 1200
f 1241 1253 1078
f 1087 1204 1166
f 771 770 1206
f 770 802 1206
f 743 1253 748
f 739 1078 743
f 1208 1204 1092
f 165 1202 1200
f 1210 587 1211
f 640 1211 587
f 773 1091 774
f 587 1210 1207
f 773 1209 1091
f 1102 1208 1092
f 1205 305 301
f 777 1209 773
f 786 1209 777
f 753 752 1213
f 1206 802 1080
f 1200 1212 165
f 1210 1085 1207
f 1212 40 115
f 1216 1210 1211
f 1212 115 165
f 1215 1217 1213
f 167 1205 1202
f 1319 1206 1080
f 1202 165 167
f 1216 1211 1219
f 1205 167 305
f 1080 1218 1319
f 1211 640 1397
f 177 183 40
f 1172 1203 1174
f 193 40 183
f 1212 177 40
f 1178 1220 1199
f 1188 1220 1178
f 1147 1210 1216
f 1201 1199 1221
f 1147 1085 1210
f 1220 1221 1199
f 922 1219 921
f 1398 921 1219
f 1188 1443 1220
f 1219 922 1216
f 1221 1448 182
f 1219 1211 1397
f 1058 1222 1223
f 1113 1174 1224
f 1224 1225 1113
f 1222 1113 1225
f 921 1226 922
f 1222 1227 1223
f 1222 1225 1227
f 1226 921 1228
f 1223 1227 925
f 925 898 1223
f 1224 1231 1225
f 1228 1233 1234
f 1209 1229 1091
f 1256 1229 1251
f 978 925 1227
f 1256 1091 1229
f 1174 1203 1224
f 1230 1224 1203
f 1234 1226 1228
f 1231 1224 1230
f 1225 1231 1232
f 1231 1238 1239
f 1231 1239 1232
f 1232 1227 1225
f 1232 978 1227
f 1221 1235 1201
f 1228 1405 1233
f 1201 1235 1203
f 1230 1203 1237
f 1235 1237 1203
f 1230 1238 1231
f 1017 1047 1236
f 1230 1237 1238
f 1236 1240 1285
f 1155 1226 1234
f 1232 1239 988
f 1241 1234 1233
f 988 1239 1327
f 1218 1236 1285
f 1221 182 1235
f 1241 1233 601
f 1055 1236 1047
f 1217 1215 1214
f 1240 1236 1055
f 1234 1241 1161
f 752 1137 1215
f 1242 1179 1243
f 1243 1179 1139
f 1215 1213 752
f 1264 1244 1240
f 1242 1372 1179
f 1137 752 1074
f 212 1074 752
f 746 1245 740
f 1139 1118 1243
f 1245 622 617
f 1246 1356 1208
f 1102 758 1246
f 1245 746 622
f 1102 705 758
f 1102 1246 1208
f 1117 1095 1243
f 1207 1245 617
f 1248 1246 1249
f 1169 1353 1250
f 1207 617 587
f 1207 1083 1245
f 1083 1073 1245
f 1250 1353 1252
f 1357 1356 1246
f 1253 601 630
f 601 1253 1241
f 1251 1247 1273
f 630 755 1253
f 748 1253 755
f 1257 1215 1137
f 1260 1365 1259
f 1255 1252 22
f 910 1257 1136
f 1256 1021 1091
f 956 1196 1283
f 1256 1068 1021
f 910 1254 1257
f 1283 1196 1296
f 1136 1257 1137
f 1240 1055 1264
f 1263 1255 21
f 912 910 1136
f 1244 1264 1265
f 1136 1145 912
f 140 142 1264
f 63 1263 21
f 1264 142 1265
f 1069 927 1267
f 1266 1263 63
f 927 1160 1164
f 1242 1294 1266
f 927 1164 1267
f 1298 1244 1265
f 1265 1269 1298
f 1271 1164 1204
f 1267 1271 1286
f 1372 1242 1266
f 390 1265 142
f 1164 1271 1267
f 392 1269 390
f 1265 390 1269
f 1280 1191 1268
f 1280 1268 1278
f 1272 1300 1270
f 1247 1269 1273
f 1270 1195 1198
f 1208 1271 1204
f 1271 1208 1356
f 1276 1301 1196
f 1270 1198 1272
f 1198 1250 1272
f 1273 1269 392
f 1495 1361 1277
f 1299 1296 1196
f 933 1495 1277
f 1282 1251 1273
f 416 1273 392
f 1254 933 1277
f 1273 416 1282
f 1282 1068 1256
f 1292 1254 1277
f 956 1283 958
f 936 933 1254
f 958 1283 1123
f 1251 1282 1256
f 1254 910 936
f 1252 1281 1250
f 416 161 1282
f 1281 1272 1250
f 1123 1311 1314
f 1284 1281 1252
f 1123 1283 1311
f 1252 1255 1284
f 1127 1123 1314
f 1263 1288 1255
f 1497 1069 1267
f 1318 1127 1314
f 1255 1288 1284
f 1288 1289 1317
f 1289 1288 1263
f 105 1287 1291
f 1285 1240 1287
f 1290 1268 1189
f 1244 1287 1240
f 1244 1298 1291
f 1287 1244 1291
f 1214 1292 1293
f 1331 1268 1290
f 1292 1214 1215
f 111 1291 1295
f 1289 1263 1266
f 1237 1235 184
f 1298 1295 1291
f 1278 1268 1279
f 1289 1266 1294
f 1235 182 184
f 105 1291 111
f 1306 1279 1268
f 108 1238 1237
f 1239 1238 109
f 1238 108 109
f 1297 1296 1299
f 1299 1196 1301
f 1327 1239 109
f 1295 1298 1247
f 712 494 1385
f 1269 1247 1298
f 1303 377 1300
f 1302 1304 1385
f 1328 1295 1305
f 1305 1247 1251
f 1303 1300 1272
f 1295 1247 1305
f 650 649 1302
f 1305 1229 1333
f 649 652 1304
f 649 1304 1302
f 653 719 1304
f 1304 652 653
f 1303 1272 1281
f 1284 1307 1281
f 1328 1305 1333
f 1303 1281 1307
f 1310 1279 1306
f 1310 1306 1309
f 993 1308 969
f 1229 1305 1251
f 1313 969 1308
f 771 1206 781
f 1284 1312 1307
f 1333 1209 1348
f 1308 1316 1313
f 1288 1312 1284
f 1308 1315 1316
f 1348 1209 786
f 1313 1316 731
f 1312 1317 388
f 731 1316 735
f 1312 1288 1317
f 1313 731 725
f 1318 1173 1141
f 1337 1320 1315
f 1315 1320 1322
f 1323 1097 1093
f 1116 1195 1323
f 1322 1316 1315
f 1330 1098 1323
f 1097 1323 1098
f 1322 735 1316
f 1173 1318 1349
f 1319 1218 1321
f 1320 1382 1384
f 1173 1349 1158
f 1320 1384 1322
f 1270 1323 1195
f 735 1322 1385
f 1321 69 25
f 1326 1149 1324
f 1325 1242 1243
f 1321 1218 1285
f 69 1321 1285
f 1100 1243 1095
f 1325 1243 1100
f 1379 111 1328
f 1295 1328 111
f 1101 1325 1100
f 1149 1326 1290
f 1327 1335 1329
f 1101 1066 1325
f 1326 1331 1290
f 1061 1053 1330
f 1332 991 1329
f 993 1332 1308
f 109 113 1334
f 1334 1327 109
f 1306 1268 1331
f 1335 1327 1334
f 1323 1347 1330
f 1333 1229 1209
f 1336 1296 1297
f 1329 1335 1337
f 1311 1283 1296
f 1329 1337 1332
f 1332 1315 1308
f 1332 1337 1315
f 760 1134 1124
f 1338 1334 113
f 1340 781 1206
f 113 173 1338
f 781 1340 759
f 1334 1338 1341
f 1339 1294 1325
f 1134 760 1340
f 759 1340 760
f 1325 1294 1242
f 1309 1306 1342
f 1334 1341 1335
f 1065 1339 1325
f 1343 1337 1335
f 1335 1341 1343
f 1065 1325 1066
f 1320 1337 1343
f 1370 1330 150
f 150 1330 1347
f 1333 1348 1381
f 173 1394 1338
f 761 1348 786
f 150 1347 158
f 1270 1347 1323
f 1311 1344 1314
f 1300 158 1347
f 1348 761 1128
f 1345 1314 1344
f 1293 1292 1350
f 1346 1349 1345
f 1300 1347 1270
f 1139 1348 1128
f 1257 1254 1292
f 1346 1352 1349
f 1134 1340 1169
f 158 1300 377
f 1312 388 381
f 1340 1354 1169
f 1257 1292 1215
f 1318 1345 1349
f 1354 1340 1206
f 391 1317 1355
f 1286 1271 1356
f 1318 1314 1345
f 1352 1157 1158
f 1317 1289 1355
f 1353 1169 1354
f 1357 1246 1248
f 1354 1364 1353
f 1358 1356 1357
f 1317 391 388
f 1349 1352 1158
f 1157 1352 799
f 1359 1367 1356
f 1359 1356 1358
f 1355 1289 1294
f 1292 1277 1350
f 1350 1277 1351
f 1363 1351 1277
f 1361 1495 1362
f 1339 1355 1294
f 22 1252 1353
f 1261 788 1360
f 1363 1277 1361
f 1098 1330 1053
f 1206 1319 1354
f 746 1449 788
f 1262 788 1261
f 1258 1259 1365
f 1321 1364 1319
f 1366 1286 1367
f 1356 1367 1286
f 1064 1339 1065
f 1319 1364 1354
f 1368 1286 1366
f 22 1364 25
f 1339 1064 1041
f 1040 1339 1041
f 22 1353 1364
f 1038 1037 1370
f 1037 1063 1370
f 1321 25 1364
f 1345 1369 1346
f 1266 63 1372
f 102 1372 63
f 1061 1330 1063
f 1258 1365 1374
f 1380 1371 1373
f 1370 1063 1330
f 1345 1344 1369
f 102 1379 1372
f 659 788 1377
f 1369 1425 1346
f 1378 1355 1339
f 1376 1377 788
f 1355 1378 391
f 792 1346 1425
f 1375 1376 788
f 1262 1375 788
f 1341 1396 1343
f 1373 1374 1380
f 1365 1380 1374
f 102 111 1379
f 1179 1379 1381
f 1378 1339 1040
f 1042 1378 1040
f 1378 1042 517
f 1179 1372 1379
f 1343 1382 1320
f 1328 1381 1379
f 1382 1387 1384
f 1438 1435 443
f 1381 1139 1179
f 1385 1322 1384
f 1381 1348 1139
f 1403 690 1386
f 1381 1328 1333
f 1383 469 468
f 1392 469 377
f 1387 1382 1386
f 1384 1387 1302
f 1388 1389 1380
f 22 21 1255
f 1384 1302 1385
f 1386 667 1387
f 1392 377 1303
f 648 1387 667
f 1307 1392 1303
f 1386 663 667
f 1391 1390 671
f 580 671 1390
f 1390 1368 580
f 671 673 1391
f 1377 1391 673
f 1387 648 650
f 1392 482 469
f 1387 650 1302
f 1362 1388 1393
f 1380 1393 1388
f 1389 1371 1380
f 1392 381 482
f 1338 1394 1395
f 1399 1394 198
f 1394 1401 1395
f 1312 381 1307
f 1395 1341 1338
f 1392 1307 381
f 1396 1341 1395
f 1382 1343 1396
f 1393 1400 1363
f 1351 1363 1400
f 1393 1363 1361
f 1393 1361 1362
f 1359 1019 1367
f 1366 1367 1019
f 1396 1386 1382
f 1219 1397 1398
f 1352 1346 792
f 580 1368 1019
f 1366 1019 1368
f 198 202 1399
f 1214 1293 1406
f 1401 1394 1399
f 1395 1401 1403
f 1400 1406 1293
f 1350 1400 1293
f 1399 685 1401
f 1404 921 1398
f 1350 1351 1400
f 1398 1486 18
f 1403 1396 1395
f 1398 18 1404
f 1386 1396 1403
f 1358 1357 1019
f 1359 1358 1019
f 508 1019 1248
f 1357 1248 1019
f 1404 1405 1228
f 1217 1214 1406
f 817 1431 1402
f 817 951 1431
f 682 1399 683
f 202 683 1399
f 1228 921 1404
f 1402 1431 1420
f 684 1401 685
f 762 1037 763
f 1405 1404 123
f 682 685 1399
f 1259 1258 1407
f 684 688 1401
f 764 763 1037
f 687 1403 688
f 1401 688 1403
f 1259 1407 1260
f 1213 1413 753
f 1405 1408 1233
f 663 1386 690
f 1413 754 753
f 126 1405 123
f 1403 687 690
f 127 1408 126
f 1217 1406 1213
f 1413 1213 1406
f 1405 126 1408
f 1187 1409 1188
f 1408 647 601
f 1410 1409 1187
f 1248 1249 508
f 1443 1188 1409
f 647 1408 127
f 1038 504 764
f 1233 1408 601
f 1249 764 504
f 1037 1038 764
f 1249 504 508
f 1411 994 1148
f 809 1414 805
f 1415 525 403
f 747 745 1423
f 744 747 1423
f 751 1053 750
f 1324 1158 1412
f 1414 1416 1417
f 1063 762 749
f 1410 1418 1419
f 809 1416 1414
f 1053 1061 750
f 749 750 1061
f 1261 1432 1262
f 1412 1414 1417
f 754 1413 745
f 1413 1423 745
f 1410 1419 1409
f 1360 1420 1261
f 1420 1360 1449
f 1324 1412 1326
f 1419 1461 1409
f 1412 1417 1326
f 1063 749 1061
f 762 1063 1037
f 1148 1422 1411
f 1421 1369 1407
f 1411 1418 1410
f 1389 1495 1421
f 1424 195 1436
f 1422 1418 1411
f 1421 1425 1369
f 1416 809 817
f 1418 1426 1419
f 817 1402 1416
f 1428 1426 1418
f 1326 1417 1331
f 1417 1416 1429
f 196 1423 195
f 1402 1429 1416
f 933 1425 1495
f 792 1425 933
f 210 207 1105
f 1430 1422 1151
f 1429 1331 1417
f 1331 1429 1306
f 1159 1430 1151
f 1430 1428 1422
f 1431 1432 1420
f 1296 1336 1434
f 1433 1434 1336
f 1431 1069 1432
f 196 744 1423
f 1434 1260 1407
f 525 1415 520
f 18 1415 1435
f 1422 1428 1418
f 1260 1434 1433
f 1428 17 1426
f 28 17 1428
f 1105 207 1427
f 1053 751 1105
f 210 1105 751
f 17 87 1426
f 1407 1344 1434
f 123 18 1435
f 1436 195 1423
f 1344 1407 1369
f 1435 1438 123
f 1415 403 1435
f 1159 31 1430
f 1344 1311 1434
f 1296 1434 1311
f 31 28 1430
f 1441 1402 1420
f 1428 1430 28
f 1442 1436 1440
f 1436 1452 1440
f 1402 1441 1429
f 1429 1441 1306
f 1121 1105 1445
f 1441 1447 1342
f 1438 1446 126
f 1342 1306 1441
f 1443 1448 1220
f 1438 1383 1446
f 1436 1442 1424
f 1420 1449 1441
f 1447 1441 1449
f 126 123 1438
f 1220 1448 1221
f 1444 1445 1105
f 1439 1121 1445
f 1427 1444 1105
f 1383 1438 443
f 1437 1440 1452
f 1459 1380 1454
f 1454 1365 1453
f 127 126 1446
f 1458 1413 1457
f 1450 1436 1458
f 1457 1413 1456
f 1406 1400 1456
f 1462 1452 1455
f 1443 1409 1461
f 1446 1463 127
f 1437 1452 1462
f 1365 1454 1380
f 468 1446 1383
f 1380 1459 1393
f 1460 1400 1459
f 1443 1464 1448
f 1393 1459 1400
f 1460 1456 1400
f 1463 1446 468
f 1443 1461 1464
f 1406 1456 1413
f 1413 1458 1423
f 1451 1452 1450
f 1464 185 1448
f 1423 1458 1436
f 1463 531 138
f 1436 1450 1452
f 1463 491 531
f 1466 1465 1121
f 1439 1466 1121
f 1448 185 182
f 1469 1489 1468
f 1468 1489 1467
f 1426 1470 1419
f 1471 1452 1467
f 127 1463 138
f 296 1473 1455
f 1472 1484 1477
f 297 1473 296
f 1493 1477 1478
f 1474 1484 1472
f 1475 1476 1493
f 1477 1493 1476
f 1419 1470 1461
f 1479 640 670
f 1470 13 1461
f 1455 1473 1462
f 1426 87 1470
f 541 1479 670
f 1453 1365 1480
f 1481 1488 1480
f 1483 1488 1482
f 1479 541 520
f 1478 1477 1484
f 1487 1485 1474
f 1487 1474 1482
f 87 89 1470
f 1484 1474 1485
f 1473 1494 1499
f 1470 89 13
f 1397 1479 1486
f 1487 1482 1488
f 1483 1480 1488
f 1461 13 1464
f 1464 14 185
f 1481 1480 1365
f 13 14 1464
f 1451 1467 1452
f 640 1479 1397
f 1471 1467 1489
f 1469 1475 1490
f 1489 1469 1490
f 1490 1475 1491
f 1491 1475 1493
f 1479 520 1486
f 520 1415 1486
f 405 407 1454
f 405 1454 1453
f 407 408 1459
f 407 1459 1454
f 408 410 1460
f 408 1460 1459
f 1398 1397 1486
f 410 404 1456
f 410 1456 1460
f 404 411 1457
f 404 1457 1456
f 411 412 1458
f 411 1458 1457
f 412 414 1450
f 412 1450 1458
f 414 415 1451
f 414 1451 1450
f 1466 1492 1465
f 415 75 1451
f 1477 146 418
f 1477 418 1472
f 418 421 1474
f 418 1474 1472
f 1482 1474 422
f 421 422 1474
f 422 423 1483
f 422 1483 1482
f 1465 1492 309
f 423 402 1480
f 423 1480 1483
f 1453 1480 402
f 1453 402 405
f 1486 1415 18
f 75 1467 1451
f 1467 75 425
f 1467 425 1468
f 425 426 1469
f 425 1469 1468
f 18 123 1404
f 1466 1439 1492
f 1475 1469 429
f 426 429 1469
f 430 1476 1475
f 430 1475 429
f 1069 1497 1432
f 146 1477 1476
f 146 1476 430
f 1497 1376 1432
f 1374 1407 1258
f 1494 1473 297
f 1373 1371 1421
f 325 1502 1494
f 1373 1421 1374
f 1421 1407 1374
f 329 1494 297
f 1375 1432 1376
f 1376 1497 1377
f 1375 1262 1432
f 1432 1261 1420
f 325 1494 329
f 1388 1362 1495
f 325 1503 1502
f 1388 1495 1389
f 1389 1421 1371
f 1421 1495 1425
f 1496 370 375
f 1497 1267 1286
f 1390 1286 1368
f 1390 1497 1286
f 1391 1497 1390
f 1391 1377 1497
f 1496 375 1492
f 1444 1501 1445
f 1492 1445 1501
f 1462 1498 1437
f 1440 1498 1442
f 1445 1492 1439
f 829 1484 827
f 1498 1462 1473
f 694 841 206
f 195 1424 194
f 1442 194 1424
f 549 845 694
f 840 206 841
f 1440 1437 1498
f 694 548 549
f 845 841 694
f 194 1442 1498
f 829 538 1478
f 1478 1484 829
f 828 827 1484
f 1498 1499 55
f 1499 1498 1473
f 1484 1485 846
f 828 1484 846
f 128 1499 1502
f 896 707 850
f 1502 1499 1494
f 849 850 707
f 361 1496 1500
f 1501 201 1500
f 881 848 1485
f 840 849 707
f 707 206 840
f 1496 1501 1500
f 848 846 1485
f 1496 1492 1501
f 881 1485 1184
f 1184 1485 1181
f 1501 1444 1427
f 207 1501 1427
f 201 1501 207
f 1502 1503 129
f 129 128 1502
f 1503 134 129
f 1503 1504 134
f 721 707 1280
f 707 1191 1280
f 1194 1191 707
f 896 1194 707
f 1275 1181 1487
f 1487 1181 1485
f 1503 325 382
f 1275 1487 1274
f 1504 1503 382
f 1504 1505 143
f 721 1280 736
f 1276 1274 1487
f 1504 383 1505
f 1310 736 1279
f 134 1504 143
f 1278 1279 736
f 1278 736 1280
f 1301 1276 1488
f 1487 1488 1276
f 1299 1488 1297
f 393 1505 383
f 1301 1488 1299
f 143 1505 151
f 1506 151 1505
f 1505 393 1506
f 1488 1481 1297
f 1336 1297 1481
f 1506 1500 162
f 1342 736 1309
f 1506 361 1500
f 151 1506 162
f 1506 393 361
f 746 736 1447
f 194 1498 55
f 1342 1447 736
f 1310 1309 736
f 1433 1336 1481
f 128 168 55
f 1433 1481 1260
f 1360 788 1449
f 1447 1449 746
f 168 701 55
f 1365 1260 1481
f 298 296 1471
f 1452 1471 1455
f 759 1121 314
f 1465 314 1121
f 760 1121 759
f 296 1455 1471
f 1511 1509 789
f 1510 789 1509
f 238 1489 1508
f 1511 789 245
f 789 759 245
f 238 298 1471
f 314 245 759
f 789 781 759
f 1471 1489 238
f 1507 1508 1489
f 1507 1489 1513
f 1489 1490 1513
f 1515 973 1514
f 973 789 1514
f 1517 973 1515
f 1510 1514 789
f 1516 1512 1490
f 1512 1513 1490
f 1519 1490 1518
f 1517 1521 973
f 973 1520 1523
f 987 973 1523
f 1521 1520 973
f 1522 1518 1491
f 1491 1518 1490
f 1490 1519 1516
f 1525 1491 1524
f 1529 1001 1527
f 1526 998 1523
f 1527 997 1526
f 987 1523 998
f 1491 1493 1524
f 1525 1522 1491
f 1528 1524 1493
f 1531 1493 1530
f 1493 1531 1528
f 1530 1478 535
f 1532 551 694
f 694 551 548
f 1529 1532 694
f 538 535 1478
f 1478 1530 1493
f 1519 1533 1541
f 1518 1533 1519
f 1519 1541 1516
f 1520 1521 1534
f 1540 1526 1523
f 535 1535 1530
f 537 1535 535
f 1531 1535 1537
f 1530 1535 1531
f 1524 1528 1537
f 1531 1537 1528
f 1536 704 545
f 545 551 1536
f 1536 1527 1540
f 1532 1529 1536
f 1536 1529 1527
f 1518 1522 1533
f 1525 1533 1522
f 1533 1525 1537
f 1524 1537 1525
f 1535 1538 1537
f 10 11 1538
f 10 1538 54
f 1535 553 1538
f 1535 537 553
f 556 54 553
f 1538 553 54
f 41 101 1539
f 101 562 1539
f 1540 1534 1539
f 567 1540 1539
f 41 1539 1534
f 1540 567 1536
f 1527 1526 1540
f 1520 1540 1523
f 1520 1534 1540
f 1512 1516 1541
f 1541 1513 1512
f 1514 1542 1515
f 1545 249 1541
f 1533 1545 1541
f 1542 41 1534
f 1534 1515 1542
f 1521 1517 1534
f 1515 1534 1517
f 1508 1507 1543
f 1513 1543 1507
f 297 238 1543
f 1509 1542 1510
f 314 309 245
f 1511 1544 1509
f 1511 245 1544
f 1513 1541 1543
f 249 329 1543
f 249 1543 1541
f 1545 107 254
f 107 1545 11
f 107 396 254
f 223 270 120
f 223 36 1546
f 1544 309 276
f 36 41 1546
f 1544 1546 1542
f 1542 1546 41
f 1544 276 1546
f 1514 1510 1542
f 1544 1542 1509
f 1533 11 1545
f 11 1533 1537
f 1537 1538 11
f 11 10 107