v 0.000000 0.457267 0.485199
v 0.000000 0.804411 1.289044
v 0.000000 0.511335 0.739978
v 0.000000 2.024758 1.280775
v 0.000000 2.378892 0.540535
v 0.319583 0.841730 1.261391
v 0.266185 1.975046 1.200036
v 0.235536 2.323270 0.487170
v 0.672944 1.207336 1.170793
v 0.541602 0.949551 1.211289
v 1.006125 1.205831 0.396731
v 0.936577 1.249390 0.730975
v 0.976964 1.634057 0.376087
v 0.805110 2.119503 0.378894
v 0.611175 1.460354 1.191177
v 0.892630 1.585271 0.753335
v 0.881366 2.858226 0.921507
v 1.061217 2.756186 0.903885
v 0.284062 1.334743 -1.512496
v 0.000000 1.295583 -1.496416
v 0.000000 1.908949 -1.432689
v 0.306926 1.925152 -1.441282
v 0.578740 1.423663 -1.452755
v 0.581403 1.726539 -1.439135
v 0.532405 1.910751 -1.402354
v 0.000000 0.776227 -1.284695
v 0.000000 0.459203 -0.589369
v 0.000000 0.551878 -0.962867
v 0.000000 2.462735 -0.597063
v 0.000000 2.148954 -1.284997
v 0.000000 2.368333 -0.964855
v 0.445138 2.406493 -0.560427
v 0.415753 2.141783 -1.262175
v 0.450839 2.331053 -0.935282
v 0.300056 0.499308 -0.564542
v 0.875744 1.450333 -1.332182
v 1.012763 1.281820 -0.489187
v 0.986367 1.392036 -0.903025
v 0.830994 0.773811 -0.502597
v 0.704791 2.011948 -1.231107
v 0.835373 2.217005 -0.480731
v 0.807709 2.154845 -0.861351
v 1.009990 1.741299 -0.465622
v 0.836282 1.781597 -1.303954
v 0.968085 1.756509 -0.879099
v 0.978995 2.371835 0.554945
v 0.355861 2.534903 0.623599
v 0.487746 0.616606 -0.815747
v 0.920331 0.983129 -0.497475
v 0.289176 1.740089 -1.503755
v 0.526186 0.527351 0.353524
v 0.393235 0.503087 0.465214
v 0.375112 0.561698 0.762224
v 0.503174 0.652602 0.880503
v 0.000000 0.942814 -1.379830
v 0.000000 0.597563 0.903480
v 0.933340 0.708440 0.467771
v 0.747867 0.615186 0.357187
v 0.963637 0.907007 0.419655
v 0.664293 0.730074 0.877378
v 0.888526 0.775380 0.752897
v 0.912735 0.957511 0.737244
v 0.668369 0.868102 1.039108
v 0.445068 0.764285 -1.314950
v 0.335697 0.744180 -1.183396
v 0.213862 0.800400 -1.305074
v 0.292351 0.966044 -1.402320
v 0.362004 0.611325 -0.922526
v 0.841085 0.837054 -0.957770
v 0.695260 0.653138 -0.517626
v 0.768382 0.845067 -1.215432
v 0.584813 0.820585 -1.327209
v 0.575264 1.134848 -1.420833
v 0.832084 1.176447 -1.293817
v 0.697750 0.720776 -0.828056
v 0.940471 1.128905 -0.934628
v 0.744904 0.351441 0.375978
v 0.895487 0.356598 0.497244
v 0.535435 0.342548 0.376930
v 0.396089 0.334700 0.513407
v 0.858542 0.353386 0.668828
v 0.659545 0.346905 0.788338
v 0.511539 0.340090 0.789185
v 0.389318 0.334289 0.669326
v 0.370932 0.340967 -1.141996
v 0.502359 0.342147 -1.263950
v 0.359491 0.340924 -1.003122
v 0.470478 0.341090 -0.880171
v 0.600180 0.343203 -1.264836
v 0.746301 0.346049 -1.148061
v 0.776099 0.347037 -1.003910
v 0.679455 0.344975 -0.882597
v 0.000000 0.685776 1.070429
v 0.409316 0.725022 1.044844
v 0.292913 2.125995 1.071651
v 0.000000 2.190965 1.106822
v 0.591898 1.847669 1.020653
v 0.795034 1.512895 1.026694
v 0.809600 1.224406 0.977320
v 0.158188 1.283715 1.764780
v 0.000000 1.275858 1.773027
v 0.159680 1.445037 1.772588
v 0.000000 1.408257 1.783236
v 0.402644 2.369630 -0.040990
v 0.000000 2.462362 -0.027842
v 0.824408 2.190258 -0.051301
v 1.012237 1.207689 -0.043457
v 1.000748 1.679490 -0.036127
v 0.930910 0.924083 -0.040022
v 0.705331 0.625360 -0.070505
v 0.840904 0.724676 -0.067430
v 0.527981 0.000765 0.753482
v 0.511245 0.032922 0.789776
v 0.434560 0.000765 0.655158
v 0.396388 0.029255 0.668944
v 0.441010 0.000765 0.527438
v 0.404294 0.029990 0.512384
v 0.549090 0.000765 0.413830
v 0.532968 0.035113 0.377668
v 0.816358 0.000765 0.651199
v 0.849322 0.043630 0.670598
v 0.640970 0.000765 0.753481
v 0.653284 0.038006 0.789718
v 0.713490 0.000765 0.413724
v 0.731005 0.042457 0.377531
v 0.842943 0.000765 0.509389
v 0.881727 0.045522 0.499507
v 0.405821 0.000765 -1.124905
v 0.370906 0.036966 -1.141944
v 0.516030 0.000765 -1.226502
v 0.501893 0.036966 -1.262696
v 0.486562 0.000765 -0.916279
v 0.470476 0.036966 -0.880084
v 0.396839 0.000765 -1.015663
v 0.359484 0.036966 -1.003037
v 0.736456 0.000765 -1.008994
v 0.775367 0.036966 -0.999625
v 0.661866 0.000765 -0.916279
v 0.679201 0.036966 -0.880084
v 0.586624 0.000765 -1.226502
v 0.599478 0.036966 -1.262696
v 0.712547 0.000765 -1.124142
v 0.745368 0.036966 -1.144106
v 0.311864 0.488627 -0.062666
v 0.000000 0.458270 -0.071775
v 0.531652 0.545092 -0.066496
v 0.517018 0.564014 -0.541565
v 0.269352 0.894320 1.349186
v 0.232293 0.980067 1.485846
v 0.207422 1.591109 1.490741
v 0.213852 1.693563 1.339659
v 0.000000 1.664689 1.527973
v 0.000000 1.712239 1.383881
v 0.000000 0.873219 1.363526
v 0.000000 0.962864 1.497602
v 0.404244 1.406875 1.458830
v 0.502674 1.435064 1.312764
v 0.356202 1.619784 1.302638
v 0.331549 1.552483 1.475527
v 0.340272 1.055111 1.469712
v 0.421184 0.995434 1.332419
v 0.505136 1.201007 1.311773
v 0.403738 1.205159 1.457829
v 0.174988 1.087278 1.698120
v 0.162976 1.149939 1.743694
v 0.157350 1.527306 1.769880
v 0.164660 1.573125 1.729192
v 0.000000 1.602978 1.780418
v 0.000000 1.648194 1.740933
v 0.000000 1.067915 1.705189
v 0.000000 1.130753 1.750678
v 0.247372 1.447701 1.750470
v 0.324555 1.418009 1.696502
v 0.268506 1.527825 1.712915
v 0.228448 1.494210 1.752464
v 0.229324 1.202127 1.731122
v 0.269242 1.158697 1.689458
v 0.324398 1.274814 1.686590
v 0.267425 1.285787 1.736773
v 0.325860 1.844671 1.116217
v 0.335602 1.721160 1.143296
v 0.426635 1.717921 1.107279
v 0.412713 1.845394 1.073256
v 0.232813 1.847297 1.276742
v 0.451614 1.773688 1.078526
v 0.586973 1.729801 1.043657
v 0.302648 1.788184 1.141150
v 0.000000 1.863467 1.333988
v 0.424035 1.900909 1.114609
v 0.366173 1.860540 1.091729
v 0.380950 1.703684 1.129815
v 0.536252 1.647415 1.167714
v 0.379544 1.788577 1.127670
v 0.506252 2.058016 0.965644
v 0.308215 1.682552 1.217655
v 0.402012 1.681629 1.172854
v 0.000000 2.266854 0.999374
v 0.000000 2.318068 0.876962
v 0.291832 2.191545 0.921173
v 0.228454 2.250181 0.831524
v 0.747218 2.018690 0.753814
v 0.678387 2.031797 0.817861
v 0.859525 2.652718 0.966120
v 0.875521 2.798006 0.950874
v 0.935925 2.609204 0.951487
v 1.041460 2.699677 0.934859
v 0.893809 2.275179 0.751240
v 0.806593 2.270566 0.810851
v 0.339263 2.457009 0.795722
v 0.404864 2.402189 0.856372
v 0.160791 1.407711 1.716735
v 0.161915 1.321436 1.710313
v 0.216622 1.412474 1.701544
v 0.226114 1.322796 1.693360
v -0.319583 0.841730 1.261391
v -0.266185 1.975046 1.200036
v -0.235536 2.323270 0.487170
v -0.672944 1.207336 1.170793
v -0.541602 0.949551 1.211289
v -1.006125 1.205831 0.396731
v -0.936577 1.249390 0.730975
v -0.976964 1.634057 0.376087
v -0.805110 2.119503 0.378894
v -0.611175 1.460354 1.191177
v -0.892630 1.585271 0.753335
v -0.881366 2.858226 0.921507
v -1.061217 2.756186 0.903885
v -0.284062 1.334743 -1.512496
v -0.306926 1.925152 -1.441282
v -0.578740 1.423663 -1.452755
v -0.581403 1.726539 -1.439135
v -0.532405 1.910751 -1.402354
v -0.445138 2.406493 -0.560427
v -0.415753 2.141783 -1.262175
v -0.450839 2.331053 -0.935282
v -0.300056 0.499308 -0.564542
v -0.875744 1.450333 -1.332182
v -1.012763 1.281820 -0.489187
v -0.986367 1.392036 -0.903025
v -0.830994 0.773811 -0.502597
v -0.704791 2.011948 -1.231107
v -0.835373 2.217005 -0.480731
v -0.807709 2.154845 -0.861351
v -1.009990 1.741299 -0.465622
v -0.836282 1.781597 -1.303954
v -0.968085 1.756509 -0.879099
v -0.978995 2.371835 0.554945
v -0.355861 2.534903 0.623599
v -0.487746 0.616606 -0.815747
v -0.920331 0.983129 -0.497475
v -0.288046 1.728306 -1.507732
v -0.526186 0.527351 0.353524
v -0.393235 0.503087 0.465214
v -0.375112 0.561698 0.762224
v -0.503174 0.652602 0.880503
v -0.933340 0.708440 0.467771
v -0.747867 0.615186 0.357187
v -0.963637 0.907007 0.419655
v -0.664293 0.730074 0.877378
v -0.888526 0.775380 0.752897
v -0.912735 0.957511 0.737244
v -0.668369 0.868102 1.039108
v -0.445068 0.764285 -1.314950
v -0.335697 0.744180 -1.183396
v -0.213862 0.800400 -1.305074
v -0.292351 0.966044 -1.402320
v -0.362004 0.611325 -0.922526
v -0.841085 0.837054 -0.957770
v -0.695260 0.653138 -0.517626
v -0.768382 0.845067 -1.215432
v -0.584813 0.820585 -1.327209
v -0.575264 1.134848 -1.420833
v -0.832084 1.176447 -1.293817
v -0.697750 0.720776 -0.828056
v -0.940471 1.128905 -0.934628
v -0.744904 0.351441 0.375978
v -0.895487 0.356598 0.497244
v -0.535435 0.342548 0.376930
v -0.396089 0.334700 0.513407
v -0.858542 0.353386 0.668828
v -0.659545 0.346905 0.788338
v -0.511539 0.340090 0.789185
v -0.389318 0.334289 0.669326
v -0.370932 0.340967 -1.141996
v -0.502359 0.342147 -1.263950
v -0.359491 0.340924 -1.003122
v -0.470478 0.341090 -0.880171
v -0.600180 0.343203 -1.264836
v -0.746301 0.346049 -1.148061
v -0.776099 0.347037 -1.003910
v -0.679455 0.344975 -0.882597
v -0.409316 0.725022 1.044844
v -0.292913 2.125995 1.071651
v -0.591898 1.847669 1.020653
v -0.795034 1.512895 1.026694
v -0.809600 1.224406 0.977320
v -0.158188 1.283715 1.764780
v -0.159680 1.445037 1.772588
v -0.402644 2.369630 -0.040990
v -0.824408 2.190258 -0.051301
v -1.012237 1.207689 -0.043457
v -1.000748 1.679490 -0.036127
v -0.930910 0.924083 -0.040022
v -0.705331 0.625360 -0.070505
v -0.840904 0.724676 -0.067430
v -0.527981 0.000765 0.753482
v -0.511245 0.032922 0.789776
v -0.434560 0.000765 0.655158
v -0.396388 0.029255 0.668944
v -0.441010 0.000765 0.527438
v -0.404294 0.029990 0.512384
v -0.549090 0.000765 0.413830
v -0.532968 0.035113 0.377668
v -0.816358 0.000765 0.651199
v -0.849322 0.043630 0.670598
v -0.640970 0.000765 0.753481
v -0.653284 0.038006 0.789718
v -0.713490 0.000765 0.413724
v -0.731005 0.042457 0.377531
v -0.842943 0.000765 0.509389
v -0.881727 0.045522 0.499507
v -0.405821 0.000765 -1.124905
v -0.370906 0.036966 -1.141944
v -0.516030 0.000765 -1.226502
v -0.501893 0.036966 -1.262696
v -0.486562 0.000765 -0.916279
v -0.470476 0.036966 -0.880084
v -0.396839 0.000765 -1.015663
v -0.359484 0.036966 -1.003037
v -0.736456 0.000765 -1.008994
v -0.775367 0.036966 -0.999625
v -0.661866 0.000765 -0.916279
v -0.679201 0.036966 -0.880084
v -0.586624 0.000765 -1.226502
v -0.599478 0.036966 -1.262696
v -0.712547 0.000765 -1.124142
v -0.745368 0.036966 -1.144106
v -0.311864 0.488627 -0.062666
v -0.531652 0.545092 -0.066496
v -0.517018 0.564014 -0.541565
v -0.269352 0.894320 1.349186
v -0.232293 0.980067 1.485846
v -0.207422 1.591109 1.490741
v -0.213852 1.693563 1.339659
v -0.404244 1.406875 1.458830
v -0.502674 1.435064 1.312764
v -0.356202 1.619784 1.302638
v -0.331549 1.552483 1.475527
v -0.340272 1.055111 1.469712
v -0.421184 0.995434 1.332419
v -0.505136 1.201007 1.311773
v -0.403738 1.205159 1.457829
v -0.174988 1.087278 1.698120
v -0.162976 1.149939 1.743694
v -0.157350 1.527306 1.769880
v -0.164660 1.573125 1.729192
v -0.247372 1.447701 1.750470
v -0.324555 1.418009 1.696502
v -0.268506 1.527825 1.712915
v -0.228448 1.494210 1.752464
v -0.229324 1.202127 1.731122
v -0.269242 1.158697 1.689458
v -0.324398 1.274814 1.686590
v -0.267425 1.285787 1.736773
v -0.325860 1.844671 1.116217
v -0.335602 1.721160 1.143296
v -0.426635 1.717921 1.107279
v -0.412713 1.845394 1.073256
v -0.232813 1.847297 1.276742
v -0.451614 1.773688 1.078526
v -0.586973 1.729801 1.043657
v -0.302648 1.788184 1.141150
v -0.424035 1.900909 1.114609
v -0.366173 1.860540 1.091729
v -0.380950 1.703684 1.129815
v -0.536252 1.647415 1.167714
v -0.379544 1.788577 1.127670
v -0.506252 2.058016 0.965644
v -0.308215 1.682552 1.217655
v -0.402012 1.681629 1.172854
v -0.291832 2.191545 0.921173
v -0.228454 2.250181 0.831524
v -0.747218 2.018690 0.753814
v -0.678387 2.031797 0.817861
v -0.859525 2.652718 0.966120
v -0.875521 2.798006 0.950874
v -0.935925 2.609204 0.951487
v -1.041460 2.699677 0.934859
v -0.893809 2.275179 0.751240
v -0.806593 2.270566 0.810851
v -0.339263 2.457009 0.795722
v -0.404864 2.402189 0.856372
v -0.160791 1.407711 1.716735
v -0.161915 1.321436 1.710313
v -0.216622 1.412474 1.701544
v -0.226114 1.322796 1.693360
v 0.000000 1.560169 -1.511592
v 0.135453 1.730876 -1.496487
v -0.182053 1.718796 -1.502935
v -0.124924 1.600070 -1.517786
v 0.000000 1.841138 -1.453753
v -0.139333 1.791681 -1.475301
v 0.099769 1.798882 -1.479204
v 0.022342 1.886613 -1.517207
v -0.028005 1.837193 -1.615883
v -0.140583 1.907243 -1.533529
v -0.169484 1.870110 -1.622104
v 0.075576 1.957564 -1.557976
v 0.038759 1.950058 -1.661662
v 0.016663 2.049989 -1.570927
v -0.009452 2.050805 -1.669281
v 0.162096 1.889478 -1.629252
v 0.134819 1.899268 -1.723104
v 0.235391 1.958562 -1.617711
v 0.212180 1.969804 -1.715227
v 0.117041 1.710294 -1.726994
v 0.097546 1.742428 -1.807558
v 0.207929 1.655655 -1.722584
v 0.188246 1.686708 -1.814412
v -0.040154 1.674571 -1.782898
v -0.052063 1.715455 -1.865743
v -0.073704 1.580839 -1.799840
v -0.084703 1.626223 -1.898275
v -0.104610 1.814772 -1.796805
v -0.114845 1.835737 -1.884422
v -0.204701 1.819744 -1.799254
v -0.208214 1.842085 -1.887804
v 0.001359 1.922869 -1.818381
v -0.025546 1.935014 -1.901008
v -0.027628 2.015724 -1.804478
v -0.050911 2.022352 -1.885061
v 0.113733 1.911067 -1.862819
v 0.092293 1.925485 -1.933817
v 0.175401 1.959825 -1.860262
v 0.154376 1.969659 -1.937422
v 0.100016 1.835214 -1.931891
v 0.093320 1.860821 -1.995223
v 0.155633 1.782607 -1.959581
v 0.150348 1.810263 -2.025887
v -0.018720 1.820132 -1.990025
v -0.010119 1.846863 -2.049635
v -0.046523 1.744915 -2.043873
v -0.038924 1.773460 -2.104325
v -0.084092 1.919386 -2.007040
v -0.074430 1.935022 -2.061438
v -0.151558 1.904544 -2.031561
v -0.140618 1.919775 -2.085725
v -0.116118 2.061997 -2.019639
v -0.072837 2.063190 -2.008542
v -0.069395 2.066798 -2.046277
v -0.111877 2.065586 -2.056474
v -0.126614 1.805311 -1.491873
v 0.056990 1.813880 -1.497724
v 0.059751 1.664273 -1.553982
v -0.098378 1.647117 -1.566236
v -0.051691 1.905042 -1.507813
v 0.025706 1.856883 -1.564431
v -0.106174 1.845537 -1.636548
v -0.183571 1.893697 -1.579930
v 0.036596 1.932506 -1.534330
v -0.011392 1.910468 -1.638624
v -0.084656 1.991401 -1.551671
v -0.118043 1.982531 -1.646365
v 0.126012 1.944763 -1.588878
v 0.095669 1.946182 -1.688841
v 0.138643 2.042794 -1.589113
v 0.115560 2.048504 -1.688471
v 0.160089 1.798301 -1.678965
v 0.136445 1.819068 -1.765144
v 0.263156 1.807369 -1.666229
v 0.240990 1.827306 -1.759776
v 0.040581 1.665398 -1.762079
v 0.024936 1.705609 -1.842158
v 0.076147 1.572460 -1.770668
v 0.059935 1.614374 -1.866080
v -0.094177 1.734628 -1.791914
v -0.102928 1.766785 -1.877903
v -0.178012 1.679998 -1.805189
v -0.182548 1.716364 -1.900258
v -0.065270 1.882100 -1.805083
v -0.084084 1.896606 -1.891526
v -0.141976 1.943145 -1.796856
v -0.154713 1.955188 -1.880300
v 0.067608 1.930897 -1.837128
v 0.040667 1.942814 -1.914048
v 0.090682 2.016977 -1.825632
v 0.065123 2.022624 -1.904992
v 0.125153 1.873128 -1.895942
v 0.110622 1.893139 -1.962360
v 0.197962 1.868945 -1.906597
v 0.184448 1.887889 -1.978583
v 0.044139 1.815027 -1.964945
v 0.046025 1.842994 -2.026333
v 0.059927 1.736817 -2.011072
v 0.061938 1.767571 -2.073864
v -0.064276 1.854692 -2.003520
v -0.053286 1.877042 -2.060684
v -0.120996 1.808461 -2.045526
v -0.110134 1.831211 -2.103213
v 0.052019 2.004403 -1.545510
v 0.203477 1.922049 -1.605541
v 0.166158 1.677051 -1.708627
v -0.054782 1.619617 -1.774374
v -0.153366 1.813198 -1.781514
v -0.008430 1.967537 -1.796129
v 0.148548 1.933173 -1.847650
v 0.128948 1.803917 -1.933583
v -0.034140 1.777342 -2.005693
v -0.119756 1.909071 -2.009122
v 0.067211 1.935701 -1.607891
v 0.134333 1.881284 -1.677998
v 0.090270 1.736707 -1.767047
v -0.039903 1.712166 -1.819682
v -0.091590 1.824193 -1.840067
v -0.006998 1.912049 -1.862493
v 0.091411 1.909564 -1.898220
v 0.086107 1.857690 -1.958087
v -0.009112 1.847431 -2.009655
v -0.066731 1.930025 -2.029663
v 0.008754 1.999805 -1.684413
v 0.168766 1.936507 -1.737106
v 0.139223 1.720492 -1.827146
v -0.070531 1.678927 -1.899004
v -0.162818 1.842971 -1.902629
v -0.042934 1.980443 -1.908335
v 0.119353 1.949845 -1.949510
v 0.120711 1.840536 -2.022709
v -0.023003 1.815344 -2.088236
v -0.105592 1.930293 -2.083759
v -0.006438 2.068507 -1.622033
v 0.237909 1.977273 -1.664649
v 0.215112 1.660836 -1.768727
v -0.085409 1.586378 -1.853696
v -0.224594 1.831976 -1.844076
v -0.044365 2.035931 -1.841971
v 0.176490 1.973454 -1.898940
v 0.163551 1.786764 -1.998205
v -0.048030 1.745255 -2.084275
v -0.158618 1.909339 -2.063219
v -0.091318 2.073994 -2.009176
v -0.063928 2.076635 -2.025281
v -0.087198 2.077531 -2.054269
v -0.114588 2.074889 -2.038164
v -0.073229 2.012640 -2.055232
v -0.079492 2.004482 -2.005481
v -0.140266 2.002051 -2.021263
v -0.132557 2.010069 -2.069672
v -0.041039 1.820862 -1.476946
v 0.086872 1.746512 -1.526395
v -0.018501 1.629672 -1.571581
v -0.159896 1.717983 -1.539979
v -0.141364 1.837224 -1.519825
v 0.037969 1.838264 -1.505247
v -0.143605 1.746119 -1.598984
v 0.005141 1.745735 -1.589241
v -0.016401 1.964852 -1.524345
v 0.137336 1.993110 -1.570309
v 0.215917 1.799018 -1.655747
v 0.061351 1.611230 -1.749922
v -0.134849 1.700889 -1.781577
v -0.100665 1.910133 -1.785043
v 0.084067 1.972291 -1.816729
v 0.164187 1.867384 -1.888294
v 0.051667 1.770417 -1.976367
v -0.094684 1.827348 -2.013755
v 0.033967 1.909210 -1.584126
v 0.107792 1.926690 -1.638872
v 0.128803 1.807062 -1.723752
v 0.026143 1.702770 -1.799071
v -0.083228 1.760555 -1.831568
v -0.060864 1.878138 -1.850129
v 0.049682 1.921304 -1.877514
v 0.104140 1.884018 -1.926632
v 0.042110 1.843414 -1.986858
v -0.048134 1.874498 -2.024177
v -0.072346 1.943602 -1.661150
v 0.100606 1.998012 -1.707342
v 0.184423 1.827003 -1.779310
v 0.039449 1.667690 -1.870571
v -0.143984 1.747999 -1.906055
v -0.122356 1.928386 -1.901840
v 0.047973 1.984366 -1.924171
v 0.144906 1.894166 -1.983447
v 0.054347 1.810788 -2.061741
v -0.079662 1.858354 -2.092716
v -0.122715 1.999243 -1.601369
v 0.130150 2.064432 -1.638779
v 0.271537 1.818959 -1.711305
v 0.074657 1.576151 -1.821422
v -0.195604 1.688333 -1.856064
v -0.162157 1.960382 -1.836754
v 0.082359 2.035353 -1.863385
v 0.204952 1.877532 -1.945110
v 0.063904 1.737791 -2.051249
v -0.126212 1.811205 -2.082294
v -0.064920 2.010181 -2.027426
v -0.082335 2.099623 -2.029602
v -0.147202 2.006681 -2.048198
v -0.110806 2.002960 -2.004083
v -0.101316 2.013903 -2.071541
v -0.048410 1.854960 -1.497240
v -0.173242 1.791610 -1.561684
v 0.052312 1.792061 -1.544964
v -0.072520 1.728711 -1.609408
v 0.104524 1.605980 -1.517801
f 39 70 75 69
f 7 4 188 184
f 149 160 177 164
f 9 162 161 10
f 30 33 22 21
f 173 156 159 174
f 40 44 24 25
f 2 6 148 154
f 191 181 195 196
f 106 104 8 14
f 3 53 54 56
f 98 99 12 16
f 6 10 161 148
f 163 156 173 178
f 60 54 83 82
f 16 12 11 13
f 78 127 125 77
f 199 197 96 95
f 95 96 4 7
f 27 35 144 145
f 33 40 25 22
f 189 7 180 190
f 181 187 184 195
f 68 65 85 87
f 201 14 46 207
f 107 11 59 109
f 107 108 13 11
f 9 15 157 162
f 44 36 23 24
f 46 47 17 18
f 18 17 204 206
f 207 46 18 206
f 106 14 13 108
f 10 63 99 9
f 69 76 49 39
f 104 105 5 8
f 51 58 77 79
f 71 69 91 90
f 67 55 20 19
f 29 32 34 31
f 31 34 33 30
f 36 74 73 23
f 117 80 79 119
f 44 40 42 45
f 45 42 41 43
f 36 44 45 38
f 38 45 43 37
f 75 48 88 92
f 92 139 137 91
f 32 41 42 34
f 34 42 40 33
f 64 72 89 86
f 201 97 186 16
f 194 202 199
f 14 8 47 46
f 47 209 204 17
f 116 126 120 114
f 133 88 87 135
f 136 134 128 142
f 86 89 141 131
f 82 123 121 81
f 84 80 117 115
f 90 143 141 89
f 1 52 53 3
f 57 61 81 78
f 62 59 11 12
f 35 147 146 144
f 35 27 28 68
f 71 74 76 69
f 73 67 19 23
f 68 28 26 66 65
f 50 398 403 22
f 24 50 22 25
f 19 605 398 50
f 23 19 50 24
f 54 60 63 94
f 60 61 62 63
f 64 65 66 67
f 110 70 39 111
f 71 72 73 74
f 87 85 129 135
f 88 48 68 87
f 86 131 129 85
f 80 52 51 79
f 78 81 121 127
f 90 91 137 143
f 82 83 113 123
f 57 78 77 58
f 79 77 125 119
f 60 82 81 61
f 53 84 83 54
f 64 86 85 65
f 92 88 133 139
f 71 90 89 72
f 75 92 91 69
f 53 52 80 84
f 49 76 38 37
f 109 59 57 111
f 76 74 36 38
f 59 62 61 57
f 75 70 147 48
f 55 67 66 26
f 56 54 94 93
f 67 73 72 64
f 201 202 97
f 94 63 10 6
f 93 94 6 2
f 14 201 16 13
f 8 200 209 47
f 15 9 99 98
f 99 63 62 12
f 163 178 177 160
f 159 150 167 174
f 150 152 169 167
f 49 109 111 39
f 58 110 111 57
f 32 29 105 104
f 41 106 108 43
f 37 43 108 107
f 37 107 109 49
f 41 32 104 106
f 130 128 129 131
f 126 124 125 127
f 142 140 141 143
f 122 120 121 123
f 138 136 137 139
f 114 112 113 115
f 118 116 117 119
f 134 132 133 135
f 116 114 115 117
f 119 125 124 118
f 127 121 120 126
f 123 113 112 122
f 143 137 136 142
f 139 133 132 138
f 135 129 128 134
f 131 141 140 130
f 84 115 113 83
f 68 48 147 35
f 144 146 51 52
f 145 144 52 1
f 146 147 70 110
f 51 146 110 58
f 151 153 152 150
f 154 148 149 155
f 161 162 163 160
f 157 158 159 156
f 162 157 156 163
f 150 159 158 151
f 148 161 160 149
f 155 149 164 170
f 97 183 185 186
f 7 189 194 95
f 184 187 180 7
f 186 185 182 192
f 184 188 153 151
f 97 189 190 183
f 182 191 196 192
f 194 189 97
f 16 186 98
f 192 158 157 15
f 192 15 98 186
f 195 184 151 158
f 196 195 158 192
f 197 199 200 198
f 8 5 198 200
f 199 95 194
f 97 202 194
f 114 120 122 112
f 126 116 118 124
f 134 136 138 132
f 142 128 130 140
f 240 268 274 269
f 216 369 188 4
f 342 353 362 349
f 218 219 350 351
f 30 21 229 234
f 358 359 348 345
f 241 232 231 245
f 2 154 341 215
f 375 380 379 366
f 300 223 217 299
f 3 56 255 254
f 295 225 221 296
f 215 341 350 219
f 352 363 358 345
f 259 281 282 255
f 225 222 220 221
f 277 276 319 321
f 381 293 96 197
f 293 216 4 96
f 27 145 338 236
f 234 229 232 241
f 373 374 365 216
f 366 379 369 372
f 267 286 284 264
f 383 389 247 223
f 301 303 258 220
f 301 220 222 302
f 218 351 346 224
f 245 231 230 237
f 247 227 226 248
f 227 388 386 226
f 389 388 227 247
f 300 302 222 223
f 219 218 296 262
f 268 240 250 275
f 299 217 5 105
f 252 278 276 257
f 270 289 290 268
f 266 228 20 55
f 29 31 235 233
f 31 30 234 235
f 237 230 272 273
f 311 313 278 279
f 245 246 243 241
f 246 244 242 243
f 237 239 246 245
f 239 238 244 246
f 274 291 287 249
f 291 290 331 333
f 233 235 243 242
f 235 234 241 243
f 263 285 288 271
f 383 225 371 294
f 378 381 384
f 223 247 248 217
f 248 226 386 391
f 310 308 314 320
f 327 329 286 287
f 330 336 322 328
f 285 325 335 288
f 281 280 315 317
f 283 309 311 279
f 289 288 335 337
f 1 3 254 253
f 256 277 280 260
f 261 221 220 258
f 236 338 339 340
f 236 267 28 27
f 270 268 275 273
f 272 230 228 266
f 267 264 265 26 28
f 251 229 402 399
f 231 232 229 251
f 228 251 399 400
f 230 231 251 228
f 255 292 262 259
f 259 262 261 260
f 263 266 265 264
f 304 305 240 269
f 270 273 272 271
f 286 329 323 284
f 287 286 267 249
f 285 284 323 325
f 279 278 252 253
f 277 321 315 280
f 289 337 331 290
f 281 317 307 282
f 256 257 276 277
f 278 313 319 276
f 259 260 280 281
f 254 255 282 283
f 263 264 284 285
f 291 333 327 287
f 270 271 288 289
f 274 268 290 291
f 254 283 279 253
f 250 238 239 275
f 303 305 256 258
f 275 239 237 273
f 258 256 260 261
f 274 249 340 269
f 55 26 265 266
f 56 93 292 255
f 266 263 271 272
f 383 294 384
f 292 215 219 262
f 93 2 215 292
f 223 222 225 383
f 217 248 391 382
f 224 295 296 218
f 296 221 261 262
f 352 349 362 363
f 348 359 356 343
f 343 356 169 152
f 250 240 305 303
f 257 256 305 304
f 233 299 105 29
f 242 244 302 300
f 238 301 302 244
f 238 250 303 301
f 242 300 299 233
f 324 325 323 322
f 320 321 319 318
f 336 337 335 334
f 316 317 315 314
f 332 333 331 330
f 308 309 307 306
f 312 313 311 310
f 328 329 327 326
f 310 311 309 308
f 313 312 318 319
f 321 320 314 315
f 317 316 306 307
f 337 336 330 331
f 333 332 326 327
f 329 328 322 323
f 325 324 334 335
f 283 282 307 309
f 267 236 340 249
f 338 253 252 339
f 145 1 253 338
f 339 304 269 340
f 252 257 304 339
f 344 343 152 153
f 154 155 342 341
f 350 349 352 351
f 346 345 348 347
f 351 352 345 346
f 343 344 347 348
f 341 342 349 350
f 155 170 353 342
f 294 371 370 368
f 216 293 378 373
f 369 216 365 372
f 371 376 367 370
f 369 344 153 188
f 294 368 374 373
f 367 376 380 375
f 378 294 373
f 225 295 371
f 376 224 346 347
f 376 371 295 224
f 379 347 344 369
f 380 376 347 379
f 197 198 382 381
f 217 382 198 5
f 381 378 293
f 294 378 384
f 308 306 316 314
f 320 318 312 310
f 328 326 332 330
f 336 334 324 322
f 402 229 21 401
f 548 402 401
f 453 401 403
f 549 403 398
f 406 456 556 462
f 456 404 460 556
f 556 460 408 500
f 462 556 500 410
f 410 500 557 466
f 500 408 464 557
f 557 464 412 501
f 466 557 501 414
f 414 501 558 470
f 501 412 468 558
f 558 468 416 502
f 470 558 502 418
f 418 502 559 474
f 502 416 472 559
f 559 472 420 503
f 474 559 503 422
f 422 503 560 478
f 503 420 476 560
f 560 476 424 504
f 478 560 504 426
f 426 504 561 482
f 504 424 480 561
f 561 480 428 505
f 482 561 505 430
f 430 505 562 486
f 505 428 484 562
f 562 484 432 506
f 486 562 506 434
f 434 506 563 490
f 506 432 488 563
f 563 488 436 507
f 490 563 507 438
f 438 507 564 494
f 507 436 492 564
f 564 492 440 508
f 494 564 508 442
f 442 508 565 498
f 508 440 496 565
f 565 496 444 509
f 498 565 509 446
f 404 457 566 460
f 457 405 461 566
f 566 461 409 510
f 460 566 510 408
f 408 510 567 464
f 510 409 465 567
f 567 465 413 511
f 464 567 511 412
f 412 511 568 468
f 511 413 469 568
f 568 469 417 512
f 468 568 512 416
f 416 512 569 472
f 512 417 473 569
f 569 473 421 513
f 472 569 513 420
f 420 513 570 476
f 513 421 477 570
f 570 477 425 514
f 476 570 514 424
f 424 514 571 480
f 514 425 481 571
f 571 481 429 515
f 480 571 515 428
f 428 515 572 484
f 515 429 485 572
f 572 485 433 516
f 484 572 516 432
f 432 516 573 488
f 516 433 489 573
f 573 489 437 517
f 488 573 517 436
f 436 517 574 492
f 517 437 493 574
f 574 493 441 518
f 492 574 518 440
f 440 518 575 496
f 518 441 497 575
f 575 497 445 519
f 496 575 519 444
f 405 458 576 461
f 458 407 463 576
f 576 463 411 520
f 461 576 520 409
f 409 520 577 465
f 520 411 467 577
f 577 467 415 521
f 465 577 521 413
f 413 521 578 469
f 521 415 471 578
f 578 471 419 522
f 469 578 522 417
f 417 522 579 473
f 522 419 475 579
f 579 475 423 523
f 473 579 523 421
f 421 523 580 477
f 523 423 479 580
f 580 479 427 524
f 477 580 524 425
f 425 524 581 481
f 524 427 483 581
f 581 483 431 525
f 481 581 525 429
f 429 525 582 485
f 525 431 487 582
f 582 487 435 526
f 485 582 526 433
f 433 526 583 489
f 526 435 491 583
f 583 491 439 527
f 489 583 527 437
f 437 527 584 493
f 527 439 495 584
f 584 495 443 528
f 493 584 528 441
f 441 528 585 497
f 528 443 499 585
f 585 499 447 529
f 497 585 529 445
f 407 459 586 463
f 459 406 462 586
f 586 462 410 530
f 463 586 530 411
f 411 530 587 467
f 530 410 466 587
f 587 466 414 531
f 467 587 531 415
f 415 531 588 471
f 531 414 470 588
f 588 470 418 532
f 471 588 532 419
f 419 532 589 475
f 532 418 474 589
f 589 474 422 533
f 475 589 533 423
f 423 533 590 479
f 533 422 478 590
f 590 478 426 534
f 479 590 534 427
f 427 534 591 483
f 534 426 482 591
f 591 482 430 535
f 483 591 535 431
f 431 535 592 487
f 535 430 486 592
f 592 486 434 536
f 487 592 536 435
f 435 536 593 491
f 536 434 490 593
f 593 490 438 537
f 491 593 537 439
f 439 537 594 495
f 537 438 494 594
f 594 494 442 538
f 495 594 538 443
f 443 538 595 499
f 538 442 498 595
f 595 498 446 539
f 499 595 539 447
f 444 519 596 545
f 519 445 544 596
f 596 544 450 541
f 545 596 541 449
f 448 540 597 543
f 540 449 541 597
f 597 541 450 542
f 543 597 542 451
f 447 539 598 547
f 539 446 546 598
f 598 546 448 543
f 547 598 543 451
f 446 509 599 546
f 509 444 545 599
f 599 545 449 540
f 546 599 540 448
f 445 529 600 544
f 529 447 547 600
f 600 547 451 542
f 544 600 542 450
f 404 456 601 553
f 456 406 552 601
f 601 552 452 548
f 553 601 548 453
f 406 459 602 552
f 459 407 554 602
f 602 554 455 551
f 552 602 551 452
f 405 457 603 555
f 457 404 553 603
f 603 553 453 549
f 555 603 549 454
f 407 458 604 554
f 458 405 555 604
f 604 555 454 550
f 554 604 550 455
f 452 551 399 402
f 605 454 549 398
f 551 455 400 399
f 455 550 397 400
f 548 452 402
f 453 548 401
f 549 453 403
f 22 403 401 21
f 454 605 397 550
f 400 397 20 228
f 605 19 20 397
f 172 102 211 213
f 190 193 185 183
f 193 187 181 191
f 185 193 191 182
f 180 187 193 190
f 212 214 213 211
f 102 100 212 211
f 100 179 214 212
f 179 172 213 214
f 357 395 393 298
f 374 368 370 377
f 377 375 366 372
f 370 367 375 377
f 365 374 377 372
f 394 393 395 396
f 298 393 394 297
f 297 394 396 364
f 364 396 395 357
f 103 102 166 168
f 176 179 100 165
f 102 172 175 166
f 210 208 205 203
f 101 100 102 103
f 165 100 101 171
f 167 169 168 166
f 170 164 165 171
f 179 176 177 178
f 175 172 173 174
f 172 179 178 173
f 166 175 174 167
f 176 165 164 177
f 199 202 208 210
f 203 205 206 204
f 208 202 201 207
f 210 203 204 209
f 205 208 207 206
f 199 210 209 200
f 103 168 355 298
f 361 354 297 364
f 298 355 360 357
f 392 385 387 390
f 101 103 298 297
f 354 171 101 297
f 356 355 168 169
f 170 171 354 353
f 364 363 362 361
f 360 359 358 357
f 357 358 363 364
f 355 356 359 360
f 361 362 353 354
f 381 392 390 384
f 385 386 388 387
f 390 389 383 384
f 392 391 386 385
f 387 388 389 390
f 381 382 391 392
