# Pingy - Waving Pose (Flipped Normals on ALL Limbs)

# --- VERTICES (72 Total) ---

# Body Box (1-8)
v -1.2 -0.5 0.6
v 1.2 -0.5 0.6
v 1.2 1.5 0.6
v -1.2 1.5 0.6
v -1.2 -0.5 -0.6
v 1.2 -0.5 -0.6
v 1.2 1.5 -0.6
v -1.2 1.5 -0.6

# --- LEFT ARM (Neutral) ---
v -1.2 0.7 0.0
v -1.2 0.5 0.2
v -1.2 0.3 0.0
v -1.2 0.5 -0.2
v -2.0 0.2 0.3
v -1.9 0.0 0.5
v -2.1 -0.2 0.3
v -2.1 0.0 0.1
v -2.6 -0.3 0.5
v -2.5 -0.5 0.7
v -2.7 -0.7 0.5
v -2.7 -0.5 0.3
v -2.8 -0.5 0.6
v -2.6 -0.8 0.9
v -3.0 -1.1 0.6
v -3.0 -0.8 0.3

# --- RIGHT ARM (Raised & Waving) ---
# Shoulder (25-28)
v 1.2 0.7 0.0
v 1.2 0.5 0.2
v 1.2 0.3 0.0
v 1.2 0.5 -0.2
# Elbow (29-32) - Angled up
v 1.8 1.7 0.3
v 1.7 1.5 0.5
v 1.9 1.3 0.3
v 1.9 1.5 0.1
# Wrist (33-36) - Reaching high
v 2.1 2.7 0.5
v 2.0 2.5 0.7
v 2.2 2.3 0.5
v 2.2 2.5 0.3
# Hand (37-40)
v 2.3 3.0 0.6
v 2.1 2.7 0.9
v 2.5 2.4 0.6
v 2.5 2.7 0.3

# --- LEFT LEG (Neutral) ---
v -0.4 -0.5 0.2
v -0.6 -0.5 0.4
v -0.8 -0.5 0.2
v -0.6 -0.5 0.0
v -0.7 -1.1 0.7
v -0.9 -1.2 0.9
v -1.1 -1.3 0.7
v -0.9 -1.2 0.5
v -0.9 -1.7 1.1
v -1.1 -1.8 1.3
v -1.3 -1.9 1.1
v -1.1 -1.8 0.9
v -0.9 -1.9 1.3
v -1.2 -2.1 1.6
v -1.5 -2.3 1.3
v -1.2 -2.1 1.0

# --- RIGHT LEG (Neutral) ---
v 0.4 -0.5 0.2
v 0.6 -0.5 0.4
v 0.8 -0.5 0.2
v 0.6 -0.5 0.0
v 0.7 -1.1 0.7
v 0.9 -1.2 0.9
v 1.1 -1.3 0.7
v 0.9 -1.2 0.5
v 0.9 -1.7 1.1
v 1.1 -1.8 1.3
v 1.3 -1.9 1.1
v 1.1 -1.8 0.9
v 0.9 -1.9 1.3
v 1.2 -2.1 1.6
v 1.5 -2.3 1.3
v 1.2 -2.1 1.0

# --- FACES (Triangles) ---
# Body (Original Normals)
f 1 2 3
f 1 3 4
f 6 5 8
f 6 8 7
f 5 1 4
f 5 4 8
f 2 6 7
f 2 7 3
f 4 3 7
f 4 7 8
f 5 6 2
f 5 2 1
# Left Arm (Inverted Normals)
f 14 10 9
f 13 14 9
f 15 11 10
f 14 15 10
f 16 12 11
f 15 16 11
f 13 9 12
f 16 13 12
f 18 14 13
f 17 18 13
f 19 15 14
f 18 19 14
f 20 16 15
f 19 20 15
f 17 13 16
f 20 17 16
f 22 18 17
f 21 22 17
f 23 19 18
f 22 23 18
f 24 20 19
f 23 24 19
f 21 17 20
f 24 21 20
f 23 22 21
f 24 23 21
# Right Arm (Inverted Normals)
f 30 26 25
f 29 30 25
f 31 27 26
f 30 31 26
f 32 28 27
f 31 32 27
f 29 25 28
f 32 29 28
f 34 30 29
f 33 34 29
f 35 31 30
f 34 35 30
f 36 32 31
f 35 36 31
f 33 29 32
f 36 33 32
f 38 34 33
f 37 38 33
f 39 35 34
f 38 39 34
f 40 36 35
f 39 40 35
f 37 33 36
f 40 37 36
f 39 38 37
f 40 39 37
# Left Leg (Inverted Normals)
f 46 42 41
f 45 46 41
f 47 43 42
f 46 47 42
f 48 44 43
f 47 48 43
f 45 41 44
f 48 45 44
f 50 46 45
f 49 50 45
f 51 47 46
f 50 51 46
f 52 48 47
f 51 52 47
f 49 45 48
f 52 49 48
f 54 50 49
f 53 54 49
f 55 51 50
f 54 55 50
f 56 52 51
f 55 56 51
f 53 49 52
f 56 53 52
f 55 54 53
f 56 55 53
# Right Leg (Inverted Normals)
f 62 58 57
f 61 62 57
f 63 59 58
f 62 63 58
f 64 60 59
f 63 64 59
f 61 57 60
f 64 61 60
f 66 62 61
f 65 66 61
f 67 63 62
f 66 67 62
f 68 64 63
f 67 68 63
f 65 61 64
f 68 65 64
f 70 66 65
f 69 70 65
f 71 67 66
f 70 71 66
f 72 68 67
f 71 72 67
f 69 65 68
f 72 69 68
f 71 70 69
f 72 71 69
