# Pingy - Mid-Poly Segmented Mesh (Flipped Normals on ALL Arms & Legs)

# --- VERTICES (72 Total) ---

# Body Box (1-8)
v -1.2 -0.5 0.6
v 1.2 -0.5 0.6
v 1.2 1.5 0.6
v -1.2 1.5 0.6
v -1.2 -0.5 -0.6
v 1.2 -0.5 -0.6
v 1.2 1.5 -0.6
v -1.2 1.5 -0.6

# --- LEFT ARM ---
# Shoulder (9-12)
v -1.2 0.7 0.0
v -1.2 0.5 0.2
v -1.2 0.3 0.0
v -1.2 0.5 -0.2
# Elbow (13-16)
v -2.0 0.2 0.3
v -1.9 0.0 0.5
v -2.1 -0.2 0.3
v -2.1 0.0 0.1
# Wrist (17-20)
v -2.6 -0.3 0.5
v -2.5 -0.5 0.7
v -2.7 -0.7 0.5
v -2.7 -0.5 0.3
# Hand (21-24)
v -2.8 -0.5 0.6
v -2.6 -0.8 0.9
v -3.0 -1.1 0.6
v -3.0 -0.8 0.3

# --- RIGHT ARM ---
# Shoulder (25-28)
v 1.2 0.7 0.0
v 1.2 0.5 0.2
v 1.2 0.3 0.0
v 1.2 0.5 -0.2
# Elbow (29-32)
v 2.0 0.2 0.3
v 1.9 0.0 0.5
v 2.1 -0.2 0.3
v 2.1 0.0 0.1
# Wrist (33-36)
v 2.6 -0.3 0.5
v 2.5 -0.5 0.7
v 2.7 -0.7 0.5
v 2.7 -0.5 0.3
# Hand (37-40)
v 2.8 -0.5 0.6
v 2.6 -0.8 0.9
v 3.0 -1.1 0.6
v 3.0 -0.8 0.3

# --- LEFT LEG ---
# Hip (41-44)
v -0.4 -0.5 0.2
v -0.6 -0.5 0.4
v -0.8 -0.5 0.2
v -0.6 -0.5 0.0
# Knee (45-48)
v -0.7 -1.1 0.7
v -0.9 -1.2 0.9
v -1.1 -1.3 0.7
v -0.9 -1.2 0.5
# Ankle (49-52)
v -0.9 -1.7 1.1
v -1.1 -1.8 1.3
v -1.3 -1.9 1.1
v -1.1 -1.8 0.9
# Foot (53-56)
v -0.9 -1.9 1.3
v -1.2 -2.1 1.6
v -1.5 -2.3 1.3
v -1.2 -2.1 1.0

# --- RIGHT LEG ---
# Hip (57-60)
v 0.4 -0.5 0.2
v 0.6 -0.5 0.4
v 0.8 -0.5 0.2
v 0.6 -0.5 0.0
# Knee (61-64)
v 0.7 -1.1 0.7
v 0.9 -1.2 0.9
v 1.1 -1.3 0.7
v 0.9 -1.2 0.5
# Ankle (65-68)
v 0.9 -1.7 1.1
v 1.1 -1.8 1.3
v 1.3 -1.9 1.1
v 1.1 -1.8 0.9
# Foot (69-72)
v 0.9 -1.9 1.3
v 1.2 -2.1 1.6
v 1.5 -2.3 1.3
v 1.2 -2.1 1.0


# --- FACES (Triangles) ---

# Body
f 1 2 3
f 1 3 4
f 6 5 8
f 6 8 7
f 5 1 4
f 5 4 8
f 2 6 7
f 2 7 3
f 4 3 7
f 4 7 8
f 5 6 2
f 5 2 1

# Right Arm
f 14 10 9
f 13 14 9
f 15 11 10
f 14 15 10
f 16 12 11
f 15 16 11
f 13 9 12
f 16 13 12
f 18 14 13
f 17 18 13
f 19 15 14
f 18 19 14
f 20 16 15
f 19 20 15
f 17 13 16
f 20 17 16
f 22 18 17
f 21 22 17
f 23 19 18
f 22 23 18
f 24 20 19
f 23 24 19
f 21 17 20
f 24 21 20
f 23 22 21
f 24 23 21

# Left Arm
f 25 26 30
f 25 30 29
f 26 27 31
f 26 31 30
f 27 28 32
f 27 32 31
f 28 25 29
f 28 29 32
f 29 30 34
f 29 34 33
f 30 31 35
f 30 35 34
f 31 32 36
f 31 36 35
f 32 29 33
f 32 33 36
f 33 34 38
f 33 38 37
f 34 35 39
f 34 39 38
f 35 36 40
f 35 40 39
f 36 33 37
f 36 37 40
f 37 38 39
f 37 39 40

# Right Leg
f 41 42 46
f 41 46 45
f 42 43 47
f 42 47 46
f 43 44 48
f 43 48 47
f 44 41 45
f 44 45 48
f 45 46 50
f 45 50 49
f 46 47 51
f 46 51 50
f 47 48 52
f 47 52 51
f 48 45 49
f 48 49 52
f 49 50 54
f 49 54 53
f 50 51 55
f 50 55 54
f 51 52 56
f 51 56 55
f 52 49 53
f 52 53 56
f 53 54 55
f 53 55 56

# Left Leg
f 62 58 57
f 61 62 57
f 63 59 58
f 62 63 58
f 64 60 59
f 63 64 59
f 61 57 60
f 64 61 60
f 66 62 61
f 65 66 61
f 67 63 62
f 66 67 62
f 68 64 63
f 67 68 63
f 65 61 64
f 68 65 64
f 70 66 65
f 69 70 65
f 71 67 66
f 70 71 66
f 72 68 67
f 71 72 67
f 69 65 68
f 72 69 68
f 71 70 69
f 72 71 69
