v 0.46 0.00 0.50
v 0.48 0.00 0.45
v 0.52 0.00 0.45
v 0.54 0.00 0.50
v 0.52 0.00 0.55
v 0.48 0.00 0.55
v 0.46 0.20 0.50
v 0.48 0.20 0.45
v 0.52 0.20 0.45
v 0.54 0.20 0.50
v 0.52 0.20 0.55
v 0.48 0.20 0.55
v 0.20 0.20 0.50
v 0.35 0.20 0.25
v 0.65 0.20 0.25
v 0.80 0.20 0.50
v 0.65 0.20 0.75
v 0.35 0.20 0.75
v 0.30 0.40 0.50
v 0.40 0.40 0.35
v 0.60 0.40 0.35
v 0.70 0.40 0.50
v 0.60 0.40 0.65
v 0.40 0.40 0.65
v 0.30 0.40 0.50
v 0.40 0.40 0.35
v 0.60 0.40 0.35
v 0.70 0.40 0.50
v 0.60 0.40 0.65
v 0.40 0.40 0.65
v 0.38 0.65 0.50
v 0.44 0.65 0.42
v 0.56 0.65 0.42
v 0.62 0.65 0.50
v 0.56 0.65 0.58
v 0.44 0.65 0.58
v 0.50 1.00 0.50
f 1 2 8 7
f 2 3 9 8
f 3 4 10 9
f 4 5 11 10
f 5 6 12 11
f 6 1 7 12
f 13 14 20 19
f 14 15 21 20
f 15 16 22 21
f 16 17 23 22
f 17 18 24 23
f 18 13 19 24
f 25 26 32 31
f 26 27 33 32
f 27 28 34 33
f 28 29 35 34
f 29 30 36 35
f 30 25 31 36
f 31 32 37
f 32 33 37
f 33 34 37
f 34 35 37
f 35 36 37
f 36 31 37
