# Chaotic layered pine tree (valid OBJ)

# === Trunk ===
v 0.46 0.00 0.50
v 0.48 0.00 0.45
v 0.52 0.00 0.45
v 0.54 0.00 0.50
v 0.52 0.00 0.55
v 0.48 0.00 0.55

v 0.46 0.22 0.50
v 0.48 0.22 0.45
v 0.52 0.22 0.45
v 0.54 0.22 0.50
v 0.52 0.22 0.55
v 0.48 0.22 0.55

# === Tier 1 bottom ===
v 0.18 0.22 0.52
v 0.33 0.22 0.23
v 0.68 0.22 0.25
v 0.83 0.22 0.52
v 0.63 0.22 0.82
v 0.28 0.22 0.75

# === Tier 1 top ===
v 0.27 0.40 0.53
v 0.40 0.40 0.33
v 0.60 0.40 0.35
v 0.72 0.40 0.50
v 0.57 0.40 0.67
v 0.38 0.40 0.63

# === Tier 2 bottom ===
v 0.30 0.40 0.55
v 0.42 0.40 0.32
v 0.62 0.40 0.34
v 0.74 0.40 0.52
v 0.58 0.40 0.70
v 0.36 0.40 0.66

# === Tier 2 top ===
v 0.36 0.58 0.55
v 0.46 0.58 0.40
v 0.56 0.58 0.42
v 0.64 0.58 0.52
v 0.56 0.58 0.60
v 0.44 0.58 0.60

# === Tier 3 bottom ===
v 0.38 0.58 0.56
v 0.47 0.58 0.43
v 0.55 0.58 0.45
v 0.62 0.58 0.53
v 0.55 0.58 0.61
v 0.45 0.58 0.61

# === Tier 3 top ===
v 0.41 0.75 0.55
v 0.48 0.75 0.47
v 0.52 0.75 0.48
v 0.57 0.75 0.53
v 0.52 0.75 0.57
v 0.46 0.75 0.57

# === Tier 4 bottom ===
v 0.42 0.75 0.56
v 0.48 0.75 0.48
v 0.52 0.75 0.49
v 0.58 0.75 0.54
v 0.52 0.75 0.58
v 0.46 0.75 0.58

# === Tier 4 top ===
v 0.45 0.88 0.55
v 0.49 0.88 0.50
v 0.51 0.88 0.50
v 0.55 0.88 0.54
v 0.51 0.88 0.56
v 0.47 0.88 0.56

# === Apex ===
v 0.50 1.00 0.50

# === Trunk faces ===
f 1 2 8 7
f 2 3 9 8
f 3 4 10 9
f 4 5 11 10
f 5 6 12 11
f 6 1 7 12

# === Tier 1 ===
f 13 14 20 19
f 14 15 21 20
f 15 16 22 21
f 16 17 23 22
f 17 18 24 23
f 18 13 19 24

# === Tier 2 ===
f 25 26 32 31
f 26 27 33 32
f 27 28 34 33
f 28 29 35 34
f 29 30 36 35
f 30 25 31 36

# === Tier 3 ===
f 37 38 44 43
f 38 39 45 44
f 39 40 46 45
f 40 41 47 46
f 41 42 48 47
f 42 37 43 48

# === Tier 4 ===
f 49 50 56 55
f 50 51 57 56
f 51 52 58 57
f 52 53 59 58
f 53 54 60 59
f 54 49 55 60

# === Top cone ===
f 55 56 61
f 56 57 61
f 57 58 61
f 58 59 61
f 59 60 61
f 60 55 61
