# Evergreen tree with branches + rocks (watertight)

# ==== Trunk (8 sides) ====
v 0.47 0.00 0.50
v 0.50 0.00 0.44
v 0.53 0.00 0.50
v 0.50 0.00 0.56
v 0.47 0.25 0.50
v 0.50 0.25 0.44
v 0.53 0.25 0.50
v 0.50 0.25 0.56

# ==== Branch cluster 1 ====
v 0.20 0.25 0.50
v 0.35 0.30 0.30
v 0.65 0.30 0.30
v 0.80 0.25 0.50
v 0.65 0.30 0.70
v 0.35 0.30 0.70
v 0.50 0.45 0.50

# ==== Branch cluster 2 ====
v 0.30 0.45 0.50
v 0.42 0.48 0.38
v 0.58 0.48 0.38
v 0.70 0.45 0.50
v 0.58 0.48 0.62
v 0.42 0.48 0.62
v 0.50 0.65 0.50

# ==== Branch cluster 3 ====
v 0.36 0.65 0.50
v 0.45 0.68 0.44
v 0.55 0.68 0.44
v 0.64 0.65 0.50
v 0.55 0.68 0.56
v 0.45 0.68 0.56
v 0.50 0.85 0.50

# ==== Apex ====
v 0.50 1.00 0.50

# ==== Rock 1 ====
v 0.30 0.00 0.30
v 0.40 0.00 0.28
v 0.45 0.00 0.35
v 0.35 0.00 0.40
v 0.33 0.08 0.33

# ==== Rock 2 ====
v 0.60 0.00 0.65
v 0.68 0.00 0.62
v 0.72 0.00 0.70
v 0.63 0.00 0.75
v 0.65 0.07 0.68

# ==== Shrub ====
v 0.48 0.00 0.70
v 0.55 0.00 0.68
v 0.58 0.00 0.75
v 0.50 0.00 0.80
v 0.50 0.10 0.73

# ==== Trunk ====
f 1 2 6 5
f 2 3 7 6
f 3 4 8 7
f 4 1 5 8
f 5 6 7 8

# ==== Branch cluster 1 ====
f 9 10 15
f 10 11 15
f 11 12 15
f 12 13 15
f 13 14 15
f 14 9 15

# ==== Branch cluster 2 ====
f 16 17 22
f 17 18 22
f 18 19 22
f 19 20 22
f 20 21 22
f 21 16 22

# ==== Branch cluster 3 ====
f 23 24 29
f 24 25 29
f 25 26 29
f 26 27 29
f 27 28 29
f 28 23 29

# ==== Apex ====
f 23 24 30
f 24 25 30
f 25 26 30
f 26 27 30
f 27 28 30
f 28 23 30

# ==== Rock 1 ====
f 31 32 35
f 32 33 35
f 33 34 35
f 34 31 35

# ==== Rock 2 ====
f 36 37 40
f 37 38 40
f 38 39 40
f 39 36 40

# ==== Shrub ====
f 41 42 45
f 42 43 45
f 43 44 45
f 44 41 45
