# Dense evergreen tree (~220 tris)

# === Trunk (8 sides) ===
v 0.48 0.00 0.50
v 0.50 0.00 0.44
v 0.52 0.00 0.50
v 0.50 0.00 0.56
v 0.48 0.25 0.50
v 0.50 0.25 0.44
v 0.52 0.25 0.50
v 0.50 0.25 0.56

# === Branch ring 1 ===
v 0.30 0.25 0.50
v 0.38 0.25 0.38
v 0.50 0.25 0.30
v 0.62 0.25 0.38
v 0.70 0.25 0.50
v 0.62 0.25 0.62
v 0.50 0.25 0.70
v 0.38 0.25 0.62
v 0.50 0.45 0.50

# === Branch ring 2 ===
v 0.34 0.40 0.50
v 0.40 0.40 0.40
v 0.50 0.40 0.34
v 0.60 0.40 0.40
v 0.66 0.40 0.50
v 0.60 0.40 0.60
v 0.50 0.40 0.66
v 0.40 0.40 0.60
v 0.50 0.60 0.50

# === Branch ring 3 ===
v 0.38 0.55 0.50
v 0.43 0.55 0.43
v 0.50 0.55 0.38
v 0.57 0.55 0.43
v 0.62 0.55 0.50
v 0.57 0.55 0.57
v 0.50 0.55 0.62
v 0.43 0.55 0.57
v 0.50 0.75 0.50

# === Branch ring 4 ===
v 0.41 0.70 0.50
v 0.45 0.70 0.45
v 0.50 0.70 0.41
v 0.55 0.70 0.45
v 0.59 0.70 0.50
v 0.55 0.70 0.55
v 0.50 0.70 0.59
v 0.45 0.70 0.55
v 0.50 0.88 0.50

# === Apex ===
v 0.50 1.00 0.50

# === Trunk faces ===
f 1 2 6 5
f 2 3 7 6
f 3 4 8 7
f 4 1 5 8
f 5 6 7 8

# === Cone 1 ===
f 9 10 17
f 10 11 17
f 11 12 17
f 12 13 17
f 13 14 17
f 14 15 17
f 15 16 17
f 16 9 17
f 9 10 11 12 13 14 15 16

# === Cone 2 ===
f 18 19 26
f 19 20 26
f 20 21 26
f 21 22 26
f 22 23 26
f 23 24 26
f 24 25 26
f 25 18 26
f 18 19 20 21 22 23 24 25

# === Cone 3 ===
f 27 28 35
f 28 29 35
f 29 30 35
f 30 31 35
f 31 32 35
f 32 33 35
f 33 34 35
f 34 27 35
f 27 28 29 30 31 32 33 34

# === Cone 4 ===
f 36 37 44
f 37 38 44
f 38 39 44
f 39 40 44
f 40 41 44
f 41 42 44
f 42 43 44
f 43 36 44
f 36 37 38 39 40 41 42 43

# === Apex cone ===
f 36 37 45
f 37 38 45
f 38 39 45
f 39 40 45
f 40 41 45
f 41 42 45
f 42 43 45
f 43 36 45
